<svg width="112" height="112" viewBox="0 0 112 112" fill="none" xmlns="http://www.w3.org/2000/svg">
<path d="M55.9223 3.38379C36.5842 3.54494 0.164062 7.25142 0.164062 55.919C0.164062 104.587 37.39 107.971 55.7612 108.615C74.2936 108.132 111.519 104.909 111.519 55.919C111.519 6.92912 75.2605 3.54494 55.9223 3.38379ZM53.3439 7.25142H58.5008V45.1219H53.3439V7.25142ZM6.44895 55.919C6.44895 17.4039 31.7497 7.25142 51.8936 7.25142L35.295 54.4687L28.0432 98.7852C26.1094 98.4629 6.2878 88.955 6.44895 55.919ZM56.0835 105.231C47.059 105.07 33.8446 102.169 30.6216 100.074L52.6993 51.7291H59.1454L81.0619 100.397C77.8389 102.492 64.9468 105.231 56.0835 105.231ZM83.6403 99.1075L77.0331 54.4687L59.9511 7.25142C80.095 7.25142 105.396 17.5651 105.396 55.919C105.557 88.955 85.5741 98.7852 83.6403 99.1075Z" fill="#E8F3FF"/>
</svg>
