<svg width="144" height="144" viewBox="0 0 144 144" fill="none" xmlns="http://www.w3.org/2000/svg">
<g clip-path="url(#clip0_16_3371)">
<path d="M143.998 72.873C143.974 72.7692 143.613 72.72 142.964 72.714L133.394 72.5844C118.759 72.4548 91.5223 72.2016 90.2857 72.2016H89.9851C88.5549 72.1308 87.1242 72.3307 85.7683 72.7908L85.2205 72.9558C83.6798 73.4975 82.0773 73.8439 80.4505 73.9866C78.7483 74.0514 72.2707 74.0394 71.9995 74.0394C71.7283 74.0394 65.2447 74.0394 63.5485 73.9926C61.9215 73.8506 60.3189 73.5042 58.7785 72.9618L58.2307 72.7968C56.8727 72.3373 55.4404 72.1374 54.0085 72.2076H53.7439C52.5013 72.2076 25.2643 72.3312 10.6357 72.4668L1.03086 72.5844C0.377456 72.5844 -0.00534362 72.6372 5.63766e-05 72.7434L0.547856 72.879C2.56386 73.293 4.61046 73.5432 6.66666 73.6272C10.5829 73.704 39.2743 74.4222 39.9637 74.4342C41.5141 74.394 43.0567 74.6682 44.4979 75.24H53.4787C53.4787 75.24 49.8511 75.4518 49.7983 75.6756H49.5745C48.6673 75.6756 45.9349 75.6756 44.3863 75.6048C44.3863 75.6048 44.2747 76.0404 45.8527 76.0404C46.4065 76.4112 46.9831 76.7646 47.5075 77.0592H55.2283C55.2283 77.0592 52.1953 77.2416 52.1365 77.4654C51.7771 77.4654 50.4583 77.43 49.1917 77.3946L47.4247 77.3418C47.4247 77.3418 47.3365 77.7246 48.7849 77.7306L49.0321 77.8836C51.9319 79.1856 55.0039 80.0628 58.1545 80.4864C59.3497 80.7156 60.5569 80.8752 61.7707 80.9634C61.7707 80.9634 63.2371 81.093 62.9839 81.087C59.5491 80.9473 56.1336 80.502 52.7779 79.7562C50.0682 79.0956 47.483 78.0019 45.1219 76.5174C43.8066 75.645 42.2711 75.1632 40.6933 75.1278C39.6745 75.057 6.80166 73.7616 6.73086 73.7616C4.62141 73.6876 2.52444 73.4054 0.470456 72.9192L5.63766e-05 72.7548C5.63766e-05 72.843 0.229856 73.0848 0.424256 73.2612C1.43706 74.1624 5.28246 76.029 7.52646 76.5768C11.4193 77.5188 35.3935 80.5698 39.6517 81.0468L42.0073 81.312C48.4441 82.0068 56.5357 82.896 60.6583 83.3142C61.4427 83.4571 62.2498 83.4126 63.0139 83.1846C65.8882 82.119 68.9348 81.594 72.0001 81.636C75.0736 81.6126 78.1267 82.137 81.0163 83.1846C81.7707 83.41 82.5676 83.4543 83.3425 83.3142C87.4651 82.902 95.5801 82.0008 101.963 81.294L104.348 81.0288C108.606 80.5578 132.575 77.625 136.468 76.6824C138.717 76.1406 142.557 74.268 143.576 73.3668C143.758 73.2024 143.978 72.975 143.994 72.8796L144 72.879C144 72.8766 143.998 72.8748 143.998 72.873ZM70.4101 78.8442C65.6401 78.8442 60.9229 78.7794 59.5507 78.438C56.2825 77.6256 54.7573 76.1352 54.4981 75.6822C54.2389 75.2286 54.3037 75.2346 54.7099 75.2346H89.2669C89.6731 75.2346 89.7025 75.276 89.4733 75.6822C89.2435 76.0884 87.7063 77.6256 84.4261 78.438C83.0539 78.7794 78.3367 78.8328 73.5667 78.8442H70.4101ZM143.54 73.02C141.485 73.5083 139.386 73.7923 137.275 73.8678C137.204 73.8678 104.296 75.0456 103.306 75.1278C101.728 75.1632 100.193 75.645 98.8777 76.5174C96.5165 78.0019 93.9313 79.0956 91.2217 79.7562C87.8659 80.502 84.4504 80.9473 81.0157 81.087C80.7625 81.087 82.2289 80.9634 82.2289 80.9634C83.4405 80.875 84.646 80.7158 85.8391 80.4864C88.9909 80.0617 92.065 79.1851 94.9669 77.8836L95.2495 77.7306C96.6985 77.7306 96.6157 77.3418 96.6157 77.3418L94.8487 77.3946C93.5413 77.43 92.1985 77.4654 91.8631 77.4654C91.8043 77.2416 88.7947 77.0592 88.7947 77.0592H96.5095C97.0611 76.7398 97.6032 76.4041 98.1349 76.0524C99.7129 76.0524 99.6073 75.6168 99.6073 75.6168C97.9111 75.6582 94.7545 75.699 94.1953 75.6816C94.1425 75.4578 90.7795 75.246 90.7795 75.246H99.4543C100.904 74.6755 102.455 74.4031 104.012 74.445L137.333 73.7616C139.389 73.6776 141.436 73.4274 143.452 73.0134L143.862 72.912L143.54 73.02ZM71.7643 76.212H72.3061L71.2579 76.9602V77.5548H70.4629V76.9716L69.3325 76.212H70.2571L71.0287 76.695L71.7643 76.212ZM76.6171 77.3076H78.4309V77.5548H75.8281V76.206H76.6171V77.3076ZM79.8619 77.3076H81.7405V77.5548H79.0843V76.206H81.7111V76.4532H79.8619V76.7592H81.6757V77.0064H79.8619V77.3076ZM64.7269 76.212H65.5219V77.5548H64.7095V77.007H63.0427V77.5548H62.2477V76.212H63.0427V76.7538H64.7095L64.7269 76.212ZM68.3137 76.9656L69.3325 77.5548H68.4373C68.4373 77.5548 67.6189 76.9716 67.4305 76.8246C68.2375 76.854 68.3725 76.7658 68.3725 76.6302C68.3725 76.4946 67.7365 76.4184 67.0123 76.4592V77.5548H66.1699V76.218H68.0017C68.9029 76.218 69.1795 76.4064 69.1795 76.5948C69.1795 76.7658 68.8495 76.9188 68.3137 76.9656ZM84.6025 76.6302C84.6025 76.4946 83.9665 76.4184 83.2423 76.4592V77.5662H82.4059V76.2294H84.2137C85.1149 76.2294 85.3915 76.4358 85.3915 76.6062C85.3915 76.7772 85.0615 76.9302 84.5257 76.9656L85.5445 77.5548H84.6493C84.6493 77.5548 83.8309 76.9716 83.6425 76.8246C84.4435 76.854 84.6025 76.7658 84.6025 76.6302ZM75.2569 77.154C75.2569 77.4954 74.5207 77.6076 73.7491 77.6076C73.3335 77.607 72.9185 77.5795 72.5065 77.5254L72.5887 77.2368C72.9637 77.3026 73.3445 77.3301 73.7251 77.319C74.3731 77.319 74.4139 77.2422 74.4139 77.16C74.4139 77.0778 74.2315 77.0244 73.9429 77.0244L73.3537 76.9536C72.7825 76.8828 72.5467 76.8594 72.5467 76.518C72.5467 76.1766 73.2889 76.1178 73.7659 76.1178C74.1838 76.1292 74.6006 76.1647 75.0145 76.224L74.9497 76.4832C74.6243 76.4322 74.2956 76.4047 73.9663 76.401C73.4599 76.401 73.3477 76.4304 73.3477 76.5186C73.3477 76.6068 73.5127 76.6602 73.7659 76.6602L74.4493 76.7076C74.9857 76.7892 75.2449 76.9188 75.2569 77.154ZM59.2501 76.86C59.2501 77.172 60.0097 77.3016 60.5161 77.3016C61.0225 77.3016 61.4995 77.2488 61.6117 77.2488L61.5295 77.5254C61.3879 77.5374 60.8935 77.5902 60.3517 77.5902C59.3449 77.5902 58.4437 77.349 58.4437 76.86C58.4437 76.371 59.3449 76.1298 60.3517 76.1298C60.9409 76.1298 61.4059 76.1886 61.5295 76.1886L61.6117 76.4712C61.2476 76.4346 60.882 76.415 60.5161 76.4124C59.9863 76.4124 59.2501 76.5474 59.2501 76.86ZM65.2333 63.6624L61.9351 60.6768H64.1257L65.3803 61.737L66.7525 62.9148L66.9997 63.1386L67.2469 62.9208L69.7789 60.6948H70.6327C69.5665 61.7136 67.5763 63.6396 67.5763 63.6396L67.4587 63.7512V66.3426H65.3623V63.774L65.2333 63.6624ZM97.4941 66.342H88.6549V60.6708H90.6103V65.6412H97.4947L97.4941 66.342ZM110.609 66.3066H101.628V60.6822H110.497V61.383H103.519V63.132H110.38V63.8562H103.519V65.6112H110.609V66.3066ZM36.1237 66.3186H34.1275V60.6594H36.1237V63.1626H41.6125V60.66H43.5973V66.3192H41.6125V63.84H36.1237V66.3186ZM51.3883 66.3006H49.3741V60.6294H54.6745C55.6825 60.5652 56.6917 60.741 57.6193 61.1418C57.8195 61.2274 57.9921 61.3668 58.1179 61.5445C58.2437 61.7222 58.3179 61.9313 58.3321 62.1486C58.3261 62.7966 57.8491 63.4326 56.1649 63.615L55.6819 63.6678L56.0527 63.9624C56.5885 64.398 57.9253 65.7294 58.5499 66.318L58.6081 66.336H56.2999C55.9585 65.9592 54.0619 64.2396 53.2375 63.3912C54.0297 63.366 54.8181 63.2694 55.5931 63.1026C55.7603 63.0473 55.9064 62.942 56.0118 62.8008C56.1172 62.6597 56.1767 62.4897 56.1823 62.3136C56.1774 62.2041 56.1466 62.0973 56.0923 62.0021C56.0381 61.9068 55.962 61.8259 55.8703 61.7658C55.3873 61.3596 54.2803 61.3596 52.9849 61.3596H51.3889L51.3883 66.3006ZM80.8219 64.8462C80.8219 64.5048 80.5273 64.3458 80.2327 64.257C79.8327 64.1521 79.425 64.0793 79.0135 64.0392C77.9065 63.8976 77.3413 63.8154 76.9525 63.7506C76.24 63.6859 75.5464 63.4859 74.9089 63.1614C74.7289 63.0574 74.5813 62.9054 74.4826 62.7225C74.3839 62.5395 74.3378 62.3328 74.3497 62.1252C74.3437 61.5306 74.8561 61.1532 75.6865 60.906C76.5625 60.6888 77.4637 60.588 78.3661 60.6054C79.7713 60.6216 81.1741 60.7302 82.5649 60.9294L82.4293 61.6128C81.3584 61.4186 80.2727 61.3181 79.1845 61.3122C78.5919 61.2882 77.9986 61.3357 77.4175 61.4538C77.0521 61.554 76.8283 61.7778 76.8283 62.043C76.84 62.1857 76.8982 62.3205 76.9939 62.4269C77.0896 62.5333 77.2175 62.6054 77.3581 62.6322C77.7181 62.7342 78.0865 62.8014 78.4591 62.8326C79.0777 62.8914 79.9489 63.015 80.7793 63.1272C81.4742 63.186 82.1497 63.3865 82.7641 63.7164C82.9454 63.8169 83.096 63.9648 83.1998 64.1442C83.3036 64.3237 83.3566 64.528 83.3533 64.7352C83.3593 65.3124 82.8349 65.754 81.8869 66.06C80.7352 66.3684 79.5454 66.5112 78.3535 66.4842L78.3595 66.4428C77.0051 66.4315 75.6532 66.3252 74.3137 66.1248L74.4901 65.3178C75.7225 65.5884 76.9801 65.7246 78.2413 65.724C78.9564 65.7729 79.6739 65.6746 80.3497 65.4354C80.4783 65.3958 80.5921 65.3185 80.6763 65.2134C80.7605 65.1084 80.8112 64.9805 80.8219 64.8462ZM19.0987 63.5208C19.0987 62.5728 19.7173 61.8954 20.7655 61.395C22.0512 60.8509 23.439 60.5898 24.8347 60.6294C25.9813 60.636 27.1261 60.717 28.2619 60.8706L28.4209 61.6422C27.3827 61.5186 26.339 61.4479 25.2937 61.4304C24.3937 61.4228 23.4998 61.5785 22.6555 61.89C21.8605 62.202 21.1951 62.7144 21.1951 63.5034C21.2011 64.2924 21.8605 64.8048 22.6555 65.1168C23.4997 65.4282 24.3937 65.5836 25.2937 65.5764C26.339 65.559 27.3827 65.4883 28.4209 65.3646L28.2145 66.1536C27.0784 66.3077 25.9337 66.3883 24.7873 66.3948C23.4087 66.4314 22.038 66.1764 20.7649 65.6466C19.6873 65.1462 19.0987 64.4454 19.0987 63.5208ZM117.623 66.3594H115.632V60.6822H120.932C121.941 60.6229 122.95 60.8004 123.877 61.2006C124.077 61.2858 124.249 61.4244 124.375 61.601C124.5 61.7777 124.575 61.9857 124.59 62.202C124.584 62.8554 124.107 63.492 122.423 63.6744L121.94 63.7218L122.311 64.0164C122.846 64.452 124.183 65.7534 124.808 66.372L122.534 66.378C122.193 66.0012 120.29 64.2816 119.472 63.4332C120.265 63.4088 121.053 63.3101 121.828 63.1386C121.994 63.0843 122.14 62.9801 122.246 62.84C122.351 62.6999 122.411 62.5308 122.417 62.3556C122.412 62.2461 122.381 62.1393 122.327 62.0441C122.273 61.9488 122.197 61.8679 122.105 61.8078C121.616 61.3956 120.515 61.3956 119.219 61.3956H117.623L117.623 66.3594Z" fill="#E8F3FF"/>
</g>
<defs>
<clipPath id="clip0_16_3371">
<rect width="144" height="144" fill="white"/>
</clipPath>
</defs>
</svg>
