<svg width="144" height="144" viewBox="0 0 144 144" fill="none" xmlns="http://www.w3.org/2000/svg">
<g clip-path="url(#clip0_16_3372)">
<path d="M105.255 23.2441C102.026 38.0962 100.734 44.8764 97.8285 55.5311C94.9227 66.1858 93.3084 75.2262 89.7568 80.0692C87.1738 83.6208 82.9765 85.8809 78.4563 86.2038C74.259 86.5266 69.7389 86.5266 65.5415 86.2038C61.0214 85.8809 56.8241 83.6208 54.2411 80.0692C50.6895 75.5491 48.7523 65.863 46.1694 55.5311C43.5864 45.1993 41.972 38.0962 38.7433 23.2441L33.9003 23.567C31.9631 23.567 30.3487 23.8899 28.7344 24.2128C28.7344 24.2128 30.6716 54.5625 31.6402 67.4773C32.6088 81.0379 34.2232 103.639 35.5146 121.074C35.5146 121.074 38.4205 121.397 42.9407 121.719C47.4608 122.042 50.0438 122.042 50.0438 122.042C51.981 114.293 54.564 103.962 57.1469 99.4414C58.7613 96.8585 61.6671 95.2441 64.8958 95.2441C67.1559 94.9213 69.416 94.9213 71.9989 94.9213C74.259 94.9213 76.5191 94.9213 79.1021 95.2441C82.3308 95.2441 85.2366 96.8585 86.851 99.4414C89.7568 103.962 92.0169 114.293 93.9541 122.042C93.9541 122.042 96.2142 122.042 101.057 121.719C105.9 121.397 108.483 121.074 108.483 121.074C110.098 103.962 111.712 81.0379 112.358 67.4773C113.326 54.5625 115.264 24.2128 115.264 24.2128C113.649 23.8899 112.035 23.8899 110.098 23.567L105.255 23.2441Z" fill="#E8F3FF"/>
<path d="M143.349 41.3254C141.412 21.9532 128.497 18.0788 117.197 16.1416C109.771 15.1729 102.345 14.5272 94.9185 14.2043C89.1068 13.8815 75.8692 13.5586 71.9947 13.5586C68.1203 13.5586 54.5598 13.8815 49.071 14.2043C41.3221 14.2043 33.8961 14.8501 26.4701 16.1416C15.1696 18.0788 2.25483 22.2761 0.317615 41.3254C-0.328125 47.7828 -0.328125 54.2402 -0.328125 60.6976C-0.328125 69.4151 0.317615 78.1326 1.60909 86.8501C2.25483 94.2761 3.86918 101.379 5.8064 108.805C8.71223 117.2 11.2952 119.783 14.201 122.043C19.3669 125.594 24.8557 127.532 30.9903 128.5C58.1113 131.406 85.2324 131.406 112.353 128.5C118.488 127.532 123.977 125.594 129.143 122.043C132.371 119.46 134.954 117.2 137.537 108.805C139.475 101.702 141.089 94.2761 141.735 86.8501C142.703 78.1326 143.349 69.4151 143.672 60.6976C143.995 54.2402 143.672 47.7828 143.349 41.3254ZM136.246 73.6124C135.923 84.2671 134.309 94.5989 131.726 104.931C130.757 109.774 128.174 113.971 124.623 117.523C119.779 121.397 113.968 123.657 108.156 123.98C83.9409 126.563 59.7257 126.563 35.5104 123.98C29.3759 123.657 23.8871 121.397 19.0441 117.523C15.4925 113.971 13.2324 109.774 11.9409 104.931C9.35797 94.5989 8.06649 84.2671 7.42075 73.6124C6.77501 62.9577 6.77501 51.9801 7.74362 41.3254C9.68084 29.0564 15.4925 23.2447 28.4073 20.9846C35.5104 19.6931 42.9364 19.0474 50.0396 18.7245C56.1741 18.4016 66.1831 18.0788 71.9947 18.0788C77.8064 18.0788 87.8154 18.0788 93.9499 18.7245C101.053 19.0474 108.479 19.6931 115.582 20.9846C128.497 23.2447 134.309 29.3792 135.923 41.3254C136.569 51.9801 136.892 62.9577 136.246 73.6124Z" fill="#E8F3FF"/>
</g>
<defs>
<clipPath id="clip0_16_3372">
<rect width="144" height="144" fill="white"/>
</clipPath>
</defs>
</svg>
