<svg width="144" height="144" viewBox="0 0 144 144" fill="none" xmlns="http://www.w3.org/2000/svg">
<path d="M71.9031 1.60547C33.0491 1.60547 1.60547 33.0491 1.60547 72.1034C1.60547 111.158 33.0491 142.601 72.1034 142.601C111.158 142.601 142.401 110.957 142.401 72.1034C142.401 33.0491 110.757 1.60547 71.9031 1.60547ZM71.9031 134.991C37.255 134.991 9.01576 106.752 9.01576 72.1034C9.01576 37.4553 37.0547 9.01576 71.9031 9.01576C106.752 9.01576 134.79 37.255 134.79 71.9031C134.991 106.752 106.752 134.991 71.9031 134.991Z" fill="#E8F3FF"/>
<path d="M83.5168 39.8546H56.0787V49.468H28.6406V84.717C28.6406 104.945 44.2623 125.373 44.8632 126.575C45.6643 125.373 56.4793 111.154 60.0843 94.5306C63.2887 102.341 67.2943 109.952 72.3013 116.962C73.1024 115.76 83.9174 101.54 87.5224 84.9172C90.7269 92.7281 94.9327 100.339 99.7394 107.348C100.54 105.946 115.962 85.7183 115.962 65.4903V30.041H83.5168V39.8546ZM56.0787 85.1175C56.0787 100.539 45.6643 114.558 45.0634 115.76C44.4626 114.759 33.8479 100.539 33.8479 85.1175V54.6752H56.0787V85.1175ZM83.5168 75.5042C83.5168 90.9256 73.1024 104.945 72.5016 106.147C71.9007 105.145 61.286 90.9256 61.286 75.5042V44.8616H83.5168V75.5042ZM88.7241 35.2482H110.955V65.8908C110.955 81.3122 100.54 95.3317 99.7394 96.5334C99.1385 95.532 88.5238 81.5125 88.5238 65.8908L88.7241 35.2482Z" fill="#E8F3FF"/>
<path d="M109.755 60.8803V36.2461H89.7267L109.354 71.0945C109.554 69.4923 109.755 66.2878 109.755 60.8803ZM106.75 80.7078L89.7267 50.8664V66.4881C89.7267 76.3017 94.934 87.317 99.7406 94.527C102.745 90.1209 104.948 85.5145 106.75 80.7078ZM82.3164 70.4937V46.0597H62.2886L81.9159 80.9081C82.1162 79.1056 82.3164 75.9012 82.3164 70.4937ZM79.5125 90.3212L62.4889 60.4798V76.1014C62.4889 85.9151 67.6961 96.9304 72.5028 104.14C75.3067 99.7343 77.5098 95.1279 79.5125 90.3212ZM55.0786 80.3073V55.6731H35.0508L54.678 90.5215C54.8783 88.9193 55.0786 85.7148 55.0786 80.3073ZM52.0744 100.135L35.0508 70.0931V85.7148C35.0508 95.5284 40.258 106.544 45.0647 113.754C47.8686 109.548 50.2719 104.942 52.0744 100.135Z" fill="#E8F3FF"/>
</svg>
