<svg width="144" height="144" viewBox="0 0 144 144" fill="none" xmlns="http://www.w3.org/2000/svg">
<path d="M135.503 25.0351C109.738 -4.30609 58.7499 11.8116 31.291 35.1057C-2.19132 66.2821 -7.55603 102.8 9.80868 122.329C24.6557 136.188 45.5028 135.553 63.5028 133.67C77.9734 130.894 93.9734 124.706 108.444 113.317C120.185 104.047 130.938 91.341 138.985 74.1645C150.656 49.2704 138.02 27.8586 135.503 25.0351ZM106.444 109.412C99.1734 116.023 52.3499 145.082 21.5028 115.082C-4.07368 90.2116 18.6557 51.1763 32.5616 39.5292C35.0793 38.2586 49.6204 21.5763 76.4675 18.1174C96.3969 15.5527 113.315 20.988 123.479 32.3292C128.773 38.2586 132.232 45.788 133.315 54.6351C136.444 80.4469 113.715 102.8 106.444 109.412Z" fill="#E8F3FF"/>
<path d="M42.4219 40.6348V104.399H69.1042V73.5289C69.1042 69.2701 68.3042 65.8112 63.4101 61.2465L42.4219 40.6348ZM102.587 40.6348V104.399H75.9042V73.5289C75.9042 69.2701 76.7042 65.8112 81.5983 61.2465L102.587 40.6348Z" fill="#E8F3FF"/>
</svg>
