<svg width="128" height="45" viewBox="0 0 128 45" fill="none" xmlns="http://www.w3.org/2000/svg">
<g clip-path="url(#clip0_16_3377)">
<path d="M105.642 44.3733C100.559 44.3733 95.7016 42.7037 91.777 39.5892C87.8524 42.6716 82.9949 44.3733 77.9122 44.3733C72.8295 44.3733 67.972 42.7037 64.0474 39.5892C60.1228 42.6716 55.2653 44.3733 50.1826 44.3733C45.0999 44.3733 40.2424 42.7037 36.3178 39.5892C32.3932 42.6716 27.5357 44.3733 22.453 44.3733C16.534 44.3733 10.9687 42.1258 6.75462 38.0159C2.47616 33.9061 0.0956624 28.4156 -0.000844291 22.572C-0.097351 16.6962 2.09013 11.1415 6.17558 6.87112C10.2289 2.63286 15.7297 0.192648 21.6488 0H21.7453H23.1608C27.9861 0.16054 32.5541 1.83016 36.2857 4.75199C39.9851 1.83016 44.5531 0.16054 49.3784 0L49.4749 2.50443V0H50.8903C55.7157 0.16054 60.2836 1.83016 64.0152 4.75199C67.7468 1.83016 72.2826 0.16054 77.1401 0H77.2367H78.6521C83.4774 0.16054 88.0454 1.83016 91.777 4.75199C95.4764 1.83016 100.044 0.16054 104.902 0L104.998 2.50443V0H106.414C112.301 0.192648 117.802 2.63286 121.887 6.87112C125.973 11.1094 128.16 16.6962 128.063 22.5399C127.967 28.4156 125.586 33.9061 121.372 38.0159C117.094 42.1258 111.529 44.3733 105.642 44.3733ZM95.4442 35.961C98.3073 38.048 101.846 39.3003 105.642 39.3003C115.003 39.3003 122.756 31.7549 122.884 22.5077C123.045 13.2606 115.582 5.49048 106.253 5.13729H105.031C101.46 5.26572 98.1786 6.48583 95.4764 8.44442C98.6933 12.4579 100.366 17.4026 100.302 22.572C100.173 27.4845 98.5003 32.1402 95.4442 35.961ZM67.7147 35.961C70.5777 38.048 74.1163 39.3003 77.9122 39.3003C81.7081 39.3003 85.2145 38.048 88.0776 35.961C85.0537 32.1723 83.3487 27.4845 83.2522 22.572C83.1557 17.4026 84.8607 12.4579 88.0776 8.44442C85.3754 6.48583 82.0942 5.26572 78.5234 5.13729H77.301C73.7302 5.26572 70.449 6.48583 67.7468 8.44442C70.9637 12.4579 72.6365 17.4026 72.5722 22.572C72.4435 27.4845 70.7385 32.1402 67.7147 35.961ZM39.9529 35.961C42.8159 38.048 46.3545 39.3003 50.1504 39.3003C53.9464 39.3003 57.4528 38.048 60.3158 35.961C57.2919 32.1723 55.587 27.4845 55.4905 22.572C55.394 17.4026 57.0989 12.4579 60.3158 8.44442C57.6136 6.48583 54.3324 5.26572 50.7617 5.13729H49.5392C45.9685 5.26572 42.6873 6.48583 39.9851 8.44442C43.202 12.4579 44.8748 17.4026 44.8104 22.572C44.6817 27.4845 42.9768 32.1402 39.9529 35.961ZM21.7775 5.10518C12.4485 5.42626 4.98533 13.2285 5.14618 22.4756C5.30702 31.7228 13.0276 39.2682 22.3887 39.2682C26.1846 39.2682 29.691 38.0159 32.5541 35.9289C29.5302 32.1402 27.8252 27.4524 27.7287 22.5399C27.6322 17.3705 29.3372 12.4258 32.5541 8.41231C29.8519 6.45372 26.5707 5.23361 22.9999 5.10518H21.7775ZM64.0152 12.0726C61.8278 14.9945 60.5732 18.5906 60.6375 22.4756C60.7018 26.136 61.9564 29.5394 64.0152 32.3007C66.0741 29.5394 67.3286 26.136 67.393 22.4756C67.4573 18.5906 66.1706 14.9945 64.0152 12.0726ZM36.2535 12.0726C34.066 14.9945 32.8114 18.5906 32.8758 22.4756C32.9401 26.136 34.1947 29.5394 36.2535 32.3007C38.3123 29.5394 39.5669 26.136 39.6312 22.4756C39.6956 18.5906 38.441 14.9945 36.2535 12.0726ZM91.7448 12.0726C89.5573 14.9945 88.3027 18.5906 88.3671 22.4756C88.4314 26.136 89.686 29.5394 91.7448 32.3007C93.8036 29.5394 95.0582 26.136 95.1226 22.4756C95.2191 18.5906 93.9323 14.9945 91.7448 12.0726Z" fill="white"/>
</g>
<defs>
<clipPath id="clip0_16_3377">
<rect width="128" height="44.3733" fill="white"/>
</clipPath>
</defs>
</svg>
