<svg width="144" height="144" viewBox="0 0 144 144" fill="none" xmlns="http://www.w3.org/2000/svg">
<g clip-path="url(#clip0_16_3381)">
<path d="M54.668 50.3896C55.3302 32.9403 61.1252 16.0706 71.317 1.88672H144.002V5.38209C112.167 14.8012 80.129 31.0822 54.668 50.3896ZM130.048 142.115C91.0106 136.044 60.3249 104.651 55.3119 65.2633C58.6784 62.0715 62.1922 59.0544 65.8532 56.2029C89.2261 38.027 110.529 25.9128 144.011 13.4858V142.115H130.048Z" fill="#E8F3FF"/>
<path d="M105.367 142.112C76.5394 129.51 55.0889 103.175 49.2479 71.3952C36.1495 85.6803 29.821 99.8273 30.189 110.479C30.8788 130.587 50.2781 142.112 77.9099 142.112H105.367ZM47.6658 55.896C47.6474 55.243 47.6474 54.5715 47.6474 53.9092C47.6474 34.749 53.2584 16.8767 62.9166 1.89258H0V126.466H3.46777C3.46777 123.265 3.43098 120.643 4.14845 116.697C8.10374 96.2307 24.5964 74.8446 47.6658 55.896Z" fill="#E8F3FF"/>
</g>
<defs>
<clipPath id="clip0_16_3381">
<rect width="144" height="144" fill="white"/>
</clipPath>
</defs>
</svg>
