<svg width="144" height="144" viewBox="0 0 144 144" fill="none" xmlns="http://www.w3.org/2000/svg">
<g clip-path="url(#clip0_16_3383)">
<path d="M129.744 28.8L133.2 25.344C135.648 28.512 137.664 31.968 139.824 35.568H142.56V1.584H108.432V4.32C112.032 6.192 115.2 8.352 118.368 10.944L114.912 14.4C102.96 5.184 88.128 0 72 0C32.112 0 0 32.112 0 72C0 111.888 32.112 144 72 144C111.888 144 144 111.888 144 72C144 55.728 138.528 40.752 129.744 28.8ZM124.56 84.96C118.656 108.432 97.344 126.144 72 126.144C46.656 126.144 25.2 108.72 19.44 84.96H124.56ZM19.296 58.896C25.2 35.28 46.512 17.712 71.856 17.712C97.2 17.712 118.656 35.136 124.416 58.896H19.296ZM110.448 71.712C110.448 69.264 111.744 66.96 113.904 66.96C115.92 66.96 117.072 69.264 117.072 72C117.072 74.448 115.92 77.04 113.616 77.04C111.312 76.752 110.448 74.304 110.448 71.712ZM50.688 71.712C50.688 69.264 51.984 66.96 54.144 66.96C56.16 66.96 57.312 69.264 57.312 72C57.312 74.448 56.16 77.04 53.856 77.04C51.552 76.752 50.688 74.304 50.688 71.712ZM54.144 64.8C60.48 64.8 63.648 67.968 63.648 71.856C63.648 75.744 60.48 78.912 54.144 78.912C47.808 78.912 44.64 75.6 44.64 71.712C44.64 67.824 47.808 64.8 54.144 64.8ZM34.704 75.456L39.168 67.104H36.432V65.088H45.648V67.104H42.48L36.432 78.48H29.232L22.896 67.104H19.728V65.088H33.264V67.104H30.096L34.704 75.456ZM113.904 64.8C120.24 64.8 123.408 67.968 123.408 71.856C123.408 75.744 120.24 78.912 113.904 78.912C107.568 78.912 104.4 75.744 104.4 71.856C104.4 67.968 107.568 64.8 113.904 64.8ZM82.8 67.248H79.632V65.232H93.168V67.248H90L94.464 75.6L98.928 67.248H96.48V65.232H105.696V67.248H102.528L96.48 78.624H89.28C89.136 78.624 82.8 67.248 82.8 67.248ZM67.392 67.248H64.224V65.232H76.608V67.248H73.44V76.464H76.32C79.056 76.464 80.64 74.592 80.64 72.432H82.656V78.768H64.224V76.752H67.392V67.248Z" fill="#E8F3FF"/>
</g>
<defs>
<clipPath id="clip0_16_3383">
<rect width="144" height="144" fill="white"/>
</clipPath>
</defs>
</svg>
