<svg width="144" height="144" viewBox="0 0 144 144" fill="none" xmlns="http://www.w3.org/2000/svg">
<path d="M72 29.8984C90.024 29.8984 109.344 33.5704 124.716 43.3324C134.706 49.7164 144 59.4004 144 72.0124C144 86.7484 131.418 97.4644 119.364 103.734C105.018 111.162 88.068 114.102 72 114.102C53.982 114.102 34.698 110.472 19.32 100.674C9.336 94.2844 0 84.6064 0 72.0184C0 57.2164 12.552 46.5424 24.636 40.2604C39.024 32.8444 55.938 29.8984 72 29.8984ZM71.85 34.3744C55.092 34.3744 37.038 37.5124 22.5 46.2724C13.356 51.7444 4.32 60.3544 4.32 71.7904C4.32 85.2244 16.56 94.6264 27.504 100.026C41.052 106.638 56.886 109.206 71.85 109.206C88.638 109.206 106.704 106.068 121.242 97.3084C130.344 91.8004 139.416 83.2324 139.416 71.7904C139.416 58.3324 127.206 48.9124 116.232 43.5604C102.684 36.9364 86.844 34.3744 71.85 34.3744ZM8.61 62.4904L36.192 57.7864L44.496 39.7684L52.764 57.7804L80.34 62.4844L52.764 67.2364L44.496 85.2964L36.192 67.2364L8.61 62.4904ZM69.246 76.2244L81.414 74.0884L85.044 65.9344L88.68 74.0884L100.848 76.2244L88.68 78.3244L85.044 86.4844L81.414 78.3244L69.246 76.2244ZM94.422 54.4984L106.59 52.3984L110.22 44.2084L113.856 52.3924L126.024 54.4924L113.856 56.6344L110.22 64.7944L106.584 56.6344L94.422 54.4984ZM81.42 93.0604L93.54 90.9604L97.182 82.7704L100.854 90.9604L113.016 93.0604L100.854 95.2024L97.182 103.362L93.546 95.2024L81.42 93.0604ZM44.04 96.0064L56.208 93.9064L59.88 85.7104L63.51 93.9064L75.678 96.0064L63.51 98.1484L59.88 106.302L56.208 98.1484L44.04 96.0064ZM105.216 75.8884L117.348 73.7464L120.978 65.5924L124.65 73.7464L136.818 75.8884L124.65 77.9884L120.978 86.1304L117.342 77.9884L105.216 75.8884Z" fill="#E8F3FF"/>
</svg>
