<svg width="144" height="144" viewBox="0 0 144 144" fill="none" xmlns="http://www.w3.org/2000/svg">
<path d="M72.1948 16.9956L33.7969 0C33.7969 0 72.2329 143.059 72.0412 143.842L110.631 0.164685L72.1948 16.9956ZM38.5151 5.28027L72.3097 20.0478L106.104 5.44495L72.1566 129.982C72.3097 129.322 38.5151 5.28027 38.5151 5.28027Z" fill="#E8F3FF"/>
<path d="M72.3059 23.4301L42.1172 10.3945C42.1172 10.3945 72.3059 119.958 72.1527 120.535L102.495 10.5182L72.3059 23.4301ZM72.0374 52.3057L69.4676 42.4882L55.4276 39.9718L69.7361 37.7856L71.8074 28.7517L74.339 37.9506L89.1459 40.0542L74.0705 42.2818L72.0378 52.3061L72.0374 52.3057Z" fill="#E8F3FF"/>
</svg>
