<svg width="150" height="68" viewBox="0 0 150 68" fill="none" xmlns="http://www.w3.org/2000/svg">
<path d="M28.2971 3.68589C28.4286 3.68589 28.56 3.68589 28.7441 3.68589C29.4279 3.68589 30.2168 3.42253 30.7427 3.15917C31.1109 2.97481 31.3476 2.84313 31.3213 2.84313C30.8479 2.84313 30.059 2.84313 29.796 2.84313C28.56 2.84313 27.9026 3.55421 27.8763 3.60688C27.85 3.65955 28.0341 3.68589 28.2971 3.68589ZM144.4 37.1067C143.69 35.5265 141.744 36.0269 141.744 36.0269C140.823 36.2113 139.771 37.291 138.194 37.7388C134.828 38.7395 132.145 37.5807 132.145 37.5807C126.965 35.3422 110.318 25.7821 101.851 21.6209C101.851 21.6209 92.147 16.7487 77.8675 11.0864C77.8675 11.0864 50.2553 -1.08099 30.9531 0.0778119C30.9531 0.0778119 20.9601 0.525529 17.8307 5.08171C17.8307 5.08171 17.3048 5.68745 17.5941 6.34585C17.5941 6.34585 17.6467 6.53021 17.5152 6.66189C17.5152 6.66189 15.8321 8.16306 14.9906 9.50621C14.7014 10.0066 14.3595 10.823 14.9643 11.3761C14.9643 11.3761 15.2536 11.5868 15.3588 11.7711C15.5955 12.1662 15.8321 12.7719 16.1214 13.1143C16.5685 13.641 17.4363 14.5365 18.6722 14.3258C19.1193 14.2468 19.2245 14.0624 19.2245 14.0624C19.8556 14.6945 20.8549 14.6681 20.8549 14.6681C20.7234 14.2731 20.3027 13.483 20.2238 13.0353C20.1449 12.5086 20.3027 12.0345 20.3027 12.0345C20.4868 11.4551 20.8286 10.7177 21.2231 10.3226C21.565 9.98027 22.4328 9.61156 23.1165 10.0856C23.6687 10.4807 24.3262 11.7711 23.7739 13.5883C23.7476 13.72 23.1428 15.0368 22.4854 15.2212C22.4854 15.2212 22.4328 15.2475 22.3013 15.2475C21.8542 15.2475 21.039 14.7998 21.039 14.7998C21.039 14.7998 21.0127 14.9052 21.1442 15.3792C21.2231 15.6426 21.302 15.9586 21.3809 16.1693C21.3809 16.1693 21.2231 16.459 21.1179 16.617C20.9601 16.9067 20.8286 17.4334 21.1705 17.6968C21.1705 17.6968 22.6169 18.6713 24.0106 18.7766C24.9836 18.8293 25.3518 18.1709 25.3518 18.1709C26.0618 17.1964 26.5877 16.3537 27.3504 15.6689C29.4016 13.799 32.268 13.2986 32.268 13.2986C32.4521 13.2723 35.6077 12.4032 40.9198 16.6697C39.3945 16.8014 37.58 17.1437 36.1863 17.4071C32.2417 18.1182 29.6908 21.858 28.9545 23.3591C27.0348 27.3096 30.9531 28.6791 30.9531 28.6791C30.9794 28.6527 34.6873 28.363 36.4755 24.4126C36.4755 24.4126 37.133 22.6744 38.8686 23.2274C39.9994 23.5961 50.045 27.1252 52.3328 27.7046C52.3328 27.7046 59.065 29.4691 61.5895 26.3615C65.6393 27.7046 69.4524 28.3367 79.3928 27.0462C81.1284 26.8092 82.4696 26.8619 82.4696 26.8619C84.81 27.0462 86.9138 28.6001 87.5713 29.6272C90.201 33.8146 93.5145 42.1633 105.059 41.1625L110.266 40.6884C113.448 40.5041 116.051 40.3724 118.681 41.7682C119.838 42.3739 120.469 42.5846 122.415 44.4545C125.071 46.9828 127.517 49.7218 130.778 48.2206C131.935 47.6939 133.223 45.6133 133.223 45.6133C133.092 44.6652 132.671 43.7698 131.646 42.9797C134.591 43.6908 141.27 44.1385 143.848 39.6086C144.558 38.6078 144.636 37.6597 144.4 37.1067ZM143.348 39.2399C143.085 40.109 141.849 41.2942 140.324 41.9526C138.72 42.6636 135.406 42.848 133.486 42.532C133.486 42.532 129.752 42.1633 126.518 38.7395C125.492 37.6597 124.23 36.4483 123.046 35.2368C122.52 34.7101 121.258 33.4459 119.181 33.1562C116.998 32.8665 111.66 32.7085 109.635 32.0501C108.294 31.6024 106.663 30.6806 104.507 27.4939C103.481 25.9664 102.745 25.545 101.325 24.6496C101.325 24.6496 102.403 25.5187 103.008 26.5985C103.902 28.1787 104.349 29.3375 104.822 30.1802C105.296 31.023 105.848 31.7604 106.663 32.4452C107.689 33.2616 108.32 33.4196 109.424 33.604C110.476 33.7883 114.053 33.7356 117.129 33.7093C120.154 33.6566 121.495 34.6311 122.494 35.4738C123.415 36.2376 124.992 38.4498 125.965 39.4243C127.122 40.5831 127.964 41.7419 130.252 42.9007C131.041 43.2957 132.329 44.2965 132.277 45.2446C131.251 46.2717 129.989 46.5351 126.938 45.7187C127.149 45.9293 128.753 47.6149 131.488 46.8248C130.673 47.5095 129.857 47.7992 129.016 47.7729C126.149 47.6149 123.362 44.0858 121.784 42.769C120.601 41.7682 120.443 41.5312 118.418 40.1354C115.341 38.0021 108.425 38.6079 108.425 38.6079L103.35 38.8712C93.4619 39.6086 89.3332 30.865 88.2287 29.0214C87.8342 28.3894 87.4924 27.8626 87.1768 27.4676C86.6772 26.7828 83.9685 23.2801 81.2336 22.1476C81.2336 22.1476 83.9159 24.4652 83.7581 25.9928C83.7581 25.9928 82.6537 25.466 79.6295 25.9137C66.6123 27.7836 62.1943 24.5179 62.1943 24.5179C62.7992 21.9106 60.9847 19.2243 60.9847 19.2243C61.984 19.5404 68.3742 21.6999 74.4489 20.4621C74.4489 20.4621 64.5611 20.5148 57.6186 14.9842C57.6186 14.9842 61.9314 20.4095 60.9058 23.9385C60.9058 23.9385 60.1957 27.7046 52.6747 26.2034C51.8595 26.0454 50.9391 25.7821 39.6838 22.648C37.0278 21.858 36.1337 23.1221 35.634 23.8858C35.6077 24.992 34.2929 26.3088 33.6354 26.7038C30.1642 26.0718 31.5316 22.8324 31.5316 22.8324C29.349 25.9664 31.6368 27.3622 32.3732 27.4676C31.9261 27.6783 31.5316 27.8363 31.1898 27.968C31.1898 27.968 28.3497 26.2825 29.9275 23.4908C32.1365 19.6194 34.3981 18.3816 38.553 17.9865C40.3675 17.8022 41.8665 17.6968 43.0236 17.8548C46.0215 18.2762 47.9149 19.9617 52.4117 20.4095C42.8658 17.5125 42.8395 11.9555 42.8132 11.8502C42.2873 13.6674 42.5765 15.2212 43.0499 16.5117C42.9184 16.459 40.8409 15.0895 40.0257 14.6155C36.607 12.5086 33.8984 12.1398 33.8984 12.1398C32.7676 12.0082 32.2417 10.6123 32.2417 10.6123C32.2154 10.5333 32.1628 10.4807 32.1102 10.4017C30.5323 7.68901 28.9545 7.63634 28.9545 7.63634C29.5068 8.40009 29.7171 9.37454 29.796 9.98027C29.8486 10.3226 29.8749 10.9547 29.8749 11.1654C29.8486 14.0624 26.5089 14.9578 26.5089 14.9578C24.1684 17.9075 24.2999 17.9865 23.7739 18.0655C23.248 18.1445 22.1172 17.5651 22.1172 17.5651C22.0383 17.5125 22.012 17.3808 22.012 17.3018C22.0383 17.1174 22.1961 17.0121 22.1961 17.0121C22.6431 16.6697 22.985 16.3273 22.985 16.3273C25.457 13.799 25.7462 12.5876 25.4307 10.9284C24.7995 7.66268 22.4591 8.03138 22.4591 8.03138C21.3283 8.13673 20.8549 9.08484 20.8549 9.08484C20.4605 9.69057 19.6453 11.5341 19.6453 11.5341C19.1456 12.6402 18.6197 12.8773 18.3567 12.9299C18.2515 12.9563 18.0148 12.9563 17.9622 12.9563C17.1733 12.9299 16.5685 12.1925 16.5685 12.1925C16.5422 12.1662 16.4896 12.1135 16.4633 12.0872C15.7269 11.2971 16.2529 10.2963 16.2529 10.2963C17.2259 8.03138 19.1193 7.68901 19.3823 7.66267C19.6453 7.63633 20.5131 7.50466 20.5131 7.50466C22.9324 7.10961 24.0632 4.58132 24.0632 4.58132C22.4328 4.55499 21.6438 4.66033 21.6438 4.66033C20.0397 4.95003 19.5138 6.81991 19.5138 6.81991C18.1726 7.13595 18.1989 5.97715 18.4356 5.60844C18.6723 5.26607 19.4612 3.87024 24.6417 2.68511C24.6417 2.68511 27.1926 1.92135 32.6624 2.15838C32.6624 2.15838 32.6624 2.15838 32.4258 2.57976C31.9524 3.50153 30.0327 5.39775 26.8507 4.68667C26.8507 4.68667 26.877 6.10883 30.322 6.60922C30.322 6.60922 33.4251 7.16228 38.7108 11.4024C38.7108 11.4024 36.1863 6.37219 31.8998 5.08171C31.8998 5.08171 31.3739 4.97636 31.6368 4.63399C31.6368 4.63399 34.1614 2.26372 37.6852 2.26372C37.6852 2.26372 48.6512 2.50075 55.62 9.79591C55.62 9.79591 55.3044 8.53177 54.2262 6.7409C54.2262 6.7409 54.2262 6.7409 53.7792 6.00348C53.7792 6.00348 54.1999 6.05616 55.3307 6.24051C55.3307 6.24051 59.512 6.76724 69.3472 10.1646C69.3472 10.1646 76.7105 12.5876 80.734 14.1941C86.7823 16.617 101.982 22.49 111.66 27.7836C113.395 28.7317 130.883 37.8704 130.883 37.8704C135.722 40.0564 139.088 38.7132 139.088 38.7132C140.166 38.2918 142.165 36.7643 143.032 37.6334C143.479 38.0548 143.558 38.6342 143.348 39.2399ZM20.0397 6.76724C20.0397 6.76724 20.1449 6.47754 20.1712 6.39853C20.1975 6.31952 20.4868 5.52943 21.1968 5.45042C21.1968 5.45042 21.6176 5.42408 22.2487 5.42408C22.2487 5.42408 21.9331 6.42486 20.6971 6.63555C20.7234 6.66189 20.2501 6.76724 20.0397 6.76724Z" fill="white"/>
<path d="M27.1388 63.023H37.6315L32.372 56.913L27.1388 63.023ZM38.9464 64.5769H25.7977L23.615 67.1315H21.0379L31.3727 55.2011H35.7644L46.1255 67.1315H41.1553L38.9464 64.5769ZM104.769 63.023H115.261L110.002 56.913L104.769 63.023ZM116.576 64.5769H103.427L101.245 67.1315H98.6676L109.002 55.2011H113.368L123.729 67.1315H118.759L116.576 64.5769ZM19.0393 55.1748V60.9951C19.0393 62.8913 18.6185 64.0238 17.7244 64.9456C16.1729 66.5521 13.175 67.1315 8.94109 67.1315H0V65.525H8.20477C10.7293 65.525 12.4386 65.1036 13.4642 64.1028C14.2532 63.339 14.595 62.2592 14.595 60.6791V55.2011H19.0393V55.1748ZM65.4278 65.525V61.6272H69.8457V67.1051H57.0126C54.5933 67.1051 52.6999 66.8154 51.2798 66.236C48.8867 65.2616 47.8086 63.5234 47.8086 61.1005C47.8086 58.8355 48.9919 57.2554 50.5172 56.4126C52.1213 55.5172 53.9358 55.1748 56.96 55.1748H69.425V56.7813H58.3275C55.9607 56.7813 54.6459 57.15 53.6729 57.9401C52.805 58.6512 52.3317 59.731 52.3317 61.1531C52.3317 62.628 52.8313 63.7341 53.7517 64.4452C54.751 65.2089 56.0659 65.525 58.3538 65.525H65.4278ZM143.031 62.8913C144.688 62.8387 146.108 62.5753 147.212 61.9959C148.343 61.3901 148.869 60.2314 148.869 59.0462C148.869 57.4397 148.159 56.4389 146.871 55.8595C145.714 55.3591 144.293 55.1748 141.453 55.1748H127.7V67.1051H132.144V62.9703H137.982L144.635 67.1051H150.053L143.031 62.8913ZM140.875 56.676C142.532 56.676 143.268 56.834 143.794 57.2027C144.267 57.5714 144.451 58.1244 144.451 58.9672V59.2042C144.451 59.968 144.267 60.6001 143.689 60.9951C143.136 61.3902 142.347 61.4692 140.927 61.4692H132.118V56.676H140.875ZM96.7216 55.1748V61.1268C96.7216 62.6543 96.5638 63.8921 95.7749 64.8929C94.5126 66.5521 92.1985 67.5002 85.7556 67.5002H85.6767C79.2602 67.5002 76.946 66.5521 75.6837 64.8929C74.9211 63.8658 74.737 62.6543 74.737 61.1268V55.1748H79.1813V60.9424C79.1813 62.4963 79.3654 63.3917 79.9439 64.2081C80.9169 65.5513 82.5736 66.0517 85.5452 66.0517H85.9134C89.0428 66.0517 90.5417 65.5513 91.5147 64.2081C92.0933 63.4181 92.2773 62.4436 92.2773 60.9424V55.1484L96.7216 55.1748Z" fill="white"/>
</svg>
