<svg width="144" height="144" viewBox="0 0 144 144" fill="none" xmlns="http://www.w3.org/2000/svg">
<path d="M132.031 35.5146C131.545 34.9308 130.863 34.2498 130.377 33.666C115.782 18.0011 91.9445 14.5957 71.9013 14.5957C51.6635 14.5957 27.1446 18.0011 12.7446 34.6389C12.55 34.9308 12.2581 35.2227 12.0635 35.5146C5.05807 43.9795 0.679688 55.9471 0.679688 72.0984C0.679688 121.915 41.1554 129.893 71.9013 129.893C102.745 129.893 143.318 121.915 143.318 72.0984C143.318 55.9471 139.036 43.8822 132.031 35.5146ZM25.4905 43.3957C35.1229 28.6065 53.3175 25.0065 71.9013 25.0065C90.4851 25.0065 108.388 28.4119 118.118 42.9092C118.312 43.2011 118.507 43.5903 118.701 43.9795C102.063 53.8065 83.1878 54.1957 71.9013 78.52C59.5446 54.8768 40.8635 54.6822 24.5175 45.2444C24.8094 44.6606 25.1986 44.0768 25.4905 43.3957ZM71.9013 119.482C44.2689 119.677 18.4851 111.698 18.4851 72.0984C18.4851 69.1795 18.4851 66.1633 18.9716 63.6335C19.0689 63.0498 19.2635 62.466 19.3608 61.8822C28.604 65.1903 37.75 68.3038 47.0905 71.4173C57.9878 75.893 65.2851 82.3146 71.9013 96.7146C78.5175 82.3146 85.6202 75.0173 96.6148 70.5416C106.053 67.2335 115.296 63.8281 124.734 60.52C124.831 60.7146 124.831 61.0065 124.928 61.2011C125.415 64.4119 125.609 68.2065 125.609 72.0984C125.707 111.698 99.5337 119.774 71.9013 119.482Z" fill="#E8F3FF"/>
</svg>
