<svg width="144" height="144" viewBox="0 0 144 144" fill="none" xmlns="http://www.w3.org/2000/svg">
<path d="M71.8178 26.168C32.5595 26.168 0.527344 46.6643 0.527344 71.8118C0.527344 96.9592 32.5595 117.456 71.8178 117.456C111.076 117.456 143.108 96.9592 143.108 71.8118C143.108 46.6643 111.076 26.168 71.8178 26.168ZM91.5521 34.6293C97.8587 35.838 103.771 37.6249 109.079 39.8848C113.651 42.2497 116.332 45.0351 116.332 48.057C116.332 54.1534 105.4 59.4351 89.7916 61.7475C88.7142 49.9753 85.8237 39.911 81.9346 33.4731C85.2981 33.7359 88.504 34.13 91.5521 34.6293ZM71.8178 33.0789C77.7303 33.0789 82.6967 45.6132 84.0894 62.457C80.174 62.8249 76.0748 63.0351 71.8178 63.0351C67.5609 63.0351 63.4354 62.8249 59.5463 62.457C60.939 45.5869 65.9317 33.0789 71.8178 33.0789ZM34.5565 39.8848C39.8646 37.6249 45.777 35.8643 52.0835 34.6293C55.1054 34.13 58.3376 33.7359 61.7011 33.4731C57.812 39.911 54.9215 50.0015 53.8441 61.7475C38.2354 59.4088 27.304 54.1534 27.304 48.057C27.304 45.0351 29.9843 42.2234 34.5565 39.8848ZM6.86019 71.8118C6.86019 62.641 12.1682 54.2059 21.0237 47.5315C20.9974 47.8468 20.9711 48.1621 20.9711 48.4775C20.9711 57.438 34.4777 65.1373 53.45 68.2118C53.3974 69.4994 53.3974 70.7869 53.3974 72.1008C53.3974 87.9723 56.6032 102.004 61.4908 110.334C30.5887 107.365 6.86019 91.2045 6.86019 71.8118ZM73.3945 110.834H70.2412C63.9872 108.442 59.1259 91.9665 59.1259 72.1008C59.1259 71.0497 59.1522 70.0249 59.1784 69.0001C63.2251 69.4205 67.4558 69.657 71.8178 69.657C76.1799 69.657 80.4105 69.4205 84.4573 69.0001C84.4835 70.0249 84.5098 71.076 84.5098 72.1008C84.4835 91.9665 79.6222 108.442 73.3945 110.834ZM82.1449 110.361C87.0324 102.031 90.2383 87.9986 90.2383 72.1271C90.2383 70.8132 90.212 69.5256 90.1857 68.238C109.158 65.1636 122.665 57.4643 122.665 48.5037C122.665 48.1884 122.638 47.8731 122.612 47.5577C131.467 54.2322 136.775 62.6672 136.775 71.838C136.775 91.2045 113.047 107.365 82.1449 110.361Z" fill="#E8F3FF"/>
</svg>
