<svg width="144" height="144" viewBox="0 0 144 144" fill="none" xmlns="http://www.w3.org/2000/svg">
<g clip-path="url(#clip0_16_3391)">
<path d="M72 122.918C95.8353 122.918 116.988 114.588 130.094 101.765L118.282 101.812C107.129 111.2 90.8 117.106 72.3059 117.106C37.7882 117.106 10.8706 96.5413 10.8706 71.1766C10.8706 41.906 37.8118 25.2471 72.3059 25.2471C74.4941 25.2471 76.2588 26.2589 74.9412 28.1648C67.7647 36.8001 47.3412 64.5883 43.6235 70.6119C36.2824 82.4707 36.4471 97.0825 54.4471 98.1177H130.118C133.977 98.1177 134.965 96.306 136.353 94.4236C141.412 87.5766 144 79.553 143.977 71.2001C143.953 49.3883 128.612 33.0589 106.047 25.0119L102.565 30.2354C121.318 37.153 133.718 51.153 133.718 71.2001C133.718 74.6825 133.2 78.0707 132.235 81.3413C131.388 84.1648 129.765 86.5648 126.659 86.5648H66.2824C58.5412 86.5648 61.5294 78.5883 64.4 74.706C68.5647 67.2472 91.3177 36.2354 96.8 30.4471C98.1883 28.3295 102.118 23.9295 96.7059 22.2589C89.0118 20.4236 80.6824 19.4824 72 19.4824C32.2353 19.4589 0.0235423 39.8824 1.28635e-05 71.1766C-0.0235166 102.777 32.2353 122.918 72 122.918Z" fill="#E8F3FF"/>
</g>
<defs>
<clipPath id="clip0_16_3391">
<rect width="144" height="144" fill="white"/>
</clipPath>
</defs>
</svg>
