<svg width="109" height="55" viewBox="0 0 109 55" fill="none" xmlns="http://www.w3.org/2000/svg">
<path d="M63.1586 40.8274C63.08 40.7866 63.0146 40.7243 62.97 40.6479C62.9254 40.5714 62.9034 40.4838 62.9065 40.3954C62.9065 40.3954 63.7345 37.6954 64.7425 34.6354L68.3425 23.8354L70.6106 17.1034C70.8626 16.3114 71.1145 15.5554 71.1145 15.4474C71.1406 15.3531 71.1406 15.2536 71.1145 15.1594C71.1145 15.1594 70.7185 14.9794 70.4305 14.9794H69.8545V13.3594H80.6545L80.9425 13.5394C80.9425 13.5394 81.5905 15.4114 84.3626 23.6554C88.8626 37.0834 89.8705 40.1794 89.8705 40.3234C89.873 40.4209 89.8471 40.517 89.7959 40.6001C89.7448 40.6831 89.6707 40.7496 89.5825 40.7914C89.5825 40.7914 88.4665 40.7914 86.1625 40.7914C84.9684 40.9593 83.7567 40.9593 82.5625 40.7914L82.2386 40.5394C82.2386 40.5394 81.7345 39.1354 81.2305 37.5514C76.4785 22.7554 76.6225 23.1514 76.5145 23.1514C76.4065 23.1514 76.2985 23.1514 76.1545 23.1514C76.0105 23.1514 75.9026 23.8354 73.3106 31.9714L71.5106 37.6234C71.2586 38.3434 70.9705 39.3154 70.8265 39.7474C70.6825 40.1794 70.4305 40.7914 70.1425 40.9354C69.8545 41.0794 63.4465 40.9354 63.2665 40.9354L63.1586 40.8274Z" fill="#E8F3FF"/>
<path d="M50.4135 40.577C50.4135 40.577 50.4135 37.661 50.4135 27.869V15.341H50.2335C50.0535 15.341 50.0175 15.161 49.4775 15.161H48.9375V13.541H57.6135H57.7935L57.9735 13.721V40.577H57.7935H54.0135C52.8145 40.6461 51.6125 40.6461 50.4135 40.577Z" fill="#E8F3FF"/>
<path d="M20.9559 40.8315C20.9559 40.8315 20.7759 40.8315 20.7039 40.6515C20.4762 36.4186 20.4762 32.1765 20.7039 27.9435V15.3435C20.7039 15.3435 20.5239 15.1635 19.9479 15.1635H19.3359V13.5435H27.9039H28.0839V18.0795C28.0839 23.0835 28.0839 22.9035 28.4439 22.9035C28.8039 22.9035 28.7319 22.9035 29.9919 21.0315C33.2679 16.3875 35.0679 13.8315 35.2479 13.8315C35.4279 13.8315 35.4639 13.4355 39.6039 13.4355H43.2039C43.2628 13.5201 43.2943 13.6206 43.2943 13.7235C43.2943 13.8265 43.2628 13.927 43.2039 14.0115C43.2039 14.0115 41.5479 16.4955 36.0039 24.8115C35.3919 25.7475 35.2119 26.0355 35.2119 26.1795C35.8066 27.2989 36.5057 28.3597 37.2999 29.3475C40.0336 32.8014 42.5696 36.4072 44.8959 40.1475C44.9275 40.2023 44.9442 40.2644 44.9442 40.3275C44.9442 40.3907 44.9275 40.4528 44.8959 40.5075H41.0079C37.1559 40.5075 37.0839 40.5075 36.8319 40.5075C36.6684 40.4627 36.5195 40.3758 36.3999 40.2555C36.3999 40.2555 34.5279 37.9515 32.4039 34.9995L28.5159 29.5995C28.4486 29.5336 28.3582 29.4966 28.2639 29.4966C28.1697 29.4966 28.0792 29.5336 28.0119 29.5995C28.0119 29.5995 28.0119 30.9315 28.0119 35.1075V40.4355H20.9559V40.8315Z" fill="#E8F3FF"/>
<path d="M51.0122 54.1839C47.3272 54.0957 43.6498 53.8073 39.9962 53.3199C25.0922 51.3039 12.6362 46.1199 5.68818 39.2799C2.97838 36.7465 1.08572 33.4626 0.252181 29.8479C-0.0840603 28.0636 -0.0840603 26.2322 0.252181 24.4479C0.742059 22.1477 1.71111 19.9765 3.09618 18.0759C7.44273 12.6863 13.1823 8.59016 19.6922 6.23186C34.0706 0.811522 49.5316 -1.11338 64.8002 0.615866C83.6282 2.48787 99.1082 9.36386 105.264 18.6159C106.621 20.5022 107.508 22.6847 107.852 24.9824C108.196 27.2801 107.988 29.6268 107.244 31.8279C106.203 34.6742 104.529 37.2469 102.348 39.3519C95.7602 45.9039 84.1682 50.8719 70.2722 53.0679C63.9137 54.0479 57.479 54.4456 51.0482 54.2559L51.0122 54.1839ZM59.2202 50.5839C66.049 50.2014 72.8063 48.9926 79.3442 46.9839C83.9454 45.5925 88.3313 43.5692 92.3762 40.9719C93.9615 39.9281 95.4335 38.7215 96.7682 37.3719C98.2532 35.97 99.4728 34.3113 100.368 32.4759C101.28 30.7377 101.756 28.8045 101.756 26.8419C101.756 24.8793 101.28 22.946 100.368 21.2079C99.4536 19.416 98.2356 17.7961 96.7682 16.4199C94.1619 13.868 91.1435 11.7746 87.8402 10.2279C79.854 6.45215 71.2357 4.19379 62.4242 3.56787C56.8075 3.0639 51.1569 3.0639 45.5402 3.56787C31.8962 4.79186 20.3402 8.85987 12.9242 14.8359C11.744 15.836 10.6483 16.9317 9.64818 18.1119C7.34713 20.7716 6.14945 24.2101 6.30018 27.7239C6.6958 31.4387 8.45271 34.8756 11.2322 37.3719C13.7707 39.8623 16.7019 41.9177 19.9082 43.4559C29.2863 47.939 39.505 50.3924 49.8962 50.6559C51.2282 50.6559 57.9242 50.6559 59.2202 50.6559V50.5839Z" fill="#E8F3FF"/>
</svg>
