<svg width="144" height="144" viewBox="0 0 144 144" fill="none" xmlns="http://www.w3.org/2000/svg">
<g clip-path="url(#clip0_16_3399)">
<path d="M90.6744 109C93.2344 108.68 111.034 106.52 123.594 100.24C137.194 93.4403 143.754 82.4403 143.754 72.6803C143.754 51.6003 114.234 35.3203 71.9544 35.3203C29.6744 35.3203 0.234375 51.4803 0.234375 72.6803C0.234375 82.5603 6.71438 93.6803 20.3944 100.24C33.0344 106.32 50.9544 108.56 53.6344 109L71.9544 55.4003L90.6744 109ZM71.9544 47.0403C71.9544 47.0403 44.0744 84.2003 41.3944 87.5603C31.1144 86.6403 13.3144 79.8403 13.3144 68.2003C13.3144 53.4003 39.2344 39.6003 71.9544 39.6003C106.314 39.6003 130.594 53.4003 130.594 68.2003C130.594 79.9203 112.794 86.6003 102.514 87.4403C99.7144 83.8803 71.9544 47.0403 71.9544 47.0403Z" fill="#E8F3FF"/>
</g>
<defs>
<clipPath id="clip0_16_3399">
<rect width="144" height="144" fill="white"/>
</clipPath>
</defs>
</svg>
