<svg width="144" height="144" viewBox="0 0 144 144" fill="none" xmlns="http://www.w3.org/2000/svg">
<g clip-path="url(#clip0_16_3401)">
<path d="M78.5534 106.369C79.3886 105.73 81.2556 105.092 82.2873 104.649C82.2382 103.077 81.5995 101.603 81.9925 100.277C82.6804 97.9187 84.3016 96.8869 85.8738 96.6904C85.9721 96.7395 86.0703 96.9361 85.9721 96.9852C85.0877 97.8204 84.7438 98.9995 84.5964 100.277C84.5473 100.768 84.449 102.291 84.8912 103.372C85.8247 102.881 88.0846 102.095 88.8216 101.947C88.9199 100.375 89.1655 98.8521 89.6077 97.7221C90.492 95.5113 92.4572 93.7426 94.4224 94.7743C94.5207 94.8235 94.6189 95.02 94.5207 95.0691C93.2924 95.5113 92.5063 96.7887 91.8185 98.2626C91.622 98.7047 90.9342 101.063 91.7203 101.554C91.7203 101.554 91.7694 101.554 91.7694 101.603C93.1942 101.309 93.4398 101.456 94.9629 101.309C95.2085 99.7856 95.8963 98.4591 96.4859 97.4765C97.3702 95.7569 99.6793 94.3813 101.743 95.6096C101.841 95.6587 101.939 95.9043 101.792 95.9043C100.367 96.1991 99.4337 97.1326 98.9424 97.9678C98.6967 98.3608 97.3702 100.179 98.058 100.916H98.3037C99.5319 100.866 100.416 101.112 101.694 101.358C102.087 100.424 102.431 100.326 102.824 99.8347C104.248 98.1152 106.656 97.5256 107.491 99.1469C107.589 99.2452 107.589 99.4417 107.491 99.4417C106.754 99.5399 105.526 99.933 104.936 100.67C104.789 100.817 104.396 101.259 104.003 102.095C105.673 103.372 106.607 104.404 107.049 106.123C107.147 106.418 107.294 108.187 106.705 107.302C104.003 103.913 100.367 103.176 94.9137 103.716C89.0672 104.256 86.3651 105.141 80.5186 108.285C83.7612 111.184 78.8973 114.033 78.1113 109.759C75.2617 114.082 72.2648 108.629 76.0969 107.843C72.1665 104.011 77.5217 102.242 78.5534 106.369ZM88.5268 87.6996C90.6394 87.0118 92.9485 86.2748 94.1276 86.0292C94.3242 82.5901 97.5667 78.3158 101.399 79.7897C101.546 79.8388 101.645 80.0353 101.497 80.0845C100.515 80.3792 97.3702 83.3762 98.4511 85.2923C99.2372 85.3414 101.399 85.2923 102.038 85.3414C102.873 81.5584 106.164 78.9054 109.898 80.6249C110.046 80.674 110.144 80.9197 109.997 80.9197C108.523 81.1653 105.182 83.5236 105.575 85.5379C106.263 85.587 108.13 86.2257 109.309 86.8644C109.751 85.9309 110.242 85.587 110.684 85.0957C112.306 83.3762 115.647 83.2288 116.629 84.8992C116.727 84.9975 116.727 85.194 116.629 85.194C115.204 85.1449 113.927 85.3414 112.699 86.4222C112.502 86.5696 112.109 87.1592 111.667 87.9944C112.846 88.6331 114.173 89.8613 114.418 91.0405C114.615 91.63 114.713 92.1213 114.615 92.7109C114.566 92.8583 114.271 92.7109 114.173 92.6126C111.077 89.2226 104.248 87.1101 97.6159 87.9453C93.1942 88.4857 88.8707 89.714 85.2842 91.2861C86.5125 90.2052 87.5933 89.0261 88.5268 87.6996ZM78.7991 95.3639C78.5043 95.6587 78.2095 95.9043 77.9639 96.1991C79.536 98.3608 77.0304 100.08 76.2935 97.9187C74.4265 99.933 72.9526 97.5748 74.1809 96.5921C75.753 96.3465 77.3252 95.9535 78.7991 95.3639ZM77.7182 124.351C78.1604 123.859 79.2412 122.926 79.7817 122.484C78.1113 119.88 79.0447 116.539 80.666 116.293C80.7643 116.342 80.8134 116.49 80.7643 116.588C80.3221 117.227 80.1256 120.666 81.403 121.403C82.0417 120.961 83.2699 120.076 83.8103 119.929C82.8769 116.785 84.4982 112.559 87.6425 113.247C87.7407 113.296 87.7899 113.493 87.7407 113.542C85.186 114.869 85.1368 118.799 85.8247 119.241C86.8564 118.946 87.9864 118.504 89.1164 118.406C89.6077 114.23 93.2924 112.363 95.1594 113.444C95.2576 113.493 95.3068 113.739 95.2576 113.739C94.2259 113.149 90.3446 117.128 91.622 118.308C92.5063 118.258 93.5381 118.652 94.5698 118.897C95.012 116.588 98.2546 114.672 99.6302 116.146C99.7285 116.244 99.7285 116.441 99.6793 116.441C98.4511 116.686 96.8298 117.816 96.5841 119.978C99.188 121.206 98.8932 123.761 98.4511 123.073C95.9946 119.831 90.7868 120.371 86.8073 121.206C84.4982 121.698 81.2556 123.908 79.8799 125.481C84.056 127.446 80.273 131.131 78.5043 126.954C75.6056 132.064 72.7561 127.397 76.1461 126.021C72.0191 122.828 76.2934 120.666 77.7182 124.351ZM35.663 120.469C31.536 115.704 28.0478 110.545 25.2474 105.337H70.447V120.469H35.663ZM92.2116 46.5287H125.423V59.5481H92.2116V46.5287ZM125.423 26.7784L115.597 23.2902L104.15 20.9811L91.2781 18.1807L79.3395 17.2472H70.2505V30.9545H125.374L125.423 26.7784ZM23.1348 11.4007C24.4613 10.9586 25.7878 10.5655 27.1635 10.1725C27.6548 10.0251 28.1461 9.87772 28.6865 9.77946C29.2269 9.6812 29.7674 9.63207 30.3078 9.77946L30.5043 9.87772C30.7008 9.97598 30.7991 10.1234 30.8973 10.3199C31.0447 10.6638 31.0939 11.0077 31.143 11.4007C31.2413 12.1868 31.2413 12.9729 31.143 13.759C31.0939 14.3977 30.9956 15.0364 30.75 15.5768C30.6517 15.8224 30.5043 16.019 30.3078 16.2155C30.1604 16.3629 30.013 16.5103 29.8656 16.6085C29.5217 16.8542 29.2269 17.0507 28.8339 17.1981C27.9495 17.5911 27.0652 17.8859 26.1317 18.1807L21.4153 19.802V22.7006C20.6292 22.9954 19.8431 23.3393 19.057 23.6341V12.7273C20.4327 12.2851 21.7592 11.8429 23.1348 11.4007ZM21.4153 17.8368C22.9874 17.2963 24.5596 16.7559 26.1809 16.2155C26.6722 16.0681 27.1635 15.9207 27.6056 15.7242L27.9495 15.5277L28.0969 15.4294L28.2443 15.282L28.3917 15.1346L28.49 14.9872L28.6374 14.6925C28.6865 14.4959 28.7356 14.3485 28.7356 14.152C28.7848 13.6607 28.7848 13.2186 28.6374 12.7273L28.5391 12.4816L28.4408 12.2851L28.2935 12.1377L28.0969 12.0394L27.9004 11.9903H27.5074C27.0161 12.0394 26.5739 12.1868 26.0826 12.3342C24.5104 12.8255 22.9383 13.3659 21.3661 13.8572L21.4153 17.8368ZM41.4112 6.43862C42.492 6.2421 43.5238 6.04558 44.6046 5.94732C44.9485 5.89819 45.2924 5.89819 45.6363 5.89819C45.7837 5.89819 45.9802 5.94732 46.1276 5.99645C46.275 6.04558 46.3733 6.09471 46.5207 6.19297C46.6189 6.29123 46.7172 6.34036 46.8155 6.43862C46.9137 6.53688 46.9628 6.68427 47.012 6.78253C47.1102 6.97905 47.1594 7.12644 47.1594 7.32296C47.2576 7.96165 47.3068 8.64947 47.3559 9.33729C47.405 10.1234 47.405 10.8603 47.3559 11.5973C47.3559 11.892 47.3559 12.236 47.3068 12.5307C47.2576 13.1203 47.2576 13.7099 47.1102 14.2994C47.0611 14.4468 47.012 14.5942 46.9628 14.6925C46.8646 14.889 46.7663 15.0855 46.6189 15.282L46.3242 15.7242L45.882 16.019C45.6855 16.1172 45.5381 16.1664 45.3416 16.2646C44.5555 16.5103 43.7694 16.6577 42.9833 16.8542C41.362 17.1981 39.7407 17.4929 38.1194 17.8368C37.3334 17.9842 36.5473 18.1316 35.7612 18.2298C35.5647 18.2789 35.319 18.2789 35.1225 18.2789L34.6312 18.2298C34.4838 18.1807 34.3856 18.1316 34.2873 18.0824L34.0417 17.8859L33.8451 17.5911L33.5504 15.9698V11.5973C33.5995 11.106 33.6486 10.5655 33.7469 10.0742L33.8943 9.63207C33.9925 9.38642 34.0908 9.1899 34.2382 8.99338L34.5821 8.60034L34.8769 8.35469C35.1717 8.15817 35.5156 7.96165 35.9086 7.81426L37.6773 7.27383C38.8073 6.92992 40.0847 6.68427 41.4112 6.43862ZM40.1829 8.64947L37.6281 9.23903C37.4316 9.28816 37.2351 9.38642 37.0386 9.43555L36.8421 9.58294L36.6455 9.73033L36.4982 9.87772L36.3508 10.0251L36.2034 10.1725L36.1051 10.369C36.0069 10.5164 35.9577 10.7129 35.9086 10.8603C35.7612 11.499 35.7612 12.1377 35.7612 12.7764C35.7612 13.4642 35.7612 14.152 35.8595 14.7907L35.9577 15.0364L36.1051 15.282L36.3016 15.4785L36.4982 15.6259L36.7438 15.7242L36.9895 15.7733H37.2842C37.4808 15.7733 37.6282 15.7733 37.7755 15.7242C38.7581 15.5768 39.7407 15.3803 40.7233 15.1838C41.5094 15.0364 42.3446 14.8398 43.1307 14.6433C43.2781 14.5942 43.4746 14.5451 43.622 14.4959L43.8677 14.3485L44.1133 14.2012L44.3098 14.0046L44.5063 13.8081L44.6537 13.5625L44.752 13.3168L44.8503 13.0712C44.9977 12.3342 44.9485 11.6464 44.9485 10.9094C44.9485 10.5164 44.9485 10.1234 44.8994 9.77946L44.8503 9.48468C44.8011 9.28816 44.752 9.09164 44.6537 8.89512L44.5555 8.6986L44.4572 8.55121L44.3098 8.40382L44.2116 8.35469L44.015 8.25643L43.8185 8.2073L43.4255 8.15817C42.9833 8.15817 42.5903 8.2073 42.1972 8.25643C41.5094 8.40382 40.8216 8.55121 40.1829 8.64947ZM56.3958 4.62081C57.6241 4.52255 58.8523 4.42429 60.0806 4.42429H60.8666C61.1614 4.42429 61.4071 4.47342 61.6527 4.62081C61.751 4.66994 61.8492 4.71907 61.8984 4.7682C62.0949 4.91559 62.2423 5.06298 62.3405 5.30863C62.4388 5.45602 62.4879 5.65254 62.5371 5.79993C62.6353 6.19297 62.6353 6.63514 62.6353 7.02818C62.6353 7.56861 62.6353 8.05991 62.5862 8.60034C62.5862 8.79686 62.5371 8.99338 62.4879 9.1899L62.3897 9.38642C62.2914 9.53381 62.2423 9.63207 62.144 9.77946L61.8984 9.97598C61.8001 10.0251 61.7018 10.1234 61.5545 10.1725C61.4071 10.2216 61.2105 10.2708 61.0632 10.3199L59.7366 10.6147L61.0632 11.3516C61.2597 11.499 61.4071 11.5973 61.5545 11.7447L61.7018 11.9412C61.8984 12.236 62.0458 12.5307 62.1931 12.8746C62.3897 13.4642 62.4879 14.0538 62.4879 14.6433C61.7018 14.6925 60.9158 14.6925 60.1297 14.7416C60.0806 14.2994 60.0314 13.9064 59.884 13.4642L59.6875 12.9729L59.5893 12.7273L59.4419 12.5307L59.2945 12.3342L59.098 12.1868L58.8523 12.0394C58.7049 11.9903 58.5575 11.9412 58.4101 11.9412C58.1154 11.892 57.7714 11.9412 57.4767 11.9412C55.9536 12.0394 54.4797 12.1868 52.9567 12.3342L52.3671 12.3833V15.282C51.5811 15.3803 50.795 15.4785 50.0089 15.5277V5.21037C52.1706 4.96472 54.2832 4.7682 56.3958 4.62081ZM52.4163 10.6147C53.9884 10.4673 55.5606 10.3199 57.1328 10.2216L58.754 10.0742C58.9014 10.0742 59.0488 10.0251 59.1962 9.97598L59.3927 9.92685L59.5893 9.82859L59.7366 9.73033L59.884 9.58294L59.9823 9.43555L60.0806 9.28816C60.1297 9.14077 60.1788 9.04251 60.1788 8.89512C60.2279 8.45295 60.2279 8.01078 60.2279 7.56861C60.2279 7.42122 60.1788 7.27383 60.1297 7.07731L60.0314 6.92992L59.9332 6.78253L59.7858 6.63514L59.6384 6.53688L59.491 6.43862L59.2945 6.38949C59.1471 6.34036 58.9997 6.34036 58.8523 6.34036C58.0662 6.34036 57.2801 6.43862 56.5432 6.48775C55.1676 6.58601 53.841 6.7334 52.4654 6.83166L52.4163 10.6147ZM69.1205 13.022H71.8226C72.4122 13.022 73.0509 13.022 73.6896 12.9729C73.837 12.9729 73.9352 12.9238 74.0826 12.9238C74.23 12.8746 74.3283 12.8255 74.4265 12.7764L74.5739 12.6781L74.6722 12.5307L74.7704 12.3833L74.8196 12.236L74.8687 11.892V11.4007L74.7704 10.8603L74.7213 10.7129L74.6722 10.5655L74.5739 10.4181L74.4265 10.3199L74.2791 10.2216L73.9352 10.1234L73.3457 10.0251H67.6466C67.1553 10.0251 66.664 10.0251 66.2218 9.92685C66.0744 9.87772 65.9762 9.87772 65.8779 9.82859L65.7305 9.73033L65.5831 9.63207L65.4849 9.53381L65.3866 9.38642L65.2883 9.23903C65.1901 9.04251 65.0918 8.84599 65.0427 8.64947C64.9444 8.10904 64.9444 7.51948 64.9444 6.97905C64.9444 6.29123 64.9936 5.60341 65.2883 4.96472C65.3375 4.86646 65.4357 4.7682 65.4849 4.66994C65.8288 4.37516 66.2709 4.22777 66.7131 4.12951C67.1553 4.03125 67.6466 4.03125 68.0887 4.03125H71.3313C73.1 4.03125 74.9178 4.08038 76.6865 4.12951V5.70167C74.3283 5.65254 71.97 5.60341 69.6118 5.60341C69.0713 5.60341 68.5309 5.60341 67.9905 5.65254C67.8922 5.65254 67.7448 5.70167 67.6466 5.70167L67.4501 5.79993L67.3027 5.94732L67.2044 6.14384L67.1553 6.34036L67.1061 6.68427V7.51948L67.1553 7.716L67.2044 7.91252L67.3518 8.10904L67.5974 8.25643L67.8431 8.30556C70.2996 8.35469 72.8052 8.40382 75.2617 8.50208L75.5565 8.55121C75.9495 8.64947 76.3426 8.79686 76.6374 9.09164C76.7848 9.23903 76.883 9.38642 76.9321 9.53381C77.1778 10.0742 77.2269 10.7129 77.2269 11.3025C77.2269 11.9903 77.2269 12.6781 77.0304 13.3168C76.9813 13.4151 76.9813 13.5133 76.9321 13.6116L76.7848 13.8081C76.6865 13.9555 76.5882 14.0538 76.4408 14.152C76.1952 14.2994 75.9495 14.4468 75.7039 14.4959C75.3109 14.5942 74.8687 14.5942 74.4756 14.6433C73.2474 14.6925 72.0683 14.6925 70.84 14.6925C68.924 14.6925 67.0079 14.7416 65.1409 14.7416V13.0712C66.4183 13.022 67.6957 13.022 68.9731 13.022H69.1205ZM85.3825 15.1838C84.3999 15.0855 83.3682 15.0364 82.3856 14.889C81.9434 14.8398 81.5012 14.7416 81.1082 14.5942C80.9117 14.4959 80.7151 14.4468 80.5186 14.2994C80.3712 14.2012 80.273 14.1029 80.1256 14.0046C80.0273 13.9064 79.9291 13.759 79.8308 13.6607C79.7326 13.5133 79.6834 13.3659 79.6343 13.2186C79.4869 12.6781 79.4378 12.0886 79.4378 11.499C79.3886 10.0742 79.3886 8.6986 79.4378 7.27383V6.92992C79.4869 6.29123 79.536 5.65254 79.9291 5.11211C80.0765 4.96472 80.1747 4.81733 80.3712 4.71907C80.8625 4.47342 81.4521 4.37516 81.9925 4.32603C82.5821 4.2769 83.1225 4.2769 83.7121 4.32603C84.8421 4.37516 86.0212 4.42429 87.1512 4.52255C88.8216 4.66994 90.4429 4.81733 92.1133 5.01385V6.88079C89.9025 6.68427 87.7407 6.48775 85.5299 6.34036C84.8421 6.29123 84.1051 6.2421 83.3682 6.29123L83.0243 6.34036L82.7786 6.38949L82.5821 6.48775L82.3856 6.63514L82.1891 6.83166L82.0417 7.02818L81.9434 7.27383C81.8943 7.42122 81.8451 7.56861 81.8451 7.716C81.7469 8.40382 81.6977 9.14077 81.7469 9.87772C81.7469 10.4673 81.7469 11.0568 81.8451 11.6464C81.8943 11.7938 81.8943 11.9412 81.9434 12.0886L82.0417 12.3342L82.1891 12.5307L82.3856 12.7273L82.5821 12.8746L82.7786 12.9729L83.0243 13.0712C83.2208 13.1203 83.4173 13.1694 83.6138 13.1694C84.2525 13.2677 84.9403 13.3168 85.579 13.3659C87.7899 13.5625 90.0499 13.759 92.2607 14.0046V15.9207C90.8851 15.7733 89.4603 15.6259 88.0846 15.5277C87.2494 15.3311 86.316 15.282 85.3825 15.1838ZM100.416 10.5164L105.87 11.5481V7.37209C106.705 7.56861 107.54 7.76513 108.424 7.91252V18.672C107.589 18.4755 106.754 18.2789 105.87 18.0824V13.8572C104.396 13.5625 102.971 13.2677 101.497 12.9729C100.171 12.7273 98.795 12.4816 97.4685 12.236V16.412C96.6333 16.2646 95.7981 16.1664 94.9137 16.019V5.55428C95.7489 5.65254 96.6333 5.7508 97.4685 5.89819V10.0251C98.4511 10.1725 99.4337 10.3199 100.416 10.5164ZM119.724 11.2042C120.609 11.499 121.493 11.7938 122.427 12.0886V13.8572C119.823 12.9729 117.17 12.1377 114.517 11.3025L113.632 11.0568V13.759C115.548 14.3485 117.514 14.9381 119.43 15.5768C120.265 15.8716 121.149 16.1172 121.984 16.412V17.9842C119.528 17.149 117.022 16.3629 114.517 15.6259L113.632 15.3803V18.2298C115.499 18.7702 117.366 19.3598 119.184 19.9494C120.265 20.2933 121.346 20.6863 122.476 21.0302V22.848C118.938 21.6689 115.352 20.5881 111.716 19.5563L111.323 19.4581V8.64947C114.124 9.43555 116.924 10.3199 119.724 11.2042ZM18.9096 90.2544C17.3375 84.9975 16.5023 80.0845 16.4531 75.8593H49.3702C49.4685 81.411 51.7776 86.5205 55.4132 90.2544H18.9096Z" fill="#E8F3FF"/>
<path d="M14.9883 10.9038L15.627 10.6582C34.0016 3.87823 52.3271 0.340871 70.7017 -0.00303931C89.0763 -0.297819 107.402 2.60085 125.776 8.79123L126.464 9.03688V9.7247L126.022 75.9028C125.973 87.3009 119.979 103.317 108.679 117.319C99.5901 128.619 87.0129 138.642 71.2913 143.948H70.7508C54.8818 139.87 42.3537 130.241 33.2155 118.99C21.5226 104.496 15.5287 87.2027 15.4796 75.4606C15.3813 64.7994 15.3322 54.1382 15.2339 43.5261L14.9883 10.9038ZM36.409 119.874H69.8174V106.462H26.976C26.8286 106.216 26.6812 105.97 26.583 105.725C28.8921 109.852 31.5942 113.929 34.6894 117.811C35.279 118.498 35.8194 119.186 36.409 119.874ZM69.8665 121.545H37.932C46.1858 130.584 56.847 138.101 69.8665 141.737V121.545ZM37.2442 120.808C37.195 120.758 37.195 120.758 37.195 120.709C37.195 120.758 37.2442 120.808 37.2442 120.808ZM26.0425 104.742H69.8665V96.8322H71.586V141.786C71.5369 141.786 71.4878 141.835 71.4878 141.835C86.4233 136.627 98.411 126.998 107.156 116.14C118.014 102.679 123.811 87.3501 124.057 76.345V76.4432H92.4663C92.4663 76.0993 92.5154 75.7554 92.5154 75.4115V74.7237H124.106C124.155 70.0072 124.155 65.2907 124.204 60.6234H92.5154V58.9529H124.204C124.253 55.1208 124.253 51.3378 124.303 47.5548H92.5154V45.8844H92.2698V45.8352H124.303C124.352 41.217 124.352 36.6479 124.401 32.0297H71.0947V45.8844H69.3752V18.0277C51.8849 18.3224 34.3455 21.8107 16.757 28.6397L16.7078 26.8711C34.7877 19.8946 52.8675 16.4555 70.8982 16.3081C88.7815 16.1607 106.616 19.2559 124.401 25.3972V27.1658C124.45 21.565 124.499 15.9642 124.499 10.4125C106.567 4.46779 88.6341 1.66738 70.7508 1.96216C52.5727 2.25694 34.4438 5.74517 16.3148 12.476L17.1991 43.5261C17.2974 53.9417 17.3465 64.3572 17.4448 74.8219V74.7728H49.4284V75.4606C49.4284 75.8045 49.4284 76.1484 49.4775 76.4923H17.3957C17.4939 80.4227 18.3291 84.9918 19.7539 89.8066C19.7539 89.7574 19.7048 89.7083 19.7048 89.6592H54.7836C55.0784 90.0031 55.3731 90.347 55.717 90.6418L56.7979 91.3787H20.2452C21.67 95.7022 23.586 100.222 26.0425 104.742ZM20.1469 91.0348C20.0978 90.9366 20.0978 90.8383 20.0487 90.7892C20.0978 90.8874 20.1469 90.9366 20.1469 91.0348ZM19.9504 90.3961C19.9013 90.2979 19.9013 90.1996 19.8522 90.1014C19.9013 90.1996 19.9504 90.2979 19.9504 90.3961ZM71.0947 30.3593H124.352V27.215C106.616 21.0246 88.8798 17.9294 71.0947 18.0277V30.3593ZM70.9965 141.983C70.9473 141.983 70.9473 141.983 70.8982 142.032C70.9473 142.032 70.9473 142.032 70.9965 141.983ZM70.3087 141.884C70.1613 141.835 70.063 141.835 69.9156 141.786C70.063 141.786 70.2104 141.835 70.3087 141.884Z" fill="#E8F3FF"/>
<path d="M24.3639 38.075C25.2974 37.4854 26.28 36.8958 27.2626 36.4045C27.1152 34.8815 26.9678 32.5233 27.3609 31.2459C28.0978 28.8877 30.2595 26.9716 32.8143 27.4138C32.9617 27.4629 33.0599 27.6103 32.9617 27.6594C31.5369 28.3964 30.4069 29.5263 29.7682 31.0985C29.5717 31.5407 28.8839 34.685 29.9156 34.9306C30.0139 34.9798 30.1121 34.9798 30.2595 34.9798C32.1265 34.1937 34.0425 33.5059 36.0077 32.9163C36.0077 31.3933 36.0569 29.2807 36.5973 28.1507C37.5799 25.9399 40.0364 24.3186 42.6894 25.1046C42.8368 25.1538 42.9351 25.3503 42.8368 25.3994C41.2646 25.9399 39.9873 26.8733 39.152 28.3472C38.9064 28.7894 37.8747 31.7863 38.9555 32.1794H39.0047C40.8225 31.7863 42.6894 31.4424 44.7037 31.1968C44.9494 29.6737 45.3424 27.7085 46.0302 26.6768C47.5041 24.5151 50.4519 23.0412 53.2032 24.0729C53.3506 24.122 53.4489 24.3186 53.3015 24.3677C51.4837 24.8099 49.9115 25.6451 48.7815 27.0698C48.4867 27.4629 46.9637 30.2142 47.8481 30.8529C47.9463 30.8529 48.0446 30.8529 48.1428 30.8037C49.715 30.6563 51.5328 30.6072 53.2524 30.7055C53.6945 29.772 54.1367 28.9368 54.628 28.3964C56.3475 26.6277 60.1306 25.989 61.2605 27.512C61.3588 27.6103 61.4079 27.8068 61.2605 27.8068C59.6393 27.8559 57.9688 28.1016 56.7406 29.2316C56.5441 29.4281 55.8562 30.1159 55.4632 30.902C58.0671 31.3442 60.2779 32.2285 60.9658 33.8989C61.2114 34.4393 61.3588 34.9306 61.2605 35.5202C61.2605 35.6676 60.9166 35.5693 60.8184 35.4219C57.5267 32.3759 52.2698 32.032 45.2442 33.2602C38.1203 34.4885 32.1756 36.6011 25.7887 39.6471C28.3434 42.5458 24.3148 44.7566 22.9883 41.7106C19.8931 45.3953 17.0436 40.0402 21.2687 39.4015C18.8614 35.6676 23.7252 35.5202 24.3639 38.075ZM25.2483 67.4547C26.0835 66.816 27.1643 66.2756 28.0487 65.7351C27.1643 64.3104 26.6239 62.2469 26.9678 60.9204C27.5574 58.5622 29.0313 57.4322 30.8491 57.5304C30.9965 57.5304 31.0947 57.727 30.9965 57.7761C29.7191 58.6113 29.5226 59.6922 29.1295 61.3134C28.933 62.1978 29.4243 63.6717 30.063 64.2121C31.6843 63.3278 31.6352 63.4752 33.3547 62.8365C32.8634 61.3134 32.9617 59.25 33.6004 57.9726C34.583 55.9091 36.2042 55.1231 37.8255 55.467C37.9729 55.5161 38.0712 55.6635 37.9238 55.7126C36.6464 56.2531 34.0425 58.3165 35.7621 62.1978C37.3342 61.6574 37.4325 61.5591 39.4468 61.1169C39.5942 59.5939 39.6433 57.7761 40.2329 56.6952C41.4612 54.4844 44.3598 53.4526 45.6863 53.9931C45.8337 54.0422 45.932 54.2387 45.7846 54.2879C45.0476 54.7792 44.065 55.1722 43.0824 56.6461C42.542 57.4322 41.6085 59.25 41.8542 60.4782C43.279 60.2817 45.1459 60.1835 46.7672 60.2326C47.1111 59.2991 47.7989 58.1691 48.2411 57.6287C48.5359 57.2848 48.9289 56.99 49.322 56.8426V62.3452C46.6198 62.1978 43.6229 62.4926 40.7733 63.1804C34.3373 64.7034 32.6669 65.8825 26.9187 68.9777C30.3578 71.1394 27.0169 74.4312 24.9043 71.1886C21.1705 75.4629 18.7631 69.9603 22.6444 69.1251C19.6966 65.5386 24.5113 63.6226 25.2483 67.4547ZM23.5778 52.814C24.5604 52.2244 25.887 51.7822 26.8695 51.2909C26.7713 49.7679 26.5748 48.3923 27.0169 47.1149C27.803 44.8058 29.0313 43.6266 30.9965 43.8232C31.1439 43.8723 31.2421 44.0197 31.1439 44.118C29.7191 44.8549 30.063 45.8375 29.4243 47.3605C29.2278 47.8027 28.7365 49.6696 29.7682 49.9644C29.8665 50.0135 29.9647 50.0135 30.1121 50.0135C31.9791 49.2766 31.2912 49.3257 33.2073 48.8344C33.2564 47.3605 33.3547 45.3462 33.846 44.2653C34.8777 42.1528 36.7938 41.121 38.5625 41.5632C38.7099 41.6123 39.0047 41.9562 38.8573 42.0054C37.4325 42.4475 34.976 45.3462 36.0077 47.6062C37.236 47.4097 38.0712 47.0166 40.282 46.7218C40.5768 45.1988 41.0681 43.6758 41.8051 42.6441C43.3281 40.5315 45.6863 40.0893 47.062 40.728C47.2094 40.7771 47.4059 41.1702 47.2585 41.2193C45.4407 41.6123 45.3916 41.4158 44.2124 42.8406C43.5737 43.5775 42.2964 45.5918 43.2298 46.5253C44.802 46.4271 45.8829 46.2305 47.6024 46.3779C48.0446 45.4936 48.3885 44.2653 48.8798 43.774C50.5993 42.0054 53.5963 41.858 54.5789 43.0371C54.6771 43.1353 54.7263 43.3319 54.5789 43.3319C52.9576 43.381 52.368 43.8232 51.0906 44.9532C50.9432 45.0514 50.6485 45.4445 50.3046 45.9358H49.3711V48.9818C46.7181 48.7362 43.8194 48.8344 41.1172 49.2275C33.9934 50.3083 31.3895 51.9296 25.4939 54.7792C27.9995 57.727 23.9218 59.7904 22.6935 56.6952C19.5492 60.3308 16.7488 54.8774 21.0722 54.337C18.6648 50.4557 22.89 49.424 23.5778 52.814Z" fill="#E8F3FF"/>
<path d="M91.4286 46.9224V75.4669C91.4286 86.7177 82.2413 95.8558 70.8923 95.8558C59.5924 95.8558 50.3559 86.7177 50.3559 75.4669V46.9224H91.4286ZM92.4112 45.8906H49.3242V75.4177C49.3242 87.1598 59.0028 96.8384 70.8432 96.8384C82.7326 96.8384 92.3621 87.1598 92.3621 75.4177L92.4112 45.8906Z" fill="#E8F3FF"/>
<path d="M69.9593 66.819C70.1558 67.0155 70.598 66.7698 70.7454 66.5733C71.0893 66.0329 71.0401 65.3451 71.0893 64.6573C71.1384 63.9203 71.1384 63.2816 70.8928 62.5938C70.4997 61.4147 69.9593 60.4812 68.6328 60.2847C68.4854 60.2355 68.1906 60.5303 68.2889 60.6286C69.1732 61.5621 69.5171 61.5129 69.7628 62.9377C70.0084 64.3133 69.861 66.7207 69.9593 66.819ZM60.6737 83.9653C60.8702 84.0145 61.3124 83.4249 61.4598 83.081C61.6072 82.7862 61.5581 82.1967 61.5581 82.1475C61.5089 82.0493 61.0176 82.2458 60.772 82.2458C60.5263 82.2458 60.3298 82.1967 59.9859 82.1475C59.642 82.0984 59.6911 81.3123 59.642 80.8701C59.5437 79.7402 59.4946 78.6102 59.5437 77.4802C59.5437 77.1854 59.642 76.7924 59.8876 76.5958C60.2315 76.3993 60.7228 76.4484 61.1159 76.4976C61.902 76.645 62.6389 77.038 63.4741 77.1854C63.9163 77.2837 64.4076 77.2345 64.8498 77.0871C65.2428 76.9889 65.5376 76.6941 65.8815 76.5467C66.078 76.4976 66.3237 76.4484 66.4711 76.5467C67.1097 76.8906 67.5519 77.5293 68.1906 77.775C69.0258 78.0206 69.9102 77.9223 70.7945 77.9715C71.4823 77.9715 72.1701 77.8732 72.858 77.9715C73.1527 78.0206 73.644 78.0697 73.7423 78.4136C73.8406 78.8558 73.1036 79.2489 73.2019 79.691C73.3984 80.3788 74.1845 80.7228 74.5284 81.3123C74.6758 81.558 74.6266 81.8527 74.5284 82.0984C74.4301 82.2949 74.0862 82.344 73.9388 82.5406C73.7423 82.8353 73.6932 83.1793 73.4967 83.474C73.3001 83.7688 73.0053 84.0145 72.7106 84.2601C72.0719 84.7514 71.4332 85.2427 70.6962 85.6358C70.4506 85.7831 70.0084 85.4884 69.9102 85.734C69.7136 86.1762 69.5171 86.7166 69.3206 87.0114C69.1241 87.3062 68.8784 87.3553 68.731 87.5027C68.5836 87.6992 68.3871 88.0431 68.4854 88.0923C68.5836 88.1414 69.5171 88.1414 69.861 88.0923C70.2049 88.0431 70.4015 87.994 70.4997 87.9449C70.598 87.8466 70.4506 87.5518 70.3523 86.9623C70.3032 86.3727 71.9245 86.1271 72.7106 85.6849C73.5458 85.1445 74.381 84.5549 75.2162 84.0636C75.5601 83.8671 76.0514 83.8179 76.3462 83.5232C76.4936 83.3758 76.4444 83.1301 76.4444 82.9336C76.4444 82.4423 76.3462 81.951 76.3462 81.4597C76.3462 81.2141 76.3462 80.9193 76.5427 80.7719C76.6901 80.6245 76.9849 80.5754 77.1323 80.6736C77.427 80.821 77.4762 81.2632 77.7218 81.4597C78.1149 81.7545 78.6062 81.8527 79.0483 82.0493C79.4414 82.2458 80.1292 82.2458 80.1783 82.6388C80.2766 83.3758 79.7853 84.0636 79.4905 84.7023C79.3431 85.0462 78.9992 85.2427 78.8027 85.5866C78.7044 85.7831 78.7044 86.0288 78.557 86.1762C78.164 86.5692 77.6236 86.8149 77.2305 87.2079C76.9357 87.5027 76.6901 87.7975 76.5427 88.1414C76.4444 88.3379 76.3953 88.5344 76.2971 88.7309C76.1497 88.9275 75.904 88.9766 75.7566 89.2714C75.6092 89.5662 75.2653 90.3522 75.5601 90.3031C75.8549 90.254 77.5744 89.9592 77.6236 89.7627C77.6727 89.6153 77.5253 89.1731 77.427 88.6327C77.3288 88.0923 78.557 87.6992 79.1466 87.3553C79.4905 87.1588 79.9818 87.257 80.2766 87.0114C80.4731 86.864 80.3748 86.5201 80.424 86.3236C80.5714 85.9797 80.6696 85.5866 80.9644 85.2918C81.3083 84.8988 81.8979 84.7514 82.1927 84.3584C82.4874 83.8671 82.8313 83.2775 82.7331 82.7371C82.6348 82.2949 82.0944 82.1475 81.7996 81.8036C81.554 81.558 81.3083 81.2632 81.2101 80.9193C81.0627 80.428 80.9644 79.9367 81.1118 79.4454C81.3083 78.8558 81.8979 78.4628 82.2418 77.9715C82.5366 77.5293 82.9787 77.1854 83.1261 76.6941C83.2735 76.1045 82.9787 75.4658 82.9296 74.8763C82.9296 74.778 82.8313 74.6306 82.9296 74.5324C83.3226 74.1885 83.7648 73.7463 84.3052 73.648C84.7965 73.5989 85.1896 74.0902 85.6809 74.1885C86.1722 74.2376 86.7617 74.2867 87.253 74.0902C87.4004 74.0411 87.4496 73.6972 87.3513 73.5498C87.0074 73.255 86.2704 73.3533 86.1231 72.9602C86.0248 72.6163 86.7126 72.518 86.9091 72.1741C87.1548 71.732 87.3513 71.2407 87.3513 70.7002C87.3513 70.5037 86.9583 70.5037 86.8109 70.602C86.5652 70.7494 86.5652 71.0933 86.3687 71.2898C86.2213 71.4372 85.9757 71.4863 85.7792 71.4863C85.5826 71.4863 85.2878 71.3881 85.1896 71.2407C85.0422 71.0933 84.9439 70.7494 85.0913 70.6511C85.4844 70.4055 86.0248 70.5037 86.467 70.4055C86.6635 70.3563 86.9091 70.3072 87.0074 70.1598C87.1548 69.865 87.1548 69.5211 87.0074 69.2263C86.9583 69.0789 86.7126 69.0789 86.5652 69.1281C86.3687 69.1772 86.2705 69.472 86.0248 69.472C85.73 69.472 85.4352 69.3246 85.2387 69.1281C85.0913 68.9316 85.0422 68.6368 85.1405 68.4403C85.2878 68.0963 85.7791 67.9981 85.9265 67.6542C86.1231 67.212 86.2704 66.6716 86.1722 66.1803C86.1231 65.9838 85.73 65.8855 85.5826 66.0329C85.337 66.1803 85.3861 66.5242 85.2387 66.7207C85.0422 67.0155 84.9439 67.4577 84.6492 67.6051C84.4526 67.7033 84.1087 67.5068 84.0596 67.2611C83.9613 66.8681 84.207 66.4751 84.3052 66.1312C84.4526 65.7381 84.6492 65.3451 84.8948 65.0012C85.1405 64.6572 85.6318 64.5099 85.8283 64.1168C85.9757 63.822 86.1231 63.429 85.9265 63.1834C85.7791 62.9868 85.4352 63.1342 85.2387 63.2816C85.0913 63.3799 85.1405 63.7238 84.9931 63.822C84.5509 64.0186 84.0105 63.8712 83.6174 64.0677C83.2735 64.2642 83.1261 64.6081 82.9296 64.952C82.5857 65.5416 82.5366 66.5733 82.3892 66.6716C82.2418 66.819 81.8979 66.7698 81.7996 66.5733C81.6522 66.3277 81.8979 65.9346 81.7014 65.689C81.554 65.5416 81.1609 65.5416 81.0135 65.689C80.817 65.8855 80.7679 66.1803 80.7679 66.4751C80.7679 66.9172 80.817 67.3594 81.0135 67.7524C81.3574 68.3911 81.8979 68.8824 82.34 69.472C82.7822 70.0615 83.3226 70.602 83.5683 71.2898C83.7157 71.732 83.7648 72.2724 83.5683 72.6654C83.4209 73.0585 83.0279 73.4515 82.6348 73.4515C82.0944 73.4024 81.7014 72.8128 81.2592 72.518C80.817 72.2233 80.3748 71.8302 79.8835 71.732C78.7536 71.5354 77.5744 71.732 76.3953 71.732C75.3636 71.732 74.2827 71.8794 73.251 71.732C72.7597 71.6828 72.2193 71.4863 71.8754 71.1424C71.5314 70.7985 71.2858 70.3072 71.2858 69.865C71.2367 69.2263 71.4823 68.6368 71.728 68.0472C71.9245 67.6542 72.2193 67.2611 72.6123 67.0155C72.9071 66.819 73.3984 66.7207 73.6932 66.819C74.0371 66.9664 74.9705 68.2437 75.1671 68.1946C75.3636 68.1455 75.2162 67.0155 75.1179 66.6716C74.9214 66.1311 74.3319 65.8364 74.1845 65.2959C74.1353 65.1485 74.381 64.952 74.5284 64.952C74.8232 64.952 75.1671 65.1486 75.4127 65.3942C75.5601 65.4925 76.1988 66.4259 76.3462 66.3768C76.4936 66.3277 76.2479 65.0503 76.1005 64.6573C75.8549 64.1168 75.0688 63.7238 75.0197 63.5764C74.9705 63.4781 75.0197 63.3799 75.1671 63.3307C75.4618 63.3307 75.7566 63.4781 76.0514 63.5764C76.2971 63.6746 76.6901 63.9694 76.8375 63.9203C76.9849 63.8712 76.8375 63.429 76.6901 63.2325C76.1497 62.5938 75.4127 62.2007 74.8723 61.6112C74.5775 61.3164 74.2827 60.9234 74.2827 60.4812C74.2827 60.2355 74.5775 59.9899 74.8232 59.8916C75.2653 59.6951 75.8549 59.5969 76.2479 59.3512C76.3953 59.253 76.2971 59.1547 76.1497 59.1056C75.511 58.8599 74.8232 58.7616 74.1353 58.7616C73.7423 58.7616 73.3984 59.0073 73.0054 59.1056C72.7597 59.2038 72.514 59.3512 72.2193 59.3512C71.728 59.3512 71.1875 59.4003 70.8436 59.1056C70.6471 58.909 70.8928 58.516 71.0401 58.2212C71.1875 57.9756 71.4332 57.8282 71.6297 57.6317C71.7771 57.4843 72.2193 57.3369 72.0719 57.2877C71.9245 57.2386 71.1384 57.2386 70.6962 57.386C70.3032 57.4843 69.9593 57.6317 69.6645 57.9264C69.4189 58.1721 69.468 58.7125 69.1241 58.8599C68.5345 59.2038 68.2397 59.1056 67.6011 59.4003C67.4537 59.4986 67.1097 59.8916 66.9624 59.9408C66.1763 60.039 64.6041 59.646 64.555 59.7934C64.4567 59.9408 65.7832 60.6777 66.0289 61.3655C66.1271 61.6603 65.3902 61.2181 65.0954 61.2673C64.6041 61.3164 64.1128 61.4147 63.7198 61.6112C63.3267 61.8077 62.9828 62.1516 62.688 62.4955C62.3933 62.7903 62.2459 63.1834 61.902 63.429C61.7546 63.5273 61.4107 63.3799 61.3124 63.5273C61.165 63.7238 61.1159 64.166 61.3615 64.166L62.7372 64.2642C62.9828 64.2642 62.4915 64.8046 62.6389 65.0503C62.7372 65.1977 63.0811 65.1485 63.2285 65.0503C63.425 64.952 63.5233 64.6572 63.7689 64.5099C64.0146 64.3625 64.2602 64.166 64.555 64.166C64.8989 64.166 65.3411 64.3133 65.4885 64.6081C65.6358 64.9029 65.2919 65.2468 65.2428 65.5416C65.1937 65.8855 65.3902 66.3277 65.1446 66.5733C64.4076 67.2611 64.1619 66.6716 63.0811 68.0472C62.1967 69.1281 62.5898 68.5385 62.295 69.9633C62.2459 70.2581 62.1967 70.5528 61.9511 70.7494C61.7054 70.8968 61.3124 70.995 61.0668 70.8476C60.5755 70.602 60.2807 70.1107 59.9368 69.6194C59.7402 69.3737 59.8385 68.9316 59.5929 68.735C59.249 68.5385 58.7577 68.5385 58.3646 68.6368C58.0698 68.735 57.9224 69.079 57.775 69.3246C57.382 69.865 57.0872 70.5037 56.7433 71.0441C56.4485 71.4863 56.0555 71.8794 55.8098 72.3215C55.6625 72.5672 55.7607 72.862 55.6133 73.1076C55.3185 73.7954 55.0729 74.4341 54.729 75.0728C54.5816 75.3185 54.2868 75.4658 54.1886 75.7606C54.1394 76.0554 54.2377 76.6941 54.3851 76.6941C54.5325 76.6941 55.0238 76.3502 55.3185 76.1537C55.6625 76.0063 56.3011 75.8098 56.3503 75.7115C56.3994 75.6132 56.0064 75.2693 55.8098 75.0237C55.4659 74.5815 56.2029 73.9428 56.4977 73.4515C56.5959 73.255 56.8416 73.2059 56.9398 73.0093C57.1364 72.6163 57.1855 72.125 57.382 71.732C57.6277 71.1915 57.9224 70.6511 58.3155 70.2581C58.512 70.0615 58.8559 69.9142 59.1016 70.1107C59.4946 70.3563 59.5437 70.8968 59.7894 71.3389C59.9859 71.6337 60.2316 71.9285 60.3298 72.2724C60.4281 72.5672 60.1333 72.9602 60.3298 73.2059C60.5755 73.5006 61.0668 73.5989 61.4598 73.648L62.3441 73.7463L62.4424 74.9745C62.4915 75.4167 61.5089 75.0728 61.0668 75.1711C60.6737 75.2693 60.2807 75.4167 59.8385 75.515C59.4455 75.6132 58.7085 75.2693 58.6103 75.7115C58.2664 77.431 58.7085 79.1506 58.8068 80.8701C58.8068 81.3123 58.5611 82.0493 59.0033 82.2458L59.8385 82.5897C59.9859 82.9336 60.0842 83.3758 60.2807 83.6214C60.2315 83.8671 60.4772 83.9162 60.6737 83.9653ZM87.7444 51.1956C87.7444 50.8517 87.4987 50.7043 87.0565 50.7043H85.3861C84.9439 50.7043 84.6983 50.8517 84.6983 51.1956C84.6983 51.5395 84.9439 51.6869 85.3861 51.6869H85.73V54.7821C85.73 55.3225 85.8774 55.5682 86.2213 55.5682C86.5652 55.5682 86.7126 55.3225 86.7126 54.7821V51.6869H87.0565C87.5478 51.6869 87.7444 51.5395 87.7444 51.1956ZM82.9787 52.2765C82.9787 52.6695 82.7822 52.866 82.3892 52.866H81.947V51.6869H82.3892C82.7822 51.6869 82.9787 51.8835 82.9787 52.2765ZM84.0596 55.0769C84.0596 54.8804 83.9613 54.6839 83.7648 54.4382L82.9787 53.4556C83.6174 53.3082 84.0105 52.8169 84.0105 52.1291C84.0105 51.2448 83.4209 50.6061 82.3892 50.6061H81.6522C81.1118 50.6061 80.9644 50.8517 80.9644 51.3922V54.733C80.9644 55.2734 81.1118 55.5191 81.4557 55.5191C81.7996 55.5191 81.947 55.2734 81.947 54.733V53.5539L83.077 55.1752C83.2735 55.4208 83.4209 55.5682 83.6174 55.5682C83.8631 55.5682 84.0596 55.3717 84.0596 55.0769ZM78.8518 53.5539H77.8201L78.3605 51.7852L78.8518 53.5539ZM80.2275 55.0278C80.2275 54.9295 80.2275 54.8313 80.1783 54.6839L79.0975 51.2448C78.9501 50.8517 78.7044 50.6061 78.3605 50.6061C78.0166 50.6061 77.771 50.8517 77.6236 51.2939L76.4936 54.6839C76.4444 54.7821 76.4444 54.8804 76.4444 54.9786C76.4444 55.2734 76.641 55.5191 76.8866 55.5191C77.0831 55.5191 77.2797 55.3717 77.3779 55.0278L77.5253 54.5365H79.0975L79.1957 54.9786C79.294 55.3226 79.4414 55.5191 79.687 55.5191C80.0309 55.5682 80.2275 55.3717 80.2275 55.0278ZM75.7566 53.3082C75.7566 52.7678 75.5601 52.5713 75.1671 52.5713H74.5284C74.1353 52.5713 73.9388 52.7187 73.9388 53.0626C73.9388 53.4065 74.1353 53.5539 74.5284 53.5539H74.8232C74.8232 54.1434 74.5284 54.5365 74.0371 54.5365C73.4966 54.5365 73.1036 53.9469 73.1036 53.0134C73.1036 52.08 73.4966 51.5395 74.0371 51.5395C74.5775 51.5395 74.8232 51.9817 75.0688 51.9817C75.2653 51.9817 75.4618 51.7361 75.4618 51.4904C75.4618 50.9991 74.9214 50.5078 74.0862 50.5078C72.9071 50.5078 72.1701 51.4904 72.1701 53.0626C72.1701 54.5856 72.9071 55.6173 73.9879 55.6173C75.0688 55.6173 75.7566 54.6347 75.7566 53.3082ZM71.9245 51.1956C71.9245 50.8517 71.6788 50.7043 71.2367 50.7043H69.5663C69.1241 50.7043 68.8784 50.8517 68.8784 51.1956C68.8784 51.5395 69.1241 51.6869 69.5663 51.6869H69.9102V54.7821C69.9102 55.3225 70.0575 55.5682 70.4015 55.5682C70.7454 55.5682 70.8928 55.3225 70.8928 54.7821V51.6869H71.2367C71.6788 51.6869 71.9245 51.5395 71.9245 51.1956ZM68.6819 51.1956C68.6819 50.8517 68.4363 50.7043 67.9941 50.7043H66.3237C65.8815 50.7043 65.6359 50.8517 65.6359 51.1956C65.6359 51.5395 65.8815 51.6869 66.3237 51.6869H66.6676V54.7821C66.6676 55.3225 66.815 55.5682 67.1589 55.5682C67.5028 55.5682 67.6502 55.3225 67.6502 54.7821V51.6869H67.9941C68.4363 51.6869 68.6819 51.5395 68.6819 51.1956ZM65.0463 53.4065V51.3922C65.0463 50.8517 64.8989 50.6061 64.555 50.6061C64.2111 50.6061 64.0637 50.8517 64.0637 51.3922V53.3082C64.0637 54.1434 63.7689 54.5856 63.2285 54.5856C62.688 54.5856 62.3933 54.1434 62.3933 53.3082V51.3922C62.3933 50.8517 62.2459 50.6061 61.902 50.6061C61.5581 50.6061 61.4107 50.8517 61.4107 51.3922V53.4065C61.4107 54.8312 62.0985 55.6173 63.2285 55.6173C64.3093 55.6173 65.0463 54.8312 65.0463 53.4065ZM61.0176 51.1956C61.0176 50.8517 60.772 50.7043 60.3298 50.7043H58.6594C58.2172 50.7043 57.9716 50.8517 57.9716 51.1956C57.9716 51.5395 58.2172 51.6869 58.6594 51.6869H59.0033V54.7821C59.0033 55.3225 59.1507 55.5682 59.4946 55.5682C59.8385 55.5682 59.9859 55.3225 59.9859 54.7821V51.6869H60.3298C60.772 51.6869 61.0176 51.5395 61.0176 51.1956ZM57.6277 53.996C57.6277 53.2591 57.2346 52.8169 56.4485 52.5221C55.9572 52.3256 55.6625 52.2765 55.6625 51.9326C55.6625 51.6869 55.859 51.5395 56.1538 51.5395C56.3994 51.5395 56.6942 51.6869 56.8907 51.6869C57.1855 51.6869 57.3329 51.4904 57.3329 51.2448C57.3329 50.8517 56.8907 50.5569 56.1538 50.5569C55.2203 50.5569 54.6307 51.1956 54.6307 52.08C54.6307 52.8169 55.0238 53.1608 55.8098 53.4556C56.252 53.603 56.5468 53.7504 56.5468 54.1434C56.5468 54.4382 56.3503 54.6347 56.0555 54.6347C55.6133 54.6347 55.2694 54.3891 55.0238 54.3891C54.729 54.3891 54.5325 54.5856 54.5325 54.8804C54.5325 55.2734 55.122 55.6665 55.9081 55.6665C56.989 55.6173 57.6277 54.9295 57.6277 53.996Z" fill="#E8F3FF"/>
</g>
<defs>
<clipPath id="clip0_16_3401">
<rect width="144" height="144" fill="white"/>
</clipPath>
</defs>
</svg>
