<svg width="91" height="90" viewBox="0 0 91 90" fill="none" xmlns="http://www.w3.org/2000/svg">
<g clip-path="url(#clip0_16_3403)">
<g clip-path="url(#clip1_16_3403)">
<path d="M89.3164 44.8438C89.3164 69.1719 69.6289 88.8594 45.3008 88.8594C20.9727 88.8594 1.28516 69.1719 1.28516 44.8438C1.28516 20.5156 20.9727 0.828125 45.3008 0.828125C69.6289 0.828125 89.3164 20.5156 89.3164 44.8438ZM45.3008 3.5C22.3789 3.5 3.95703 21.9219 3.95703 44.8438C3.95703 67.7656 22.5195 86.1875 45.3008 86.1875C68.2227 86.1875 86.6445 67.625 86.6445 44.8438C86.6445 21.9219 68.2227 3.5 45.3008 3.5Z" fill="url(#paint0_linear_16_3403)"/>
<path d="M45.3008 3.5C22.3789 3.5 3.95703 21.9219 3.95703 44.8437C3.95703 67.7656 22.5195 86.1875 45.3008 86.1875C68.2226 86.1875 86.6445 67.625 86.6445 44.8437C86.6445 21.9219 68.2226 3.5 45.3008 3.5ZM45.3008 83.5156C23.9258 83.5156 6.62891 66.2187 6.62891 44.8437C6.62891 23.4687 23.9258 6.17188 45.3008 6.17188C66.6758 6.17188 83.9726 23.4687 83.9726 44.8437C83.9726 66.2187 66.6758 83.5156 45.3008 83.5156Z" fill="url(#paint1_linear_16_3403)"/>
<path opacity="0.4" d="M45.3008 88.8594C69.6289 88.8594 89.3164 69.1719 89.3164 44.8438C89.3164 20.5156 69.6289 0.828125 45.3008 0.828125C20.9727 0.828125 1.28516 20.5156 1.28516 44.8438C1.28516 69.1719 20.9727 88.8594 45.3008 88.8594ZM45.3008 -0.15625C70.0508 -0.15625 90.3008 20.0938 90.3008 44.8438C90.3008 69.5938 70.0508 89.8438 45.3008 89.8438C20.5508 89.8438 0.300781 69.5938 0.300781 44.8438C0.300781 20.0938 20.5508 -0.15625 45.3008 -0.15625Z" fill="url(#paint2_linear_16_3403)"/>
<path d="M3.39453 44.9844C3.39453 21.9219 22.0977 2.9375 45.3008 2.9375C68.5039 2.9375 87.207 21.7812 87.207 44.9844C87.207 68.0469 68.5039 86.75 45.3008 86.75C22.0977 86.75 3.39453 68.0469 3.39453 44.9844ZM16.4727 16.0156C9.01953 23.4688 4.37891 33.7344 4.37891 44.9844C4.37891 56.2344 9.01953 66.5 16.332 73.8125C23.7852 81.125 34.0508 85.7656 45.3008 85.7656C56.5508 85.7656 66.8164 81.2656 74.1289 73.8125C81.582 66.5 86.082 56.2344 86.082 44.9844C86.082 33.7344 81.4414 23.4688 74.1289 16.0156C66.8164 8.5625 56.5508 3.92188 45.3008 3.92188C34.0508 3.92188 23.7852 8.5625 16.4727 16.0156Z" fill="white"/>
<path opacity="0.4" d="M45.3008 83.6562C34.8945 83.6562 25.1914 79.5781 17.8789 72.2656C10.5664 64.9531 6.48828 55.25 6.48828 44.8438C6.48828 34.4375 10.5664 24.7344 17.8789 17.4219C25.1914 10.1094 34.8945 6.03125 45.3008 6.03125C55.707 6.03125 65.4102 10.1094 72.7227 17.4219C80.0352 24.7344 84.1133 34.4375 84.1133 44.8438C84.1133 55.25 80.0352 64.9531 72.7227 72.2656C65.4102 79.5781 55.707 83.6562 45.3008 83.6562ZM45.3008 82.5312C55.2852 82.5312 64.8477 78.5938 71.8789 71.5625C79.0508 64.3906 82.8477 54.9688 82.8477 44.9844C82.8477 35 78.9102 25.4375 71.8789 18.4062C64.707 11.2344 55.2852 7.4375 45.3008 7.4375C35.3164 7.4375 25.7539 11.375 18.7227 18.4062C11.5508 25.2969 7.61328 34.8594 7.61328 44.8438C7.61328 54.8281 11.5508 64.3906 18.582 71.4219C25.7539 78.5938 35.3164 82.5312 45.3008 82.5312Z" fill="url(#paint3_linear_16_3403)"/>
<path d="M79.4727 63.125C78.7695 62.5625 51.6289 41.0469 51.6289 41.0469L45.3008 4.90625C44.8789 5.04688 44.3164 5.46875 44.0352 6.03125L39.5352 41.1875L11.5508 62.7031C11.5508 62.7031 10.9883 63.4063 10.707 63.8281C10.5664 64.1094 10.5664 64.5312 10.5664 64.9531L45.1602 50.75L79.7539 64.9531C80.0352 64.25 79.7539 63.5469 79.4727 63.125Z" fill="white"/>
<path d="M45.582 45.9684L45.3008 52.4372L77.082 65.234C78.207 65.7965 79.0508 65.5153 79.8945 64.9528L46.0039 45.8278C45.8633 45.6872 45.582 45.8278 45.582 45.9684Z" fill="#565F64"/>
<path d="M45.582 45.9684C45.582 45.9684 47.4102 49.2028 49.5195 51.4528C52.4727 54.6872 56.4102 56.9372 56.4102 56.9372L77.082 65.234C78.207 65.7965 79.0508 65.5153 79.8945 64.9528L46.0039 45.8278C45.8633 45.6872 45.582 45.8278 45.582 45.9684Z" fill="url(#paint4_linear_16_3403)"/>
<path d="M79.7539 63.6875C79.7539 63.5469 79.6133 63.4062 79.4726 63.125L50.5039 41.8906L46.5664 44.4219C46.5664 44.4219 46.8477 44.5625 46.9883 44.4219C47.4102 44.2813 48.2539 44.1406 49.0977 44.4219C49.8008 44.7031 79.7539 63.8281 79.7539 63.8281C79.7539 63.8281 79.7539 63.8281 79.7539 63.6875Z" fill="#A4AAAE" fill-opacity="0.6"/>
<path d="M78.7695 62.4219L51.7695 41.0469L50.5039 41.8906L79.4727 63.2656C79.332 62.9844 79.0508 62.7031 78.7695 62.4219Z" fill="#333E46"/>
<path d="M46.0039 43.8594C45.8633 44 45.8633 44 45.8633 44C45.8633 44 45.8633 44.2812 46.1445 44.1406C46.2852 44 50.3633 41.8906 51.7695 41.0469L46.8477 7.29688C46.707 6.03125 46.1445 5.46875 45.1602 5.04688L45.7227 44.1406L46.0039 43.8594Z" fill="#565F64"/>
<path d="M43.6133 7.29688V9.125L40.5195 40.2031C40.5195 40.625 40.6602 41.0469 41.082 41.3281L42.9102 42.7344L44.1758 8.42188L44.3164 5.75C43.8945 6.03125 43.7539 6.59375 43.6133 7.29688ZM41.9258 43.2969L40.2383 41.8906L11.6914 62.5625C11.6914 62.5625 10.8477 63.125 10.707 63.6875L11.6914 63.125L41.6445 44.2813C42.207 44 42.3477 43.7188 41.9258 43.2969Z" fill="#A4AAAE" fill-opacity="0.6"/>
<path d="M44.8789 45.9684C44.8789 45.8278 44.7383 45.6872 44.5977 45.8278L10.5664 65.0934C11.4102 65.6559 12.2539 65.7965 13.3789 65.3747L45.1602 52.5778L44.8789 45.9684Z" fill="#565F64"/>
<path d="M45.8633 44L46.0039 43.8594C45.8633 44 45.8633 44 45.8633 44C45.8633 44 45.8633 44.1406 46.0039 44.1406H46.1445C46.2852 44 50.3633 41.8906 51.7695 41.0469L51.207 36.9688L46.8477 7.29688C46.8477 6.73438 46.707 6.3125 46.4258 6.03125C46.4258 6.03125 48.5352 34.4375 48.5352 37.5312C48.5352 41.6094 45.8633 44 45.8633 44Z" fill="url(#paint5_linear_16_3403)"/>
<path d="M44.8789 45.9684C44.8789 45.8278 44.7383 45.6872 44.5977 45.8278L10.5664 65.0934C11.4102 65.6559 12.2539 65.7965 13.3789 65.3747L45.1602 52.5778L44.8789 45.9684Z" fill="url(#paint6_linear_16_3403)" fill-opacity="0.8"/>
<path opacity="0.8" d="M13.3789 65.2344L45.1602 52.4375L44.8789 46.25C44.3164 47.9375 43.332 49.7656 40.6602 51.1719C38.6914 52.2969 19.8477 61.5781 13.0977 64.8125C12.6758 65.0938 12.1133 65.2344 11.832 65.375C12.3945 65.6562 12.8164 65.5156 13.3789 65.2344Z" fill="url(#paint7_linear_16_3403)"/>
<path d="M46.0039 43.8594C45.8633 44 45.8633 44 45.8633 44C45.8633 44 45.8633 44.2812 46.1445 44.1406C46.2852 44 50.3633 41.8906 51.7695 41.0469L46.8477 7.29688C46.707 6.03125 46.1445 5.46875 45.1602 5.04688L45.7227 44.1406L46.0039 43.8594Z" fill="url(#paint8_linear_16_3403)"/>
<path d="M46.0039 43.8594C45.8633 44 45.8633 44 45.8633 44C45.8633 44 45.8633 44.2812 46.1445 44.1406C46.2852 44 50.3633 41.8906 51.7695 41.0469L46.8477 7.29688C46.707 6.03125 46.1445 5.46875 45.1602 5.04688L45.7227 44.1406L46.0039 43.8594Z" fill="url(#paint9_linear_16_3403)"/>
<path d="M7.47266 62.2813C6.48828 60.0313 0.863282 49.0625 7.05078 27.9688H4.66016C3.39453 32.1875 2.41016 34.7188 1.84766 38.5156C1.84766 38.5156 1.56641 39.9219 1.42578 41.4688C1.28516 43.0156 1.28516 43.8594 1.28516 44.8438C1.28516 53.2812 3.39453 58.2031 3.39453 58.2031C5.64453 65.2344 9.58203 71.5625 14.9258 76.3438C19.5664 80.4219 26.7383 83.5156 32.6445 84.6406C31.6602 84.5 14.7852 77.3281 7.47266 62.2813Z" fill="url(#paint10_linear_16_3403)"/>
<path d="M45.8633 45.6872H44.5977C44.7383 45.6872 44.8789 45.6872 44.8789 45.8278L45.1602 52.2965H45.3008L45.582 45.8278C45.582 45.6872 45.7227 45.5465 45.8633 45.6872Z" fill="url(#paint11_linear_16_3403)"/>
<path d="M59.3633 3.07812C74.1289 8.70312 88.0508 24.1719 88.0508 43.7188C88.0508 67.3438 69.207 86.6094 45.3008 86.6094V88.8594C69.207 88.8594 89.3164 69.1719 89.3164 44.8438C89.3164 25.4375 76.9414 9.125 59.3633 3.07812Z" fill="url(#paint12_linear_16_3403)"/>
<path d="M82.9883 28.25C73.1445 5.60938 50.9258 4.34375 49.6602 4.20312C49.6602 4.20312 49.6602 4.20312 49.5195 4.20312C66.5352 7.29688 77.3633 18.4062 81.1602 30.0781V30.2188C82.8477 34.7188 83.6914 39.5 83.832 44.7031C83.9727 49.625 82.8477 55.1094 80.7383 60.1719C80.5977 60.875 80.457 61.7188 80.3164 61.7188H82.5664C89.3164 49.0625 86.3633 36.2656 82.9883 28.25Z" fill="url(#paint13_linear_16_3403)"/>
<path d="M3.39453 44.9844C3.39453 21.9219 22.0977 2.9375 45.3008 2.9375C68.5039 2.9375 87.207 21.7812 87.207 44.9844C87.207 68.0469 68.5039 86.75 45.3008 86.75C22.0977 86.75 3.39453 68.0469 3.39453 44.9844ZM16.4727 16.0156C9.01953 23.4688 4.37891 33.7344 4.37891 44.9844C4.37891 56.2344 9.01953 66.5 16.332 73.8125C23.7852 81.125 34.0508 85.7656 45.3008 85.7656C56.5508 85.7656 66.8164 81.2656 74.1289 73.8125C81.582 66.5 86.082 56.2344 86.082 44.9844C86.082 33.7344 81.4414 23.4688 74.1289 16.0156C66.8164 8.5625 56.5508 3.92188 45.3008 3.92188C34.0508 3.92188 23.7852 8.5625 16.4727 16.0156Z" fill="#FBFBFB"/>
<path d="M11.4102 62.8437L40.0977 42.1719C41.6445 43.0156 44.1758 44.1406 44.457 44.1406C44.7383 44.2812 44.7383 44 44.7383 44L41.2227 41.0469C40.8008 40.7656 40.6602 40.3438 40.6602 39.9219L44.0352 6.03125C43.8945 6.17188 43.8945 6.45313 43.7539 6.59375C43.6133 6.875 43.6133 7.01563 43.6133 7.29688L38.6914 41.1875L11.6914 62.4219C11.5508 62.5625 11.4102 62.7031 11.4102 62.8437Z" fill="#333F47"/>
</g>
</g>
<defs>
<linearGradient id="paint0_linear_16_3403" x1="1027.82" y1="1575.8" x2="7777.88" y2="7228.99" gradientUnits="userSpaceOnUse">
<stop stop-color="white"/>
<stop offset="0.1" stop-color="#CDD0D0"/>
<stop offset="0.2" stop-color="#A5ACAF"/>
<stop offset="0.3" stop-color="#98A0A4"/>
<stop offset="0.4" stop-color="#828A8F"/>
<stop offset="0.5" stop-color="#667075"/>
<stop offset="0.6" stop-color="#535C63"/>
<stop offset="0.7" stop-color="#475158"/>
<stop offset="0.8" stop-color="#434D54"/>
<stop offset="1" stop-color="#475157"/>
</linearGradient>
<linearGradient id="paint1_linear_16_3403" x1="974.295" y1="1480.05" x2="7302.37" y2="6795.7" gradientUnits="userSpaceOnUse">
<stop stop-color="#0B1F2A"/>
<stop offset="0.2" stop-color="#333F47"/>
<stop offset="0.5" stop-color="#81898D"/>
<stop offset="0.7" stop-color="#B3B8B8"/>
<stop offset="0.8" stop-color="#DEE0DD"/>
<stop offset="1" stop-color="#FBFBFB"/>
</linearGradient>
<linearGradient id="paint2_linear_16_3403" x1="6043.35" y1="8733.62" x2="2963.64" y2="268.044" gradientUnits="userSpaceOnUse">
<stop stop-color="#E1E3E1"/>
<stop offset="0.1" stop-color="#C1C5C4"/>
<stop offset="0.3" stop-color="#9BA1A2"/>
<stop offset="0.5" stop-color="#7D8487"/>
<stop offset="0.7" stop-color="#687074" stop-opacity="0"/>
<stop offset="0.8" stop-color="#5B6469" stop-opacity="0"/>
<stop offset="1" stop-color="#576065" stop-opacity="0"/>
</linearGradient>
<linearGradient id="paint3_linear_16_3403" x1="1947.11" y1="526.352" x2="5828.36" y2="7248.21" gradientUnits="userSpaceOnUse">
<stop stop-color="#E1E3E1"/>
<stop offset="0.1" stop-color="#C1C5C4"/>
<stop offset="0.3" stop-color="#9BA1A2"/>
<stop offset="0.5" stop-color="#7D8487"/>
<stop offset="0.7" stop-color="#687074" stop-opacity="0"/>
<stop offset="0.8" stop-color="#5B6469" stop-opacity="0"/>
<stop offset="1" stop-color="#576065" stop-opacity="0"/>
</linearGradient>
<linearGradient id="paint4_linear_16_3403" x1="1775.27" y1="1020.86" x2="1652.9" y2="1222.43" gradientUnits="userSpaceOnUse">
<stop stop-color="#27343C"/>
<stop offset="1" stop-color="#00111E" stop-opacity="0"/>
</linearGradient>
<linearGradient id="paint5_linear_16_3403" x1="358.404" y1="3479.47" x2="71.8538" y2="3019.16" gradientUnits="userSpaceOnUse">
<stop offset="0.1" stop-color="#02131F"/>
<stop offset="0.9" stop-color="#02131F" stop-opacity="0"/>
</linearGradient>
<linearGradient id="paint6_linear_16_3403" x1="3484.02" y1="884.728" x2="2923.26" y2="1044.93" gradientUnits="userSpaceOnUse">
<stop offset="0.2" stop-color="#02131F"/>
<stop offset="0.9" stop-color="#02131F" stop-opacity="0"/>
</linearGradient>
<linearGradient id="paint7_linear_16_3403" x1="1783.72" y1="1106.4" x2="1747.74" y2="1016.46" gradientUnits="userSpaceOnUse">
<stop stop-color="#02131F"/>
<stop offset="0.1" stop-color="#02131F"/>
<stop offset="1" stop-color="#02131F" stop-opacity="0"/>
</linearGradient>
<linearGradient id="paint8_linear_16_3403" x1="381.042" y1="1903.47" x2="361.059" y2="1905.83" gradientUnits="userSpaceOnUse">
<stop offset="0.3" stop-color="#02131F"/>
<stop offset="0.8" stop-color="#02131F" stop-opacity="0"/>
</linearGradient>
<linearGradient id="paint9_linear_16_3403" x1="381.445" y1="1889.42" x2="366.963" y2="1891.31" gradientUnits="userSpaceOnUse">
<stop offset="0.4" stop-color="#27343C"/>
<stop offset="1" stop-color="#3B474E" stop-opacity="0"/>
</linearGradient>
<linearGradient id="paint10_linear_16_3403" x1="1041.79" y1="1842.04" x2="2923.14" y2="2927.67" gradientUnits="userSpaceOnUse">
<stop stop-color="#25323B" stop-opacity="0"/>
<stop offset="0.1" stop-color="#27343C"/>
</linearGradient>
<linearGradient id="paint11_linear_16_3403" x1="114.207" y1="726.453" x2="114.207" y2="51.4564" gradientUnits="userSpaceOnUse">
<stop offset="0.3" stop-color="#A5ABAF"/>
<stop offset="1" stop-color="#A5ABAF" stop-opacity="0"/>
</linearGradient>
<linearGradient id="paint12_linear_16_3403" x1="2253.12" y1="3.07812" x2="2253.12" y2="8581.2" gradientUnits="userSpaceOnUse">
<stop stop-color="#6B7378"/>
<stop offset="0.2" stop-color="#333F47"/>
<stop offset="0.5" stop-color="#27343C"/>
<stop offset="0.8" stop-color="#333F47"/>
<stop offset="1" stop-color="#434D54"/>
</linearGradient>
<linearGradient id="paint13_linear_16_3403" x1="2438.19" y1="707.332" x2="891.381" y2="2975.99" gradientUnits="userSpaceOnUse">
<stop offset="0.7" stop-color="#49545B"/>
<stop offset="0.8" stop-color="white" stop-opacity="0"/>
</linearGradient>
<clipPath id="clip0_16_3403">
<rect width="90.6" height="90" fill="white"/>
</clipPath>
<clipPath id="clip1_16_3403">
<rect width="90" height="90" fill="white" transform="translate(0.300781 -0.152344)"/>
</clipPath>
</defs>
</svg>
