<svg width="150" height="60" viewBox="0 0 150 60" fill="none" xmlns="http://www.w3.org/2000/svg">
<g clip-path="url(#clip0_16_3432)">
<path d="M146.735 53.5502C145.25 53.5502 144.003 54.7997 144.003 56.2872C144.003 57.7747 145.25 59.0242 146.735 59.0242C148.219 59.0242 149.466 57.7747 149.466 56.2872C149.526 54.7402 148.279 53.5502 146.735 53.5502ZM146.735 59.5002C144.953 59.5002 143.469 58.0722 143.469 56.2872C143.469 54.5022 144.953 53.0742 146.735 53.0742C148.516 53.0742 150.001 54.5022 150.001 56.2872C150.001 58.0127 148.576 59.5002 146.735 59.5002Z" fill="white"/>
<path d="M146.022 55.9914H146.972C147.15 55.9914 147.269 55.9319 147.328 55.8129C147.388 55.7534 147.447 55.6344 147.447 55.5154C147.447 55.2774 147.269 54.9799 147.031 54.9799H146.081V55.9914H146.022ZM145.547 57.7169V54.5039H147.21C147.803 54.5039 147.982 55.1584 147.982 55.5154C147.982 55.8724 147.744 56.1699 147.388 56.2889L147.21 56.3484L148.041 57.5979H147.506L146.735 56.3484H146.081V57.7169H145.547Z" fill="white"/>
<path d="M25.7126 0H37.8266V31.7135C37.8266 37.1875 35.4513 48.6115 18.6461 48.6115C1.84086 48.671 0 37.961 0 32.011V26.18H11.7577V31.892C11.7577 35.4025 14.133 38.675 18.5273 38.675C22.981 38.675 25.7126 36.176 25.7126 32.0705V0Z" fill="white"/>
<path d="M63.5997 26.9536C63.5997 23.6811 61.7589 20.5871 57.6021 20.5871C53.5641 20.5871 52.1389 23.4431 52.1389 26.9536H63.5997ZM56.8301 13.3281C66.3313 13.3281 74.7042 16.9576 74.7042 33.7366H52.1389C52.1389 39.0916 54.3361 41.2931 58.2553 41.2931C62.1745 41.2931 63.481 38.1991 63.481 38.1991H74.5855C74.5855 43.0186 67.9346 49.5041 57.899 49.3851C46.4382 49.3851 40.7969 40.9361 40.7969 32.2491C40.7969 23.4431 45.7256 13.3281 56.8301 13.3281Z" fill="white"/>
<path d="M100.06 26.9536C100.06 23.6811 98.2195 20.5871 94.0628 20.5871C90.0248 20.5871 88.5996 23.4431 88.5996 26.9536H100.06ZM93.2908 13.3281C102.792 13.3281 111.165 16.9576 111.165 33.7366H88.5996C88.5996 39.0916 90.7967 41.2931 94.716 41.2931C98.6352 41.2931 99.9416 38.1991 99.9416 38.1991H111.046C111.046 43.0186 104.395 49.5041 94.3597 49.3851C82.8989 49.3851 77.3169 40.9361 77.3169 32.2491C77.2576 23.4431 82.1863 13.3281 93.2908 13.3281Z" fill="white"/>
<path d="M125.296 31.7746C125.177 38.3791 126.602 41.9491 132.066 41.9491C137.529 41.9491 138.301 35.9396 138.301 31.4176C138.301 26.8956 137.232 22.4331 131.531 22.4331C128.028 22.4331 125.415 25.1701 125.296 31.7746ZM114.191 59.5016V14.6386H125.415C125.415 14.6386 125.415 18.5656 125.415 19.7556C125.83 18.8631 126.127 18.2681 126.959 17.2566C127.731 16.3641 129.809 13.7461 135.45 13.7461C141.032 13.7461 149.821 17.6731 149.821 31.4176C149.821 42.0681 144.595 49.8626 135.628 49.8626C130.7 49.8626 128.443 48.1371 127.137 47.1256C126.305 46.4711 126.068 46.1736 125.593 45.5786C125.593 46.4711 125.593 59.5016 125.593 59.5016H114.191Z" fill="white"/>
</g>
<defs>
<clipPath id="clip0_16_3432">
<rect width="150" height="59.5" fill="white"/>
</clipPath>
</defs>
</svg>
