<svg width="150" height="27" viewBox="0 0 150 27" fill="none" xmlns="http://www.w3.org/2000/svg">
<g clip-path="url(#clip0_16_3356)">
<path d="M27.2044 1.23934L26.3639 2.47869C31.8932 4.73607 34.105 8.89672 34.105 13.2787C34.105 15.4918 33.5299 17.4836 32.3356 17.4836H17.9151C15.9245 17.4836 15.3495 16.7754 16.2341 15.0049C17.8266 11.9508 22.5597 5.97541 25.4792 2.3459C25.9216 1.81475 26.2754 0.97377 24.7272 0.57541C23.179 0.177049 20.6134 0 18.4901 0C7.60838 0 0 5.88689 0 13.5C0 20.4934 6.59098 27 18.4459 27C23.7098 27 30.1239 25.5393 33.7511 21.3787H30.6104C27.0717 24.6098 22.427 25.318 18.4459 25.318C8.89118 25.318 2.83102 20.3607 2.83102 13.5C2.83102 7.17049 9.68741 1.46066 18.3574 1.46066C19.3748 1.46066 19.7287 1.68197 18.6228 3.0541C16.4111 5.79836 12.4742 11.2426 10.6163 14.4295C8.62577 17.8377 10.6606 20.6262 15.1283 20.6262H33.2203C34.3262 20.6262 34.9897 20.0066 35.609 18.8115C36.1398 17.882 36.936 16.023 36.936 13.4557C36.9802 8.32131 33.1318 3.58525 27.2044 1.23934Z" fill="white"/>
<path d="M145.399 12.4834H133.101C133.5 10.9342 134.738 9.82761 136.994 9.82761H148.761V7.17188H136.286C129.165 7.17188 127.484 12.2178 127.484 15.0948H142.7C144.779 15.0948 144.779 17.9276 142.789 17.9276C140.71 17.9276 125.98 17.9276 125.98 17.9276V7.21614H120.937V17.9719H112.532C110.276 17.9719 109.347 16.9096 109.347 15.2276C109.347 13.2358 109.347 7.21614 109.347 7.21614H101.252L93.998 11.7752L87.7609 7.21614H69.7574C64.5377 7.21614 60.8662 10.2702 60.4238 14.0768H63.7857C62.4144 14.962 61.397 16.4227 60.7777 18.0161H50.1171C48.1266 18.0161 47.1534 16.9538 47.1534 15.0063V7.21614H42.0664V13.8112C42.0664 18.0161 44.3666 20.6276 49.4978 20.6276H84.9741L92.2728 16.0243L98.5542 20.6276H106.03L96.2982 13.5014L104.216 8.49974V16.0686C104.216 18.4145 107.268 20.6276 110.011 20.6276H145.443C151.592 20.6276 151.547 12.4834 145.399 12.4834ZM84.0452 17.9719H66.8379C67.0148 16.5112 67.7668 15.0948 70.1112 15.0948H80.7718V12.4834H66.5725C66.8379 11.3768 67.9437 9.87187 70.4651 9.87187H81.745V8.41122L89.8399 14.3424L84.0452 17.9719Z" fill="white"/>
</g>
<defs>
<clipPath id="clip0_16_3356">
<rect width="150" height="27" fill="white"/>
</clipPath>
</defs>
</svg>
