<svg width="120" height="101" viewBox="0 0 120 101" fill="none" xmlns="http://www.w3.org/2000/svg">
<g clip-path="url(#clip0_16_3440)">
<path d="M17.0203 35.1099C23.2652 17.0044 40.5305 4.77103 59.9999 4.77103C79.4693 4.77103 96.7346 17.0044 102.98 35.1099V35.2322H116.694V33.6419L111.061 33.0302C107.51 32.6632 106.775 31.0729 105.796 29.1155L105.551 28.6262C97.3469 11.2547 79.4693 0 59.9999 0C40.5305 0 22.653 11.2547 14.3265 28.6262L14.0816 29.1155C13.2244 31.0729 12.3673 32.6632 8.9387 33.0302L3.18359 33.6419V35.2322H16.8979L17.0203 35.1099Z" fill="white"/>
<path d="M103.102 65.3242V65.4466C96.7346 83.552 79.4693 95.7854 59.9999 95.7854C40.5305 95.7854 23.2652 83.552 17.0203 65.4466V65.3242H3.18359V66.9146L8.9387 67.5262C12.4897 67.8932 13.2244 69.4836 14.204 71.4409L14.4489 71.9303C22.5305 89.3017 40.5305 100.556 59.9999 100.556C79.4693 100.556 97.3469 89.3017 105.673 71.9303L105.918 71.4409C106.898 69.4836 107.633 68.0156 111.184 67.5262L116.939 66.9146V65.3242H103.102Z" fill="white"/>
<path d="M27.797 43.918H24.6133V57.8641H27.797V43.918Z" fill="white"/>
<path d="M17.1429 57.7417V43.918H14.0816V54.3164L3.91837 43.918H0V57.7417H3.06122V47.3433L13.3469 57.7417H17.1429Z" fill="white"/>
<path d="M86.8175 43.918L78.2461 57.8641H81.9196L83.3889 55.4174H93.3073L94.7767 57.8641H98.4502L89.8787 43.918H86.8175ZM91.8379 52.726H84.9808L88.4094 47.0987L91.8379 52.726Z" fill="white"/>
<path d="M69.5516 54.9293C69.4291 54.9293 69.0618 54.9293 68.9393 54.9293H56.0822V57.743H69.0618C69.1842 57.743 69.9189 57.743 70.0414 57.743C72.7353 57.4983 73.8373 55.4186 73.8373 53.4613C73.8373 51.5039 72.6128 49.5466 70.1638 49.3019C69.7965 49.3019 69.4291 49.3019 69.1842 49.3019H60.7352C60.3679 49.3019 60.123 49.3019 59.7557 49.1796C59.1434 49.0572 58.7761 48.5679 58.8985 47.9562C58.8985 47.3446 59.2659 46.8552 59.8781 46.7329C60.123 46.6106 60.4904 46.6106 60.7352 46.6106H72.9801V43.7969H60.6128C60.2455 43.7969 59.7557 43.7969 59.3883 43.9192C57.3067 44.1639 55.7148 45.8766 55.7148 47.9562C55.7148 49.6689 56.8169 51.7486 59.2659 51.9933C59.7557 51.9933 60.123 52.1156 60.6128 51.9933H68.8169C68.9393 51.9933 69.3067 51.9933 69.4291 51.9933C70.1638 52.1156 70.6536 52.7273 70.6536 53.3389C70.6536 54.1953 70.1638 54.8069 69.5516 54.9293Z" fill="white"/>
<path d="M47.0203 54.928C46.8979 54.928 46.5305 54.928 46.4081 54.928H33.6734V57.7417H46.5305C46.653 57.7417 47.3877 57.7417 47.5101 57.7417C50.204 57.4971 51.4285 55.4174 51.4285 53.5824C51.4285 51.7474 50.204 49.6677 47.755 49.423C47.3877 49.423 47.0203 49.423 46.7754 49.423H38.3264C37.9591 49.423 37.7142 49.423 37.3469 49.3007C36.7346 49.1783 36.3673 48.689 36.4897 48.0773C36.4897 47.4657 36.8571 46.9763 37.4693 46.854C37.7142 46.7317 38.0816 46.7317 38.3264 46.7317H50.5713V43.918H38.0816C37.7142 43.918 37.2244 43.918 36.8571 44.0403C34.7754 44.285 33.1836 45.9976 33.1836 48.0773C33.1836 49.79 34.2856 51.8697 36.7346 52.1144C37.2244 52.1144 37.5918 52.2367 38.0816 52.1144H46.2856C46.4081 52.1144 46.7754 52.1144 46.8979 52.1144C47.6326 52.2367 48.1224 52.8484 48.1224 53.46C48.2448 54.194 47.6326 54.8057 47.0203 54.928Z" fill="white"/>
<path d="M119.998 57.7417V43.918H116.937V54.3164L106.774 43.918H102.855V57.7417H105.917V47.3433L116.202 57.7417H119.998Z" fill="white"/>
<path d="M112.042 92.1175C113.511 92.1175 114.735 93.3408 114.735 94.8088C114.735 96.2768 113.511 97.5002 112.042 97.5002C110.572 97.5002 109.348 96.2768 109.348 94.8088C109.348 94.0748 109.593 93.4631 110.205 92.8515C110.572 92.3621 111.307 91.9951 112.042 92.1175ZM112.042 96.8885C112.654 96.8885 113.144 96.6438 113.511 96.2768C113.878 95.9098 114.123 95.2981 114.123 94.8088C114.123 93.7078 113.144 92.7291 112.042 92.8515C110.939 92.8515 109.96 93.8301 109.96 94.9311C109.96 95.9098 110.817 96.8885 112.042 96.8885ZM110.939 96.1545V93.4631C111.307 93.4631 111.552 93.3408 111.919 93.3408C112.409 93.3408 113.144 93.4631 113.144 94.0748C113.144 94.4418 112.899 94.6865 112.531 94.6865C112.776 94.8088 112.899 95.0535 113.021 95.2982C113.021 95.5428 113.144 95.7875 113.266 95.9098H112.654C112.531 95.6652 112.531 95.4205 112.409 95.2982C112.286 94.9311 112.042 94.9311 111.552 94.9311V96.0322L110.939 96.1545ZM111.552 94.5641C112.042 94.5641 112.531 94.5641 112.531 94.1971C112.531 93.9525 112.409 93.8301 111.919 93.8301C111.797 93.8301 111.674 93.8301 111.552 93.8301V94.5641Z" fill="white"/>
</g>
<defs>
<clipPath id="clip0_16_3440">
<rect width="120" height="100.559" fill="white"/>
</clipPath>
</defs>
</svg>
