<svg width="150" height="19" viewBox="0 0 150 19" fill="none" xmlns="http://www.w3.org/2000/svg">
<g clip-path="url(#clip0_16_3452)">
<path d="M117.902 17.8701V15.562L120.215 15.3172C121.009 15.2123 121.354 14.4779 121.457 14.303L127.187 4.82569C127.67 4.09128 127.187 3.42682 126.6 3.35688L123.563 3.00716V0.664062H136.644C137.369 0.664062 137.852 1.18864 138.128 1.6083L145.756 13.4287C146.342 14.3729 146.825 15.1074 147.585 15.2123L150.001 15.492V17.8701H135.298V15.527L137.161 15.2822C138.059 15.1773 138.784 14.7576 138.059 13.6735L137.334 12.5894H126.911L126.117 13.9183C125.634 14.7227 126.117 15.2123 126.876 15.3172L128.74 15.562V17.9051L117.902 17.8701ZM128.774 9.58183H135.367L132.053 4.26614L128.774 9.58183Z" fill="white"/>
<path d="M108.132 0.664062H91.3236V3.00716L93.429 3.21699C94.2228 3.32191 94.5334 3.91643 94.5334 4.6858C94.5334 5.45518 94.5334 13.2539 94.5334 13.9533C94.5334 14.5828 94.2573 15.2123 93.567 15.3172L91.2891 15.6319V17.9051H108.132C115.863 17.9051 119.211 14.0932 119.211 9.05726C119.211 4.51094 115.863 0.664062 108.132 0.664062ZM105.544 14.5828H101.195V3.9514H105.544C109.685 3.9514 111.411 4.9306 111.411 9.23211C111.411 13.6036 109.685 14.5828 105.544 14.5828Z" fill="white"/>
<path d="M0 17.8701H13.5987V15.562L11.2862 15.2822C10.7685 15.2123 10.2163 14.8625 10.2163 13.7085V10.9457H20.6742V13.5686C20.6742 14.338 20.5361 15.0724 19.6387 15.1773L17.2572 15.4571V17.8351H30.856V15.4571L28.4399 15.1773C27.9567 15.1074 27.439 14.7227 27.439 13.7435V4.86066C27.439 3.9514 27.7842 3.32191 28.4745 3.25196L30.856 2.97219V0.664062H17.2918V2.97219L19.6733 3.28694C20.4671 3.39185 20.7087 4.02134 20.7087 4.89563V7.58845H10.2163V4.86066C10.2163 3.84648 10.596 3.35688 11.3208 3.28694L13.6332 3.00716V0.664062H0.0345145V3.00716L2.31247 3.28694C3.20985 3.39185 3.45145 4.05631 3.41693 4.9306V13.6385C3.41693 14.6177 3.14082 15.2123 2.27796 15.2822L0 15.597V17.8701Z" fill="white"/>
<path d="M31.5469 9.19754C31.5469 3.77694 35.8612 0 45.4562 0C54.9822 0 59.2965 3.77694 59.2965 9.19754C59.2965 14.758 54.9822 18.5 45.4562 18.5C35.8612 18.5 31.5469 14.7231 31.5469 9.19754ZM45.4217 3.32231C41.5561 3.32231 39.3472 4.79111 39.3472 9.23251C39.3472 13.7788 41.5561 15.2127 45.4217 15.2127C49.2873 15.2127 51.4963 13.7439 51.4963 9.23251C51.4963 4.75614 49.2873 3.32231 45.4217 3.32231Z" fill="white"/>
<path d="M60.0547 17.8701H70.9268V15.562L68.5798 15.2822C67.924 15.2123 67.5098 14.6527 67.5098 13.8484V5.10546L76.5526 17.1707C76.8632 17.5554 77.4155 17.8351 77.9677 17.8351H86.4928V4.82569C86.4928 4.1962 86.6654 3.39185 87.5282 3.25196L89.9097 2.97219V0.664062H79.0377V2.97219L81.4192 3.28694C82.2475 3.39185 82.4546 4.09128 82.4546 4.89563V13.4287L73.4808 1.43344C73.1357 0.978807 72.7215 0.664062 72.0657 0.664062H60.0547V3.00716L62.3326 3.28694C63.1265 3.39185 63.4371 3.81151 63.4371 4.9306V13.6385C63.4371 14.6877 63.161 15.1773 62.2981 15.2822L60.0547 15.562V17.8701Z" fill="white"/>
</g>
<defs>
<clipPath id="clip0_16_3452">
<rect width="150" height="18.5" fill="white"/>
</clipPath>
</defs>
</svg>
