<svg width="144" height="144" viewBox="0 0 144 144" fill="none" xmlns="http://www.w3.org/2000/svg">
<path d="M90.9159 68.7654C90.7213 42.4067 88.3384 12.7411 84.3505 3.45231L71.6089 0.339844L58.8672 3.45231C54.8794 12.7411 52.4964 42.3581 52.3019 68.7168L46.7578 69.1544V74.7471L52.3019 75.1848C52.4964 101.544 54.8794 131.209 58.8672 140.449L71.6089 143.562L84.3505 140.449C88.3384 131.161 90.7213 101.544 90.9159 75.1362L96.314 74.6985V69.1058L90.9159 68.7654ZM62.8064 133.009C59.2077 117.543 58.4782 92.0116 58.1864 75.4766L67.232 76.1575L68.8368 133.009H62.8064ZM67.232 67.8414L58.1864 68.5222C58.4782 51.9873 59.2077 26.4553 62.8064 10.9903H68.7882L67.232 67.8414ZM80.4113 133.009H74.2836L75.8885 76.1575L85.0314 75.4766C84.7396 92.0116 84.0587 117.543 80.4113 133.009ZM75.8885 67.8414L74.2836 10.9903H80.4113C84.0101 26.4553 84.7396 51.9873 85.0314 68.5222L75.8885 67.8414Z" fill="#E8F3FF"/>
</svg>
