<svg width="150" height="66" viewBox="0 0 150 66" fill="none" xmlns="http://www.w3.org/2000/svg">
<g clip-path="url(#clip0_16_3361)">
<path fill-rule="evenodd" clip-rule="evenodd" d="M74.9343 60.784C59.4216 60.784 46.6696 48.208 46.6696 32.75C46.6696 17.292 59.2901 4.716 74.9343 4.716C90.447 4.716 103.199 17.292 103.199 32.75C103.199 48.208 90.5784 60.784 74.9343 60.784ZM119.369 45.588H105.302C106.091 43.885 106.617 42.051 107.143 40.086H124.89L129.623 35.37H107.8C107.932 34.453 107.932 33.536 107.932 32.619C107.932 31.702 107.932 30.785 107.8 29.868H135.145L139.877 25.152H107.143C106.748 23.318 106.091 21.484 105.302 19.65H145.267L150 14.934H102.805C96.8887 6.026 86.6345 0 75.0657 0C63.3655 0 53.1113 6.026 47.3269 15.196H0L4.73269 19.912H44.6976C43.9089 21.615 43.383 23.449 42.8571 25.414H10.2542L14.9869 30.13H42.3313C42.0684 30.916 42.0684 31.833 42.0684 32.75C42.0684 33.667 42.0684 34.584 42.1998 35.501H20.3769L25.1096 40.217H42.9886C43.383 42.051 44.0403 43.885 44.8291 45.719H30.631L35.3637 50.435H47.3269C53.2428 59.605 63.4969 65.631 75.0657 65.631C86.766 65.631 97.0202 59.605 102.805 50.435H114.768L119.369 45.588ZM94.3909 40.217H97.4146V25.283H94.3909V40.217ZM81.5075 40.217H78.4838V25.283H82.1648L88.0806 36.025V25.283H90.9728V40.086H87.2919L81.5075 29.475V40.217ZM72.0421 40.217H75.0657V25.283H72.0421V40.217ZM55.3462 40.217H52.454V25.283H56.7923L60.6047 37.073L64.4172 25.283H68.7555V40.086H65.7318V29.082L62.1823 40.086H58.8957L55.3462 29.082V40.217Z" fill="white"/>
</g>
<defs>
<clipPath id="clip0_16_3361">
<rect width="150" height="65.5" fill="white"/>
</clipPath>
</defs>
</svg>
