<svg width="144" height="144" viewBox="0 0 144 144" fill="none" xmlns="http://www.w3.org/2000/svg">
<path d="M81.3875 126.731C79.8763 127.379 79.8763 126.3 80.7399 125.868C85.4895 123.709 89.3755 119.823 91.7503 115.289C87.8643 117.664 85.0577 117.232 82.0352 119.175C79.0127 121.118 77.7174 125.004 74.2631 127.379C78.1491 131.265 81.1716 132.345 83.3306 132.345C85.0577 132.56 86.7848 132.345 88.512 131.913C92.8298 131.049 96.5 128.89 99.9542 128.243C92.398 125.652 85.4895 125.22 81.3875 126.731ZM64.7638 133.208C60.0142 134.503 53.3216 137.094 46.6289 137.094C47.0607 137.742 47.7084 138.39 48.356 139.037C48.7878 139.253 49.0037 139.253 49.4355 139.253C56.7758 137.742 62.389 134.719 68.6499 132.992C67.3545 132.992 65.8433 132.992 64.7638 133.208Z" fill="#E8F3FF"/>
<path d="M102.983 121.98C99.0967 122.196 95.4266 123.275 91.9723 124.571C96.2901 124.139 101.903 129.104 108.38 124.787C109.244 124.139 112.266 122.844 113.777 121.98C111.187 121.98 107.517 121.332 102.983 121.98ZM88.7339 123.491C95.6424 121.764 101.472 116.799 104.278 110.106C100.824 112.481 98.8808 111.833 94.7789 115.719C93.2676 117.23 91.5405 121.548 88.7339 123.491ZM58.509 4.53467C50.7369 3.6711 46.8509 6.47769 43.8284 9.93197C45.5555 9.93197 47.2826 9.93197 48.7939 9.71608C52.4641 8.85251 55.9183 6.90948 58.509 4.53467ZM41.2377 15.7611C44.2602 15.3293 47.0667 14.0339 49.4416 12.0909C44.9078 11.0114 40.3741 12.5227 37.1357 15.7611C38.4311 15.9769 39.7264 15.9769 41.2377 15.7611ZM25.2617 21.5901C28.2841 18.9994 30.4431 15.7611 31.7384 12.0909C26.3411 14.2498 22.6709 18.9994 21.8074 24.8285C22.0233 24.3967 23.9663 22.6696 25.2617 21.5901ZM27.4206 21.806C28.7159 21.806 30.0113 21.806 31.5225 21.5901C34.3291 20.9425 36.9198 19.6471 39.0787 17.4882C34.7609 16.6246 30.2272 18.3518 27.4206 21.806ZM31.9543 23.7491C25.2617 23.965 22.6709 26.1239 19.8644 30.6576L23.7504 29.3623C26.7729 28.2828 29.5795 26.3398 31.9543 23.7491ZM43.6125 5.83002C36.9198 7.98894 34.545 10.3638 32.8179 15.5452C38.8629 13.6021 41.2377 10.5796 43.6125 5.83002ZM18.1372 42.9634C12.7399 45.77 9.50153 51.5991 10.3651 57.6441C11.0128 56.7805 11.4446 55.7011 12.0922 54.8375C14.8988 51.3832 16.8419 47.2813 18.1372 42.9634ZM1.94531 75.779C2.3771 77.2903 2.59299 78.5856 2.80888 80.0969C3.67245 86.3577 10.1492 88.9485 12.7399 91.1074C10.581 85.0624 6.91083 79.6651 1.94531 75.779ZM29.3636 109.026C28.5 107.299 27.8524 103.845 26.3411 100.823C24.8299 98.4477 23.3186 96.0729 21.5915 93.914C20.2961 101.47 25.6934 106.004 29.3636 109.026ZM41.4536 117.23C39.5105 115.287 37.9993 110.538 36.2721 108.811C33.0338 105.356 32.1702 105.572 29.3636 102.334C30.2272 109.026 34.9768 114.856 41.4536 117.23ZM6.04726 89.812C6.26315 90.4597 7.34261 92.4027 8.20618 94.1299C10.3651 98.8795 15.1147 101.47 20.0802 102.981C17.2736 97.5841 11.8763 93.2663 6.04726 89.812ZM20.512 113.344C21.1597 113.776 22.6709 115.071 24.1822 116.367C28.9318 120.469 34.9768 118.526 40.3741 119.605C32.8179 114.424 25.2617 114.208 20.512 113.344ZM13.3876 102.981C13.8194 103.413 15.1147 105.356 16.1942 106.652C20.512 112.265 26.9888 111.617 30.659 112.912C25.9093 107.947 19.8643 104.493 13.3876 102.981ZM19.2167 93.6981C19.6485 87.0054 15.9783 84.4147 15.5465 80.9605C14.0353 86.5736 14.6829 91.5392 19.8644 98.2318C19.4326 96.7206 19.2167 95.2093 19.2167 93.6981ZM12.524 84.8465C12.7399 83.1194 12.9558 81.6081 13.1717 80.0969C14.2512 75.3473 13.6035 72.5407 13.1717 68.0069C9.06975 74.2678 9.50153 79.0174 12.524 84.8465ZM4.75191 75.3473C5.83137 76.2108 6.91083 77.938 7.7744 79.0174C7.99029 72.3248 5.83137 65.6321 1.94531 60.2348C2.80888 64.9844 0.434068 71.0294 4.75191 75.3473ZM9.28564 69.7341C9.71743 68.8705 10.3651 67.791 11.0128 66.9275C14.8988 62.3937 14.2512 58.5077 15.5465 54.6216C11.6605 58.5077 8.63797 61.7461 9.28564 69.7341ZM8.63797 50.3038C11.4446 44.2588 12.7399 39.2933 11.4446 33.0324C10.3651 35.839 7.34261 39.0774 7.34261 43.3952C7.55851 45.3383 8.85386 50.0879 8.63797 50.3038ZM6.91083 64.5527C7.7744 57.6441 9.06975 54.1898 5.83137 46.4177C4.9678 49.872 1.72942 55.4852 4.75191 60.8825C5.39959 61.962 6.26315 63.2573 6.91083 64.5527ZM24.614 31.3053C19.0008 32.8165 14.8988 37.3503 13.3876 42.7476C13.6035 42.5317 15.9783 40.8045 17.2736 40.1569C20.2961 37.782 22.8868 34.7596 24.614 31.3053ZM13.8194 36.4867C17.2736 32.1688 19.4326 26.7715 19.8644 21.1584L16.626 25.0444C14.8988 27.2033 13.8194 29.794 13.6035 32.6006C13.3876 33.896 13.8194 34.9754 13.8194 36.4867ZM100.176 9.93197C97.1537 6.47769 93.0517 3.6711 85.4955 4.53467C88.3021 7.12537 91.5405 8.85251 94.9948 9.71608C96.7219 9.93197 98.4491 9.93197 100.176 9.93197ZM94.7789 11.875C96.9378 14.0339 99.7444 15.3293 102.767 15.7611C104.062 15.9769 105.573 15.9769 106.869 15.7611C103.846 12.5227 99.3126 11.0114 94.7789 11.875ZM118.743 21.5901C119.822 22.6696 121.981 24.3967 122.197 24.6126C121.334 18.9994 117.663 14.0339 112.266 11.875C113.777 15.7611 115.936 18.9994 118.743 21.5901ZM116.584 21.806C113.777 18.3518 109.46 16.8405 105.142 17.4882C107.085 19.6471 109.891 20.9425 112.698 21.5901C113.993 21.806 115.289 21.806 116.584 21.806ZM112.05 23.7491C114.425 26.3398 117.232 28.2828 120.254 29.5781L124.14 30.8735C121.549 26.1239 118.743 23.965 112.05 23.7491ZM111.403 15.5452C109.46 10.3638 107.085 7.98894 100.608 5.83002C102.983 10.5796 105.358 13.6021 111.403 15.5452ZM132.128 55.0534C132.776 55.917 133.424 56.7805 133.855 57.86C134.503 51.815 131.481 45.77 126.083 43.1793C127.163 47.2813 129.322 51.3832 132.128 55.0534ZM131.265 90.8915C133.855 88.7326 140.332 86.1419 141.196 79.881C141.412 78.3698 141.627 77.0744 142.059 75.5632C137.094 79.6651 133.424 85.0624 131.265 90.8915ZM122.413 93.914C120.686 96.0729 119.175 98.4477 117.663 100.823C116.152 103.629 115.505 107.083 114.641 109.026C118.311 106.004 123.708 101.47 122.413 93.914ZM114.641 102.334C111.834 105.572 111.187 105.14 107.732 108.811C106.005 110.754 104.278 115.503 102.551 117.23C109.244 115.071 113.777 109.242 114.641 102.334ZM124.14 102.766C128.89 101.038 133.855 98.4477 136.014 93.914C136.878 92.1868 137.741 90.2438 138.173 89.5961C132.344 93.2663 126.947 97.5841 124.14 102.766ZM120.038 116.367C121.549 115.071 123.061 113.776 123.708 113.344C118.959 114.424 111.403 114.424 103.846 119.821C109.244 118.526 115.289 120.469 120.038 116.367ZM113.346 112.912C117.016 111.401 123.708 112.049 127.81 106.652C128.89 105.14 130.185 103.413 130.617 102.981C126.299 104.277 118.959 106.436 113.346 112.912ZM128.674 80.9605C128.242 84.4147 124.572 87.0054 125.004 93.6981C125.004 95.2093 124.788 96.7206 124.572 98.2318C129.322 91.5392 130.185 86.5736 128.674 80.9605ZM130.833 80.0969C131.265 81.6081 131.481 83.3353 131.481 85.0624C134.503 79.2333 134.935 74.4837 130.617 68.2228C130.401 72.5407 129.753 75.1314 130.833 80.0969ZM136.23 79.0174C137.094 77.938 138.389 76.4267 139.253 75.3473C143.57 71.0294 141.196 64.9844 142.059 60.2348C138.173 65.6321 136.014 72.3248 136.23 79.0174ZM128.458 54.6216C129.753 58.5077 129.106 62.3937 132.992 66.9275C133.639 67.791 134.287 68.8705 134.719 69.7341C135.367 61.7461 132.56 58.5077 128.458 54.6216ZM136.446 43.3952C136.446 39.0774 133.639 36.0549 132.344 33.0324C131.049 39.2933 132.344 44.2588 135.151 50.3038C135.151 50.0879 136.446 45.3383 136.446 43.3952ZM137.094 64.5527C137.741 63.2573 138.389 61.962 139.253 60.8825C142.059 55.4852 138.821 49.872 138.173 46.4177C135.151 54.1898 136.23 57.6441 137.094 64.5527ZM126.731 40.1569C128.026 41.0204 130.185 42.5317 130.401 42.7476C129.106 37.1344 124.788 32.8165 119.391 31.3053C121.118 34.7596 123.708 37.782 126.731 40.1569ZM130.617 32.6006C130.617 29.794 129.537 27.2033 127.81 25.0444C126.731 23.7491 125.22 22.4537 124.356 21.1584C124.572 26.7715 126.731 32.1688 130.401 36.4867C130.185 34.9754 130.617 33.896 130.617 32.6006ZM62.1792 119.821C58.2931 117.23 53.9753 117.23 52.0323 115.935C54.623 120.253 58.2931 123.923 62.8269 126.298C63.6904 126.73 64.1222 128.025 62.611 127.377C58.2931 125.65 49.4416 126.298 44.0443 129.104C47.7144 129.968 52.2482 132.559 57.2137 132.99C61.5315 133.422 64.9858 131.479 70.1672 131.695C76.8598 132.127 77.9393 135.797 93.6994 139.683C94.3471 139.899 94.9948 139.683 95.4266 139.251C95.8583 138.82 96.506 138.172 96.9378 137.524C83.5525 136.661 76.4281 132.343 70.8149 127.593C67.7924 124.787 64.3381 121.332 62.1792 119.821Z" fill="#E8F3FF"/>
<path d="M51.8119 124.571C48.3576 123.06 44.4715 122.197 40.8014 121.981C36.2676 121.549 32.8134 122.197 30.2227 121.981C31.7339 122.844 34.7564 124.356 35.62 124.787C41.8808 129.105 47.494 123.924 51.8119 124.571ZM55.0502 123.492C52.4595 121.333 50.5165 117.231 49.0053 115.72C44.6874 111.834 42.9603 112.482 39.506 110.107C42.3126 116.799 48.1417 121.765 55.0502 123.492ZM49.8688 54.4066L49.437 54.6225H48.5735C47.9258 54.4066 47.2781 54.4066 46.8463 54.6225L45.9828 54.8384C45.551 55.0542 45.551 54.8384 45.551 54.6225C45.551 54.4066 45.551 54.4066 45.7669 54.1907C45.9828 53.7589 45.9828 53.3271 45.551 52.8953C45.1192 52.6794 44.6874 52.8953 44.4715 53.1112L43.608 53.7589C43.3921 53.9748 43.3921 54.1907 43.8239 54.1907C44.2556 54.1907 44.2556 54.6225 44.2556 55.0542C44.2556 55.486 44.2556 55.7019 44.0397 56.1337C43.8239 56.5655 44.0397 57.2132 44.6874 57.4291H47.2781C48.3576 57.4291 49.2212 56.7814 49.6529 55.7019C49.6529 55.486 50.0847 55.0542 50.0847 54.8384C50.0847 54.6225 50.0847 54.1907 49.8688 54.4066ZM66.2766 54.4066L65.8448 54.6225H65.1972C64.5495 54.4066 63.9018 54.4066 63.2541 54.6225L62.3906 54.8384C61.9588 55.0542 61.9588 54.8384 61.9588 54.6225L62.1747 54.1907C62.3906 53.7589 62.3906 53.3271 62.1747 52.8953C61.7429 52.6794 61.3111 52.8953 61.0952 53.1112L60.2317 53.7589C60.0158 53.9748 60.0158 54.1907 60.4475 54.1907C60.8793 54.1907 60.8793 54.6225 60.8793 55.0542C60.8793 55.486 60.6634 55.7019 60.6634 56.1337C60.4475 56.5655 60.6634 57.2132 61.3111 57.4291H64.1177C65.1972 57.4291 66.0607 56.7814 66.4925 55.7019C66.4925 55.486 66.9243 55.0542 66.9243 54.8384C66.9243 54.6225 66.4925 54.1907 66.2766 54.4066ZM72.1057 32.1697C73.4011 32.1697 74.6964 31.0902 74.6964 29.579C74.6964 28.0677 73.617 26.9883 72.1057 26.9883C70.5945 26.9883 69.515 28.0677 69.515 29.579C69.515 31.0902 70.5945 32.1697 72.1057 32.1697ZM61.527 33.0333C62.8224 32.8174 63.9018 31.522 63.6859 30.2267C63.47 28.9313 62.1747 27.8518 60.8793 28.0677C59.584 28.2836 58.5045 29.579 58.7204 30.8743C58.9363 32.3856 60.2317 33.2492 61.527 33.0333ZM49.8688 30.8743C48.5735 31.3061 47.7099 32.6015 48.1417 33.8968C48.5735 35.1922 49.8688 36.0557 51.1642 35.624H51.3801C52.6754 35.1922 53.3231 33.6809 52.8913 32.3856C52.4595 31.3061 51.1642 30.4426 49.8688 30.8743ZM39.506 35.1922C38.2107 35.8399 37.7789 37.3511 38.4266 38.4306C38.8583 39.7259 40.1537 40.3736 41.449 39.9418C42.7444 39.51 43.3921 38.2147 42.9603 36.9193C42.9603 36.7034 42.7444 36.2716 42.5285 36.0557C42.0967 35.1922 40.5855 34.5445 39.506 35.1922ZM82.4685 33.0333C83.7639 33.2492 85.0592 32.1697 85.2751 30.8743C85.491 29.579 84.4116 28.2836 83.1162 28.0677C81.8209 27.8518 80.5255 28.9313 80.3096 30.2267C80.0937 31.522 80.9573 32.8174 82.4685 33.0333ZM92.6155 35.624C93.9108 36.0557 95.4221 35.4081 95.8538 34.1127C96.2856 32.8174 95.6379 31.3061 94.3426 30.8743C93.0472 30.4426 91.536 31.0902 91.1042 32.3856C90.4565 33.6809 91.3201 35.1922 92.6155 35.624ZM102.331 39.51C103.626 40.1577 105.137 39.7259 105.785 38.4306C106.433 37.1352 106.001 35.624 104.705 35.1922C103.41 34.5445 101.899 34.9763 101.251 36.0557C100.603 37.3511 101.035 38.8623 102.115 39.51H102.331ZM77.2871 78.1547C77.7189 78.1547 77.7189 78.5865 77.7189 79.0183C77.7189 79.45 77.503 79.6659 77.503 80.0977C77.2871 80.7454 77.503 81.1772 78.1507 81.3931H80.7414C81.8209 81.3931 82.6844 80.7454 83.1162 79.6659C83.3321 79.4501 83.3321 79.0183 83.548 78.8024C83.7639 78.3706 83.3321 78.1547 83.1162 78.3706H82.0368C81.3891 78.1547 80.7414 78.1547 80.0937 78.3706C79.8778 78.5865 79.6619 78.5865 79.2302 78.5865C78.7984 78.8024 78.7984 78.5865 78.7984 78.3706L79.0143 77.9388C79.2301 77.507 79.2301 77.0752 79.0143 76.6435C78.5825 76.4276 78.1507 76.6435 77.9348 76.8593L77.0712 77.507C76.6395 77.7229 76.8553 78.1547 77.2871 78.1547ZM92.6155 78.1547C93.0472 78.1547 93.0472 78.5865 93.0472 79.0183C93.0472 79.45 93.0472 79.6659 92.8314 80.0977C92.6155 80.7454 92.8313 81.1772 93.479 81.3931H96.0697C97.1492 81.3931 98.0128 80.7454 98.4445 79.6659C98.6604 79.4501 98.6604 79.0183 98.8763 78.8024C99.0922 78.3706 98.6604 78.1547 98.4445 78.3706C98.2287 78.3706 98.2287 78.5865 98.0128 78.5865H97.1492C96.5015 78.3706 95.8538 78.3706 95.4221 78.5865C95.2062 78.8024 94.9903 78.8024 94.5585 78.8024C94.1267 79.0183 94.1267 78.8024 94.1267 78.5865C94.1267 78.3706 94.1267 78.3706 94.3426 78.1547C94.5585 77.7229 94.5585 77.2911 94.1267 76.8593C93.6949 76.6435 93.2631 76.8593 93.0472 77.0752L92.1837 77.7229C92.1837 77.7229 92.3996 78.1547 92.6155 78.1547ZM52.6754 69.3031C53.1072 69.3031 53.1072 69.7349 53.1072 70.1667C53.1072 70.5985 52.8913 70.8144 52.8913 71.2462C52.6754 71.8938 52.8913 72.3256 53.539 72.5415H56.1297C57.2092 72.5415 58.0727 71.8938 58.5045 70.8144C58.5045 70.5985 58.9363 70.1667 58.9363 69.9508C59.1522 69.519 58.7204 69.3031 58.5045 69.519C58.2886 69.519 58.2886 69.7349 58.0727 69.7349H57.2092C56.5615 69.519 55.9138 69.519 55.482 69.7349L54.6185 69.9508C54.1867 69.9508 54.1867 69.9508 54.1867 69.7349C54.1867 69.519 54.1867 69.519 54.4026 69.3031C54.6185 68.8713 54.6185 68.4396 54.1867 68.0078C53.7549 67.7919 53.3231 68.0078 53.1072 68.2237C52.8913 68.4396 52.4595 68.6554 52.2436 68.8713C52.2436 68.8713 52.4595 69.3031 52.6754 69.3031ZM84.1957 93.0512C84.6275 93.0512 84.6275 93.483 84.6275 93.9148C84.6275 94.3466 84.4116 94.5625 84.4116 94.9943C84.1957 95.642 84.4116 96.0737 85.0592 96.2896H87.6499C88.7294 96.2896 89.593 95.642 90.0248 94.5625C90.0248 94.3466 90.4565 93.9148 90.4565 93.6989C90.4565 93.483 90.2407 93.0513 90.0248 93.2671C89.8089 93.2671 89.8089 93.483 89.593 93.483H88.9453C88.2976 93.2671 87.6499 93.2671 87.0023 93.483C86.7864 93.6989 86.5705 93.6989 86.1387 93.6989C85.7069 93.9148 85.7069 93.6989 85.7069 93.483L85.9228 93.0512C86.1387 92.6195 86.1387 92.1877 85.9228 91.7559C85.491 91.54 85.0592 91.7559 84.8433 91.9718L83.9798 92.6195C83.7639 92.8354 83.7639 93.2671 84.1957 93.0512Z" fill="#E8F3FF"/>
<path d="M55.272 28.9323C52.8971 26.3416 49.0111 26.1257 46.4204 28.5006C45.3409 29.58 44.6932 30.8754 44.4773 32.3866C43.3979 31.523 42.1025 31.0913 40.5913 31.0913C37.137 31.0913 34.3304 33.8979 34.5463 37.3521C34.5463 39.9428 36.2734 42.3176 38.8642 43.1812V48.7944H27.4219L38.6483 60.6685V90.0298C38.6483 94.9953 40.5913 98.6655 46.8522 99.3131C53.113 99.9608 60.0216 100.824 63.26 101.256C67.5778 101.688 69.7367 102.336 72.3274 106.006C74.7022 102.552 77.077 101.688 81.3949 101.256C84.6333 100.824 91.7577 100.177 97.8027 99.3131C103.848 98.4496 106.007 94.9953 106.007 90.0298V60.8844L117.017 49.0103H105.575V43.3971C108.813 42.5335 110.756 39.0793 109.893 35.625C109.029 32.3866 105.575 30.4436 102.121 31.3072C101.257 31.523 100.609 31.9548 99.9616 32.3866C99.5298 28.9323 96.5073 26.5575 93.0531 26.9893C91.5418 27.2052 90.2465 27.8529 89.167 28.9323C88.3034 25.694 84.8492 23.7509 81.3949 24.6145C79.8836 25.0463 78.8042 25.9098 77.9406 27.2052C76.4294 24.1827 72.7592 22.6715 69.7367 24.1827C68.4414 24.8304 67.3619 25.9098 66.7142 27.2052C64.7712 24.3986 60.8851 23.7509 58.0785 25.694C56.5673 26.3416 55.7037 27.637 55.272 28.9323ZM40.3754 58.9413L33.251 51.3851H71.4638V58.9413H40.3754ZM55.7037 94.1317H41.8866C41.4549 93.0523 41.0231 91.9728 41.0231 90.8934H55.7037V94.1317ZM55.7037 85.9278H41.0231V75.1332H55.7037V85.9278ZM71.4638 101.688C69.5208 100.177 67.146 99.3132 64.7712 99.0973L56.9991 98.2337V87.2232H71.6797L71.4638 101.688ZM71.4638 82.2577H56.9991V79.2352H71.6797L71.4638 82.2577ZM71.4638 74.0538H41.0231V66.4976H71.4638V74.0538ZM71.4638 65.2022H41.0231V60.2367H71.4638V65.2022ZM72.5433 51.3851H87.224V62.1797H72.5433V51.3851ZM87.224 67.1452V70.3836H72.5433V67.3611L87.224 67.1452ZM96.9391 96.9383L79.236 98.8814C76.8612 99.0973 74.4863 99.9608 72.5433 101.472V90.2457H102.984C102.984 94.1317 101.689 96.5066 96.9391 96.9383ZM102.984 89.1662H72.5433V83.9848H102.984V89.1662ZM102.984 82.9054H72.5433V75.1332H102.984V82.9054ZM102.984 74.2697H88.5193V63.4751H103.2V74.2697H102.984ZM107.302 55.2712L104.279 58.2937H88.5193V55.0553L107.302 55.2712ZM60.4534 26.1257C63.0441 25.694 65.4189 27.4211 65.8507 30.0118V31.523L67.5778 31.3072C67.3619 30.8754 67.3619 30.4436 67.3619 29.7959C67.146 27.2052 69.089 25.0463 71.6797 24.8304C74.2705 24.6145 76.4294 26.5575 76.6453 29.1482V29.7959C76.6453 30.2277 76.6453 30.6595 76.4294 31.3072L78.1565 31.523V30.0118C78.3724 27.4211 80.7472 25.694 83.3379 25.9098C85.9286 26.1257 87.6558 28.5006 87.4399 31.0913C87.4399 31.7389 87.224 32.3866 86.7922 32.8184L88.7352 33.2502C88.7352 32.8184 88.7352 32.3866 88.9511 31.9548C89.8147 29.58 92.4054 28.2847 94.7802 29.1482C97.155 30.0118 98.4504 32.6025 97.5868 34.9773C97.3709 35.4091 97.155 35.8409 96.9391 36.0568L98.6663 36.7045C98.6663 36.2727 98.8821 35.8409 99.098 35.4091C100.177 33.0343 102.984 32.1707 105.359 33.4661C107.734 34.5455 108.597 37.3521 107.302 39.7269C106.87 40.5905 106.222 41.2382 105.359 41.67L99.5298 44.9083L98.6663 39.0793C97.5868 38.6475 96.5073 37.9998 95.212 37.568L90.8941 41.0223L89.167 35.4091C88.0875 34.9773 86.7922 34.7614 85.4968 34.5455L81.3949 38.8634L78.8042 33.4661C77.5088 33.2502 76.4294 33.2502 75.134 33.2502L71.8956 37.9998L68.4414 33.2502C67.146 33.2502 66.0666 33.4661 64.7712 33.4661L62.1805 38.8634L58.0785 34.5455C56.7832 34.7614 55.7037 34.9773 54.4084 35.4091L52.6812 41.0223L47.9316 37.568C46.8522 37.9998 45.7727 38.4316 44.4773 39.0793L43.8297 44.9083L38.0006 41.67C35.8417 40.3746 34.9781 37.568 36.0576 35.4091C37.3529 33.2502 40.1595 32.3866 42.3184 33.4661C43.182 33.8979 43.8297 34.5455 44.2615 35.4091C44.4773 35.8409 44.6932 36.2727 44.6932 36.7045L46.4204 36.0568L45.7727 34.7614C45.3409 32.1707 47.0681 29.7959 49.6588 29.3641C52.2495 28.9323 54.6243 30.6595 55.0561 33.2502L56.7832 32.8184C56.5673 32.3866 56.3514 31.9548 56.3514 31.523C56.3514 28.7164 57.8627 26.3416 60.4534 26.1257Z" fill="#E8F3FF"/>
</svg>
