<svg width="144" height="144" viewBox="0 0 144 144" fill="none" xmlns="http://www.w3.org/2000/svg">
<path d="M72.2271 45.082C32.7933 45.082 1.11328 56.9343 1.11328 71.7774C1.11328 86.5097 33.0148 98.4728 72.2271 98.4728C111.439 98.4728 143.341 86.5097 143.341 71.7774C143.452 57.1559 111.439 45.082 72.2271 45.082ZM72.2271 96.1467C34.5656 96.1467 4.10405 85.2913 4.10405 71.7774C4.10405 58.3743 34.6763 47.4082 72.2271 47.4082C109.889 47.4082 140.35 58.2636 140.35 71.7774C140.461 85.2913 109.889 96.1467 72.2271 96.1467ZM100.252 77.2051V77.4266C100.252 77.5374 100.473 77.6482 100.584 77.759C100.584 77.759 100.695 77.8697 100.584 77.9805C100.141 78.9774 99.6979 79.5313 99.144 80.3066C98.5902 81.082 98.0364 81.6359 97.3717 82.1897C96.3748 83.0759 94.824 83.962 93.6056 83.4082C93.0517 83.0759 92.8302 82.4113 92.8302 81.7467C92.8302 80.0851 93.6056 78.3128 95.0456 76.5405C96.7071 74.4359 98.701 73.3282 99.9194 73.9928C101.249 74.5466 100.916 76.0974 100.252 77.2051ZM65.0271 66.1282C64.9164 65.4636 65.1379 64.6882 65.8025 64.1343C66.1348 63.802 66.5779 63.802 66.9102 64.0236C67.2425 64.2451 67.021 64.9097 66.7994 65.4636C66.4671 66.0174 65.9133 66.4605 65.3594 66.4605C65.1379 66.3497 65.0271 66.3497 65.0271 66.1282ZM72.2271 49.5128C35.8948 49.5128 6.4302 59.5928 6.4302 71.8882C6.4302 84.0728 35.8948 94.1528 72.2271 94.1528C108.559 94.1528 138.024 84.0728 138.024 71.7774C138.024 59.482 108.559 49.5128 72.2271 49.5128ZM38.4425 86.5097C34.5656 86.5097 31.1317 84.1836 30.6887 79.9743C30.4671 77.6482 31.1317 75.6543 32.461 73.882C33.5687 72.3313 35.5625 71.1128 37.224 70.7805C37.7779 70.6697 38.4425 70.7805 38.7748 71.1128C39.2179 71.6666 39.1071 72.2205 38.6641 72.5528C37.4456 73.2174 35.8948 74.3251 35.1194 75.7651C34.4548 76.9836 34.344 78.5343 35.341 79.8636C36.8917 82.1897 41.2117 82.3005 45.3102 78.5343C46.3071 77.6482 47.1933 76.762 48.0794 75.6543C49.8517 73.6605 50.4056 72.8851 52.8425 69.562V69.4513L52.7317 69.3405C51.181 69.3405 49.741 69.8943 48.4117 70.8913C48.0794 71.2236 47.5256 71.1128 47.1933 70.7805C46.9717 70.3374 47.0825 69.7836 47.5256 69.562C49.6302 68.0113 52.0671 67.7897 54.3933 67.3466C54.3933 67.3466 54.6148 67.3466 54.7256 67.1251C55.7225 65.9066 56.4979 64.6882 57.4948 63.4697C58.6025 62.1405 59.9317 61.0328 60.9287 60.0359C62.3687 58.8174 63.3656 58.3743 64.2517 57.8205C64.4733 57.7097 64.2517 57.4882 64.141 57.4882C58.824 56.4913 53.2856 55.162 48.0794 57.1559C44.424 58.4851 42.8733 61.3651 43.6487 63.359C44.2025 64.6882 45.9748 64.9097 47.7471 64.1343C49.1871 63.4697 50.4056 62.362 51.4025 60.922C51.9564 60.1466 52.9533 60.7005 52.3994 62.0297C50.8487 65.6851 47.8579 68.5651 44.3133 68.6759C41.2117 68.7866 39.3287 66.5713 39.3287 63.802C39.3287 58.3743 45.421 54.719 51.8456 54.1651C59.5994 53.5005 66.9102 55.6051 74.5533 56.4913C80.424 57.1559 86.0733 57.2666 91.944 55.8266C92.6087 55.7159 93.1625 56.159 93.0517 56.8236C92.941 57.8205 92.1656 58.8174 90.2825 59.9251C88.0671 61.1436 85.741 61.4759 83.304 61.4759C77.4333 61.4759 72.0056 59.2605 66.3564 58.042C66.3564 58.2636 66.4671 58.5959 66.2456 58.7066C63.144 61.0328 60.264 63.359 58.381 66.5713C58.2702 66.682 58.381 66.682 58.4917 66.682C60.1533 66.5713 61.5933 66.5713 63.144 66.4605C63.3656 66.4605 63.3656 66.3497 63.3656 66.1282C63.2548 65.0205 63.5871 63.6913 64.584 62.8051C65.581 61.919 66.9102 61.8082 67.6856 62.4728C68.6825 63.2482 68.5717 64.5774 68.0179 65.5743C67.4641 66.5713 66.5779 67.1251 65.8025 67.4574C65.8025 67.4574 65.581 67.4574 65.6917 67.679C65.6917 67.9005 66.9102 68.5651 67.021 68.7866C67.1317 68.8974 67.021 69.2297 66.9102 69.3405C66.7994 69.4513 66.5779 69.562 66.3564 69.562C66.1348 69.562 66.024 69.4513 65.8025 69.3405C65.2487 69.0082 64.584 68.5651 64.2517 68.0113C64.141 67.7897 64.0302 67.7897 63.6979 67.7897C62.0364 67.9005 59.4887 68.122 57.7164 68.3436C57.2733 68.3436 57.2733 68.4543 57.1625 68.6759C54.3933 73.2174 51.4025 78.202 48.0794 81.5251C44.5348 85.5128 41.544 86.5097 38.4425 86.5097ZM114.098 64.1343C113.544 65.0205 103.132 80.9713 102.467 82.522C102.246 83.0759 102.246 83.4082 102.467 83.7405C103.021 84.5159 104.239 84.0728 105.015 83.519C107.23 81.9682 108.781 80.0851 110.553 78.4236C110.664 78.3128 110.775 78.3128 110.886 78.4236C111.107 78.6451 111.55 78.9774 111.772 79.199C111.883 79.3097 111.883 79.4205 111.772 79.5313C110.11 81.6359 108.227 83.519 106.455 84.959C103.686 87.0636 100.916 87.6174 99.4764 86.2882C98.9225 85.7343 98.701 85.0697 98.701 84.4051C98.701 84.0728 98.4794 84.0728 98.3687 84.1836C96.7071 85.8451 93.8271 87.6174 91.2794 86.2882C89.064 85.1805 88.621 82.6328 89.064 80.4174C89.064 80.4174 89.064 80.0851 88.7317 80.1959C88.2887 80.5282 87.7348 80.8605 86.9594 81.1928C86.0733 81.5251 85.6302 81.6359 84.744 81.6359C83.6364 81.6359 82.7502 81.1928 82.0856 80.0851C81.7533 79.5313 81.5317 78.6451 81.5317 77.9805C81.5317 77.8697 81.421 77.759 81.3102 77.9805C79.5379 80.639 77.8764 83.2974 76.104 86.0666C75.9933 86.1774 75.8825 86.2882 75.7717 86.2882H72.3379C72.1164 86.2882 72.0056 86.1774 72.1164 85.9559C72.781 84.7374 76.104 79.8636 78.4302 75.6543C79.0948 74.5466 78.984 73.882 78.541 73.6605C78.0979 73.3282 77.101 73.7713 76.2148 74.4359C73.9994 76.0974 72.1163 78.7559 71.1194 79.9743C70.5656 80.639 70.0117 81.7466 68.5717 83.2974C66.2456 85.8451 63.144 87.2851 60.264 86.2882C58.6025 85.7343 57.4948 84.4051 57.0517 82.8543C56.941 82.522 56.8302 82.4113 56.6087 82.6328C56.1656 83.1866 55.1687 84.0728 54.2825 84.6266C54.1717 84.7374 53.9502 84.8482 53.7287 84.7374C53.5071 84.6266 52.9533 83.8513 52.8425 83.519C52.7317 83.2974 52.8425 83.1866 52.9533 83.0759C54.1717 82.079 54.7256 81.4143 55.2794 80.8605C55.6117 80.4174 55.944 79.8636 56.2764 78.9774C56.941 77.2051 58.6025 73.882 61.8148 72.1097C63.0333 71.4451 64.2517 71.002 65.6917 70.7805C66.2456 70.6697 66.7994 70.7805 66.9102 71.2236C67.021 71.4451 67.1317 71.8882 67.2425 72.1097C67.3533 72.3313 67.2425 72.442 67.021 72.5528C65.1379 73.3282 63.2548 74.4359 61.9256 76.2082C60.3748 78.202 60.0425 80.639 61.0394 81.9682C61.8148 82.9651 62.9225 83.1866 64.141 82.7436C65.9133 82.1897 67.3533 80.639 68.1287 78.7559C68.904 76.762 69.1256 74.5466 68.461 72.442C68.3502 72.1097 68.461 71.7774 68.6825 71.6666C69.1256 71.3343 69.7902 71.002 69.901 70.8913C70.344 70.6697 70.7871 70.7805 71.0087 71.1128C71.6733 71.999 72.0056 73.3282 72.0056 74.7682C72.0056 75.1005 72.1164 75.1005 72.3379 74.879C73.4456 73.6605 74.5533 72.442 75.661 71.4451C76.7687 70.559 78.2087 69.8943 79.4271 69.8943C81.0887 69.8943 81.9748 71.1128 81.864 73.1066C81.864 73.3282 82.0856 73.3282 82.1964 73.2174C82.7502 72.442 83.0825 72.1097 83.6364 71.6666C84.8548 70.6697 85.9625 70.2266 87.2917 70.3374C88.8425 70.4482 90.061 71.8882 89.8394 73.439C89.7287 74.4359 89.064 75.4328 88.1779 75.8759C87.4025 76.319 86.4056 76.2082 85.741 75.6543C85.1871 75.2113 85.0764 74.4359 85.1871 73.7713C85.1871 73.6605 85.0764 73.439 84.8548 73.6605C83.304 75.2113 83.1933 77.2051 84.1902 78.202C85.2979 79.199 86.8487 78.5343 88.0671 77.759C90.2825 76.319 91.944 74.4359 93.8271 72.8851C95.1563 71.8882 96.5964 71.002 98.2579 70.7805C99.144 70.6697 100.03 70.6697 100.916 71.1128C102.135 71.5559 102.799 72.5528 102.91 73.439C102.91 73.6605 103.132 73.7713 103.243 73.5497C104.129 72.1097 109.224 64.5774 109.667 63.802C109.778 63.5805 109.889 63.4697 110.221 63.4697H113.766C114.098 63.9128 114.098 64.0236 114.098 64.1343Z" fill="#E8F3FF"/>
</svg>
