<svg width="144" height="144" viewBox="0 0 144 144" fill="none" xmlns="http://www.w3.org/2000/svg">
<path d="M140.234 56.8384L99.7243 56.8442C98.6932 56.8442 98.0193 56.5389 98.0193 55.1162V49.1027C98.0193 47.369 97.0862 46.4531 95.3928 46.4531H49.0132C47.2795 46.4531 46.3867 47.4323 46.3867 49.0854V55.0989C46.3867 56.3661 45.7876 56.8269 44.676 56.8269L18.1281 56.8326C16.0948 56.8326 14.9083 57.8003 14.2977 59.0733L1.36652 84.3366C1.19948 84.6592 1.10156 85.0336 1.10156 85.4138C1.10156 86.4102 1.75244 87.7062 3.56684 87.7062L44.6702 87.7005C45.9374 87.7005 46.3809 88.2765 46.3809 89.4285V95.4362C46.3809 97.2506 47.4292 98.0685 49.0132 98.0685H95.387C96.9652 98.0685 98.0193 97.3024 98.0193 95.4534L98.0136 89.4458C98.0136 88.2189 98.532 87.7178 99.7185 87.7178L125.5 87.712C127.274 87.712 128.553 87.2454 129.446 85.5923L142.227 60.6227C142.51 60.0813 142.694 59.776 142.694 59.1366C142.694 57.4317 141.231 56.8384 140.234 56.8384ZM130.022 66.9011L123.859 78.9568C123.473 79.6595 122.787 79.6826 122.303 79.6826H91.7294C90.4622 79.6826 90.0014 80.2528 90.0014 81.4048V88.3398C90.0014 89.4861 89.4945 90.0448 88.2619 90.0448H56.1384C55.0612 90.0448 54.4046 89.6646 54.4046 88.3226V81.3933C54.4046 80.1261 53.8228 79.6768 52.6708 79.6768H15.179C14.2574 79.6768 13.6238 79.1008 13.6238 78.2944C13.6238 78.0582 13.6814 77.8451 13.7851 77.6435L19.9483 65.5936C20.1844 65.1731 20.5704 64.8678 21.4977 64.8678L52.6708 64.8736C53.748 64.8736 54.4161 64.4416 54.4161 63.1341V56.199C54.4161 54.9722 54.9518 54.4826 56.1384 54.4826L88.2561 54.4768C89.4081 54.4768 89.9841 54.9894 89.9841 56.2163V63.1456C89.9841 64.3379 90.5371 64.8621 91.7294 64.8621H128.622C129.797 64.8621 130.183 65.6339 130.183 66.2502C130.183 66.4749 130.126 66.6995 130.022 66.9011Z" fill="#E8F3FF"/>
</svg>
