<svg width="144" height="144" viewBox="0 0 144 144" fill="none" xmlns="http://www.w3.org/2000/svg">
<path d="M0 64.7954C0 60.0146 2.97216 56.789 8.59392 56.789H45.0778V63.5685H9.68832C8.6976 63.5685 7.81632 64.0754 7.81632 65.573V76.8741C7.81632 78.245 8.39232 79.132 10.201 79.132H35.1245C36.4378 79.132 37.4515 78.6654 37.4515 76.9374V74.2936H22.8614V67.8366H45.0778V78.2219C45.0778 83.1928 41.4605 85.9115 35.7811 85.9115H8.65152C3.16224 85.9115 0 82.9394 0 77.9627L0 64.7954ZM77.6218 85.9115L90.0864 63.8219V85.9115H97.897V56.789H85.8816L73.9987 77.7035L62.1158 56.7832H50.1062V85.9058H57.9168V63.8219L70.3814 85.9115H77.6218ZM144 85.9115H111.329C105.828 85.9115 102.678 82.9394 102.678 77.9685V64.7954C102.678 60.0146 105.638 56.789 111.26 56.789H144V64.1099H112.36C111.37 64.1099 110.483 64.611 110.483 66.1086V76.3326C110.483 77.7093 111.064 78.5906 112.873 78.5906H144V85.9115Z" fill="#E8F3FF"/>
</svg>
