<svg width="144" height="144" viewBox="0 0 144 144" fill="none" xmlns="http://www.w3.org/2000/svg">
<path d="M71.8009 137.043C35.8818 137.043 6.75824 107.919 6.75824 72.0002C6.75824 36.0811 35.8818 6.95746 71.8009 6.95746C107.72 6.95746 136.844 36.0811 136.844 72.0002C136.844 107.919 107.72 137.043 71.8009 137.043ZM71.8009 3.52734C33.9726 3.52734 3.32812 34.1718 3.32812 72.0002C3.32812 109.828 33.9726 140.473 71.8009 140.473C109.629 140.473 140.274 109.828 140.274 72.0002C140.274 34.1718 109.597 3.52734 71.8009 3.52734ZM71.8009 137.593C80.6674 137.593 89.2427 135.846 97.3326 132.448C105.131 129.147 112.153 124.423 118.172 118.404C124.191 112.385 128.916 105.363 132.216 97.5642C135.646 89.4743 137.361 80.899 137.361 72.0325C137.361 63.166 135.614 54.5907 132.216 46.5008C128.916 38.7022 124.191 31.6802 118.172 25.6613C112.153 19.6424 105.131 14.9179 97.3326 11.6172C89.2427 8.18712 80.6674 6.47206 71.8009 6.47206C62.9344 6.47206 54.3591 8.21948 46.2692 11.6172C38.4706 14.9179 31.4486 19.6424 25.4297 25.6613C19.4108 31.6802 14.6863 38.7022 11.3857 46.5008C7.95554 54.5907 6.24048 63.166 6.24048 72.0325C6.24048 80.899 7.9879 89.4743 11.3857 97.5642C14.6863 105.363 19.4108 112.385 25.4297 118.404C31.4486 124.423 38.4706 129.147 46.2692 132.448C54.3591 135.846 62.9344 137.593 71.8009 137.593ZM71.8009 4.07746C80.9587 4.07746 89.8576 5.85723 98.2387 9.41678C106.329 12.8469 113.609 17.7332 119.823 23.9786C126.068 30.224 130.954 37.4725 134.384 45.5624C137.911 53.9435 139.724 62.8424 139.724 72.0002C139.724 81.1579 137.944 90.0568 134.384 98.4379C130.954 106.528 126.068 113.776 119.823 120.022C113.577 126.267 106.329 131.153 98.2387 134.584C89.8576 138.111 80.9587 139.923 71.8009 139.923C62.6432 139.923 53.7443 138.143 45.3632 134.584C37.2733 131.153 29.9924 126.267 23.7794 120.022C17.5663 113.776 12.6477 106.528 9.21756 98.4379C5.69037 90.0568 3.87824 81.1579 3.87824 72.0002C3.87824 62.8424 5.69037 53.9435 9.21756 45.5624C12.6477 37.4725 17.534 30.224 23.7794 23.9786C30.0248 17.7332 37.2733 12.8469 45.3632 9.41678C53.7119 5.85723 62.6108 4.07746 71.8009 4.07746Z" fill="#E8F3FF"/>
<path d="M31.4588 30.1578C30.6175 29.4459 29.2907 29.4135 28.7082 30.1255L23.6602 36.1443L26.7667 38.7655L31.75 32.8113C32.3972 32.0347 32.3972 30.9344 31.4588 30.1578ZM37.5748 37.1151C38.2867 36.2738 38.1572 34.9794 37.1541 34.138C36.248 33.3938 34.9213 33.5879 34.3388 34.2998L29.0318 40.6099L32.3325 43.3605L37.5748 37.1151Z" fill="#E8F3FF"/>
<path d="M71.8044 6.95508C35.8853 6.95508 6.76172 36.0787 6.76172 71.9978C6.76172 107.917 35.8853 137.04 71.8044 137.04C107.724 137.04 136.847 107.917 136.847 71.9978C136.847 36.0787 107.724 6.95508 71.8044 6.95508ZM61.8377 9.34968H67.0152L71.7073 21.614L76.3671 9.34968H81.5446V26.5326H78.1145V14.5272L73.5842 26.5326H69.8305L65.3001 14.5272V26.5326H61.87L61.8377 9.34968ZM18.4759 37.6319L26.857 27.6328C28.6044 25.5618 31.0314 23.9115 33.3289 25.8531C34.0408 26.4679 34.3321 26.662 35.2058 28.2153C35.3999 28.7654 35.5617 29.8009 35.1734 30.7717C37.1797 29.542 39.3154 29.9304 40.7069 31.2895C42.8426 33.3605 42.519 35.7551 40.5127 38.1497L31.6786 48.6989L18.4759 37.6319ZM71.8044 115.618C47.7289 115.618 28.1837 96.1056 28.1837 71.9978C28.1837 47.9223 47.6965 28.3771 71.8044 28.3771C95.8799 28.3771 115.425 47.8899 115.425 71.9978C115.393 96.0733 95.8799 115.618 71.8044 115.618ZM112.124 48.0841L109.18 44.5245L114.81 36.0463L114.778 36.014L105.394 40.0265L102.417 36.4993L112.221 23.5232L114.713 26.5326L108.565 34.7843L118.111 30.5452L120.797 33.7811L114.907 42.3564L124.13 37.8261L126.621 40.8355L112.124 48.0841Z" fill="#E8F3FF"/>
<path d="M30.7734 72.0015H71.773V31.002C49.1537 31.002 30.7734 49.3498 30.7734 72.0015ZM71.8053 72.0015V113.001C94.457 113.001 112.805 94.6532 112.805 72.0015H71.8053Z" fill="#E8F3FF"/>
</svg>
